<mxfile host="app.diagrams.net" modified="2023-02-20T16:43:15.088Z" agent="5.0 (Windows)" etag="sWVBvF_njOn6ObHyizqb" version="20.4.0" type="github">
  <diagram name="Page-1" id="c9db0220-8083-56f3-ca83-edcdcd058819">
    <mxGraphModel dx="1038" dy="564" grid="1" gridSize="10" guides="1" tooltips="1" connect="1" arrows="1" fold="1" page="1" pageScale="1.5" pageWidth="826" pageHeight="1169" background="#ffffff" math="0" shadow="0">
      <root>
        <mxCell id="0" style=";html=1;" />
        <mxCell id="1" style=";html=1;" parent="0" />
        <mxCell id="J5Lqej5zV_sNJ-SoRFqQ-703" value="" style="shape=line;strokeWidth=2;html=1;strokeColor=#DFE1E5;resizeWidth=1;sketch=1;hachureGap=4;pointerEvents=0;fontFamily=Architects Daughter;fontSource=https%3A%2F%2Ffonts.googleapis.com%2Fcss%3Ffamily%3DArchitects%2BDaughter;fontSize=20;fillStyle=auto;" parent="1" vertex="1">
          <mxGeometry x="183.22" y="5155.71" width="777.85" height="14.29" as="geometry" />
        </mxCell>
        <mxCell id="J5Lqej5zV_sNJ-SoRFqQ-729" value="" style="endArrow=none;html=1;rounded=0;fontSize=12;fontColor=#FF3333;entryX=0.646;entryY=0.002;entryDx=0;entryDy=0;entryPerimeter=0;" parent="1" target="J5Lqej5zV_sNJ-SoRFqQ-695" edge="1">
          <mxGeometry width="50" height="50" relative="1" as="geometry">
            <mxPoint x="520" y="5190" as="sourcePoint" />
            <mxPoint x="660.72" y="5098.93" as="targetPoint" />
          </mxGeometry>
        </mxCell>
        <mxCell id="J5Lqej5zV_sNJ-SoRFqQ-728" value="" style="endArrow=none;html=1;rounded=0;fontSize=12;fontColor=#FF3333;entryX=0;entryY=0.25;entryDx=0;entryDy=0;" parent="1" source="J5Lqej5zV_sNJ-SoRFqQ-720" target="J5Lqej5zV_sNJ-SoRFqQ-724" edge="1">
          <mxGeometry width="50" height="50" relative="1" as="geometry">
            <mxPoint x="390.03" y="5100" as="sourcePoint" />
            <mxPoint x="658.0751031250002" y="5098.142857142857" as="targetPoint" />
          </mxGeometry>
        </mxCell>
        <mxCell id="J5Lqej5zV_sNJ-SoRFqQ-727" value="" style="endArrow=none;html=1;rounded=0;fontSize=12;fontColor=#FF3333;exitX=0.059;exitY=0;exitDx=0;exitDy=0;exitPerimeter=0;entryX=0.635;entryY=-0.065;entryDx=0;entryDy=0;entryPerimeter=0;" parent="1" source="J5Lqej5zV_sNJ-SoRFqQ-721" target="J5Lqej5zV_sNJ-SoRFqQ-695" edge="1">
          <mxGeometry width="50" height="50" relative="1" as="geometry">
            <mxPoint x="590" y="4950" as="sourcePoint" />
            <mxPoint x="640" y="4900" as="targetPoint" />
          </mxGeometry>
        </mxCell>
        <mxCell id="J5Lqej5zV_sNJ-SoRFqQ-331" value="" style="endArrow=none;html=1;rounded=0;entryX=1.005;entryY=0.826;entryDx=0;entryDy=0;entryPerimeter=0;exitX=0.01;exitY=0.994;exitDx=0;exitDy=0;exitPerimeter=0;" parent="1" source="J5Lqej5zV_sNJ-SoRFqQ-325" target="J5Lqej5zV_sNJ-SoRFqQ-295" edge="1">
          <mxGeometry width="50" height="50" relative="1" as="geometry">
            <mxPoint x="860" y="1507.5" as="sourcePoint" />
            <mxPoint x="828.5" y="1536.1599999999999" as="targetPoint" />
          </mxGeometry>
        </mxCell>
        <mxCell id="J5Lqej5zV_sNJ-SoRFqQ-329" value="" style="endArrow=none;html=1;rounded=0;entryX=0.994;entryY=0.072;entryDx=0;entryDy=0;entryPerimeter=0;exitX=0;exitY=0.25;exitDx=0;exitDy=0;" parent="1" source="J5Lqej5zV_sNJ-SoRFqQ-326" target="J5Lqej5zV_sNJ-SoRFqQ-295" edge="1">
          <mxGeometry width="50" height="50" relative="1" as="geometry">
            <mxPoint x="710" y="1550" as="sourcePoint" />
            <mxPoint x="760" y="1500" as="targetPoint" />
          </mxGeometry>
        </mxCell>
        <mxCell id="J5Lqej5zV_sNJ-SoRFqQ-330" value="" style="endArrow=none;html=1;rounded=0;entryX=0.996;entryY=0.3;entryDx=0;entryDy=0;entryPerimeter=0;" parent="1" target="J5Lqej5zV_sNJ-SoRFqQ-295" edge="1">
          <mxGeometry width="50" height="50" relative="1" as="geometry">
            <mxPoint x="950" y="1580" as="sourcePoint" />
            <mxPoint x="818.5" y="1526.1599999999999" as="targetPoint" />
          </mxGeometry>
        </mxCell>
        <mxCell id="J5Lqej5zV_sNJ-SoRFqQ-262" value="" style="endArrow=none;html=1;rounded=0;exitX=0.05;exitY=1.033;exitDx=0;exitDy=0;exitPerimeter=0;entryX=0.024;entryY=1.003;entryDx=0;entryDy=0;entryPerimeter=0;" parent="1" source="J5Lqej5zV_sNJ-SoRFqQ-258" target="J5Lqej5zV_sNJ-SoRFqQ-254" edge="1">
          <mxGeometry width="50" height="50" relative="1" as="geometry">
            <mxPoint x="537.3699999999999" y="830.76" as="sourcePoint" />
            <mxPoint x="605.9499999999998" y="692.6399999999999" as="targetPoint" />
          </mxGeometry>
        </mxCell>
        <mxCell id="3d76a8aef4d5c911-1" value="" style="html=1;shadow=0;dashed=0;shape=mxgraph.bootstrap.rect;fillColor=#222222;strokeColor=none;whiteSpace=wrap;rounded=0;fontSize=12;fontColor=#000000;align=center;" parent="1" vertex="1">
          <mxGeometry x="40" y="70" width="1150" height="40" as="geometry" />
        </mxCell>
        <mxCell id="3d76a8aef4d5c911-2" value="MEMLA" style="html=1;shadow=0;dashed=0;fillColor=none;strokeColor=none;shape=mxgraph.bootstrap.rect;fontColor=#999999;fontSize=14;whiteSpace=wrap;" parent="3d76a8aef4d5c911-1" vertex="1">
          <mxGeometry width="115" height="40" as="geometry" />
        </mxCell>
        <mxCell id="3d76a8aef4d5c911-3" value="Publications" style="html=1;shadow=0;dashed=0;shape=mxgraph.bootstrap.rect;fillColor=#000000;strokeColor=none;fontColor=#ffffff;spacingRight=30;whiteSpace=wrap;" parent="3d76a8aef4d5c911-1" vertex="1">
          <mxGeometry x="115" width="129.375" height="40" as="geometry" />
        </mxCell>
        <mxCell id="3d76a8aef4d5c911-4" value="84" style="html=1;shadow=0;dashed=0;shape=mxgraph.bootstrap.rrect;rSize=8;fillColor=#ff0000;strokeColor=none;fontColor=#ffffff;whiteSpace=wrap;" parent="3d76a8aef4d5c911-3" vertex="1">
          <mxGeometry x="1" y="0.5" width="25" height="16" relative="1" as="geometry">
            <mxPoint x="-30" y="-8" as="offset" />
          </mxGeometry>
        </mxCell>
        <mxCell id="3d76a8aef4d5c911-5" value="&lt;div&gt;About MEMLA&lt;/div&gt;" style="html=1;shadow=0;dashed=0;fillColor=none;strokeColor=none;shape=mxgraph.bootstrap.rect;fontColor=#999999;spacingRight=30;whiteSpace=wrap;" parent="3d76a8aef4d5c911-1" vertex="1">
          <mxGeometry x="244.375" width="158.125" height="40" as="geometry" />
        </mxCell>
        <mxCell id="3d76a8aef4d5c911-6" value="42" style="html=1;shadow=0;dashed=0;shape=mxgraph.bootstrap.rrect;rSize=8;fillColor=#ff0000;strokeColor=none;fontColor=#ffffff;whiteSpace=wrap;" parent="3d76a8aef4d5c911-5" vertex="1">
          <mxGeometry x="1" y="0.5" width="25" height="16" relative="1" as="geometry">
            <mxPoint x="-30" y="-8" as="offset" />
          </mxGeometry>
        </mxCell>
        <mxCell id="3d76a8aef4d5c911-7" value="About US" style="html=1;shadow=0;dashed=0;fillColor=none;strokeColor=none;shape=mxgraph.bootstrap.rect;fontColor=#999999;whiteSpace=wrap;" parent="3d76a8aef4d5c911-1" vertex="1">
          <mxGeometry x="402.5" width="115" height="40" as="geometry" />
        </mxCell>
        <mxCell id="3d76a8aef4d5c911-9" value="Login" style="html=1;shadow=0;dashed=0;fillColor=none;strokeColor=none;shape=mxgraph.bootstrap.rect;fontColor=#999999;whiteSpace=wrap;" parent="3d76a8aef4d5c911-1" vertex="1">
          <mxGeometry x="948.75" width="100.625" height="40" as="geometry" />
        </mxCell>
        <mxCell id="3d76a8aef4d5c911-10" value="Register" style="html=1;shadow=0;dashed=0;fillColor=none;strokeColor=none;shape=mxgraph.bootstrap.rect;fontColor=#999999;whiteSpace=wrap;" parent="3d76a8aef4d5c911-1" vertex="1">
          <mxGeometry x="1049.375" width="100.625" height="40" as="geometry" />
        </mxCell>
        <mxCell id="3d76a8aef4d5c911-51" value="Back" style="html=1;shadow=0;dashed=0;shape=mxgraph.bootstrap.rrect;align=center;rSize=5;strokeColor=none;fillColor=#3D8BCD;fontColor=#ffffff;fontSize=16;whiteSpace=wrap;rounded=0;" parent="1" vertex="1">
          <mxGeometry x="170" y="390" width="150" height="40" as="geometry" />
        </mxCell>
        <mxCell id="3d76a8aef4d5c911-53" value="Next" style="html=1;shadow=0;dashed=0;shape=mxgraph.bootstrap.rrect;align=center;rSize=5;strokeColor=none;fillColor=#DB524C;fontColor=#ffffff;fontSize=16;whiteSpace=wrap;rounded=0;" parent="1" vertex="1">
          <mxGeometry x="800" y="390" width="170" height="40" as="geometry" />
        </mxCell>
        <mxCell id="J5Lqej5zV_sNJ-SoRFqQ-2" value="Phase 2: Cargar Archivo" style="html=1;shadow=0;dashed=0;shape=mxgraph.bootstrap.rrect;rSize=5;strokeColor=#B8DCFE;strokeWidth=1;fillColor=#CCE7FE;fontColor=#004583;whiteSpace=wrap;align=left;verticalAlign=middle;spacingLeft=10;" parent="1" vertex="1">
          <mxGeometry x="170" y="150" width="720" height="40" as="geometry" />
        </mxCell>
        <mxCell id="J5Lqej5zV_sNJ-SoRFqQ-3" value="Choose file" style="html=1;shadow=0;dashed=0;shape=mxgraph.bootstrap.rrect;rSize=5;strokeColor=#CED4DA;html=1;whiteSpace=wrap;fillColor=#FFFFFF;fontColor=#7D868C;align=left;spacingLeft=0;spacing=15;fontSize=14;" parent="1" vertex="1">
          <mxGeometry x="170" y="250" width="810" height="30" as="geometry" />
        </mxCell>
        <mxCell id="J5Lqej5zV_sNJ-SoRFqQ-4" value="Browse" style="html=1;shadow=0;dashed=0;shape=mxgraph.bootstrap.rightButton;strokeColor=inherit;gradientColor=inherit;fontColor=inherit;fillColor=#E9ECEF;rSize=5;perimeter=none;whiteSpace=wrap;resizeHeight=1;fontSize=14;" parent="J5Lqej5zV_sNJ-SoRFqQ-3" vertex="1">
          <mxGeometry x="1" width="70" height="30" relative="1" as="geometry">
            <mxPoint x="-70" as="offset" />
          </mxGeometry>
        </mxCell>
        <mxCell id="J5Lqej5zV_sNJ-SoRFqQ-5" value="El archivo esta en blanco" style="html=1;shadow=0;dashed=0;shape=mxgraph.bootstrap.rrect;rSize=5;strokeColor=#F4C5CB;strokeWidth=1;fillColor=#F8D6DA;fontColor=#711623;whiteSpace=wrap;align=left;verticalAlign=middle;spacingLeft=10;" parent="1" vertex="1">
          <mxGeometry x="170" y="310" width="800" height="40" as="geometry" />
        </mxCell>
        <mxCell id="J5Lqej5zV_sNJ-SoRFqQ-6" value="" style="html=1;shadow=0;dashed=0;shape=mxgraph.bootstrap.rect;fillColor=#222222;strokeColor=none;whiteSpace=wrap;rounded=0;fontSize=12;fontColor=#000000;align=center;" parent="1" vertex="1">
          <mxGeometry x="40" y="530" width="1150" height="40" as="geometry" />
        </mxCell>
        <mxCell id="J5Lqej5zV_sNJ-SoRFqQ-7" value="MEMLA" style="html=1;shadow=0;dashed=0;fillColor=none;strokeColor=none;shape=mxgraph.bootstrap.rect;fontColor=#999999;fontSize=14;whiteSpace=wrap;" parent="J5Lqej5zV_sNJ-SoRFqQ-6" vertex="1">
          <mxGeometry width="115" height="40" as="geometry" />
        </mxCell>
        <mxCell id="J5Lqej5zV_sNJ-SoRFqQ-8" value="Publicactions" style="html=1;shadow=0;dashed=0;shape=mxgraph.bootstrap.rect;fillColor=#000000;strokeColor=none;fontColor=#ffffff;spacingRight=30;whiteSpace=wrap;" parent="J5Lqej5zV_sNJ-SoRFqQ-6" vertex="1">
          <mxGeometry x="115" width="129.375" height="40" as="geometry" />
        </mxCell>
        <mxCell id="J5Lqej5zV_sNJ-SoRFqQ-9" value="84" style="html=1;shadow=0;dashed=0;shape=mxgraph.bootstrap.rrect;rSize=8;fillColor=#ff0000;strokeColor=none;fontColor=#ffffff;whiteSpace=wrap;" parent="J5Lqej5zV_sNJ-SoRFqQ-8" vertex="1">
          <mxGeometry x="1" y="0.5" width="25" height="16" relative="1" as="geometry">
            <mxPoint x="-30" y="-8" as="offset" />
          </mxGeometry>
        </mxCell>
        <mxCell id="J5Lqej5zV_sNJ-SoRFqQ-10" value="&lt;div&gt;About MEMLA&lt;/div&gt;" style="html=1;shadow=0;dashed=0;fillColor=none;strokeColor=none;shape=mxgraph.bootstrap.rect;fontColor=#999999;spacingRight=30;whiteSpace=wrap;" parent="J5Lqej5zV_sNJ-SoRFqQ-6" vertex="1">
          <mxGeometry x="244.375" width="158.125" height="40" as="geometry" />
        </mxCell>
        <mxCell id="J5Lqej5zV_sNJ-SoRFqQ-11" value="42" style="html=1;shadow=0;dashed=0;shape=mxgraph.bootstrap.rrect;rSize=8;fillColor=#ff0000;strokeColor=none;fontColor=#ffffff;whiteSpace=wrap;" parent="J5Lqej5zV_sNJ-SoRFqQ-10" vertex="1">
          <mxGeometry x="1" y="0.5" width="25" height="16" relative="1" as="geometry">
            <mxPoint x="-30" y="-8" as="offset" />
          </mxGeometry>
        </mxCell>
        <mxCell id="J5Lqej5zV_sNJ-SoRFqQ-12" value="About US" style="html=1;shadow=0;dashed=0;fillColor=none;strokeColor=none;shape=mxgraph.bootstrap.rect;fontColor=#999999;whiteSpace=wrap;" parent="J5Lqej5zV_sNJ-SoRFqQ-6" vertex="1">
          <mxGeometry x="402.5" width="115" height="40" as="geometry" />
        </mxCell>
        <mxCell id="J5Lqej5zV_sNJ-SoRFqQ-13" value="Login" style="html=1;shadow=0;dashed=0;fillColor=none;strokeColor=none;shape=mxgraph.bootstrap.rect;fontColor=#999999;whiteSpace=wrap;" parent="J5Lqej5zV_sNJ-SoRFqQ-6" vertex="1">
          <mxGeometry x="948.75" width="100.625" height="40" as="geometry" />
        </mxCell>
        <mxCell id="J5Lqej5zV_sNJ-SoRFqQ-14" value="Register" style="html=1;shadow=0;dashed=0;fillColor=none;strokeColor=none;shape=mxgraph.bootstrap.rect;fontColor=#999999;whiteSpace=wrap;" parent="J5Lqej5zV_sNJ-SoRFqQ-6" vertex="1">
          <mxGeometry x="1049.375" width="100.625" height="40" as="geometry" />
        </mxCell>
        <mxCell id="J5Lqej5zV_sNJ-SoRFqQ-17" value="Back" style="html=1;shadow=0;dashed=0;shape=mxgraph.bootstrap.rrect;align=center;rSize=5;strokeColor=none;fillColor=#3D8BCD;fontColor=#ffffff;fontSize=16;whiteSpace=wrap;rounded=0;" parent="1" vertex="1">
          <mxGeometry x="170" y="1210" width="150" height="40" as="geometry" />
        </mxCell>
        <mxCell id="J5Lqej5zV_sNJ-SoRFqQ-18" value="Next" style="html=1;shadow=0;dashed=0;shape=mxgraph.bootstrap.rrect;align=center;rSize=5;strokeColor=none;fillColor=#DB524C;fontColor=#ffffff;fontSize=16;whiteSpace=wrap;rounded=0;" parent="1" vertex="1">
          <mxGeometry x="800" y="1210" width="170" height="40" as="geometry" />
        </mxCell>
        <mxCell id="J5Lqej5zV_sNJ-SoRFqQ-19" value="Phase 2: Ajuste de dominio" style="html=1;shadow=0;dashed=0;shape=mxgraph.bootstrap.rrect;rSize=5;strokeColor=#B8DCFE;strokeWidth=1;fillColor=#CCE7FE;fontColor=#004583;whiteSpace=wrap;align=left;verticalAlign=middle;spacingLeft=10;" parent="1" vertex="1">
          <mxGeometry x="170" y="610" width="720" height="40" as="geometry" />
        </mxCell>
        <mxCell id="J5Lqej5zV_sNJ-SoRFqQ-23" value="" style="html=1;shadow=0;dashed=0;shape=mxgraph.bootstrap.rect;fillColor=#222222;strokeColor=none;whiteSpace=wrap;rounded=0;fontSize=12;fontColor=#000000;align=center;" parent="1" vertex="1">
          <mxGeometry x="40" y="1310" width="1150" height="40" as="geometry" />
        </mxCell>
        <mxCell id="J5Lqej5zV_sNJ-SoRFqQ-24" value="MEMLA" style="html=1;shadow=0;dashed=0;fillColor=none;strokeColor=none;shape=mxgraph.bootstrap.rect;fontColor=#999999;fontSize=14;whiteSpace=wrap;" parent="J5Lqej5zV_sNJ-SoRFqQ-23" vertex="1">
          <mxGeometry width="115" height="40" as="geometry" />
        </mxCell>
        <mxCell id="J5Lqej5zV_sNJ-SoRFqQ-25" value="Publicactions" style="html=1;shadow=0;dashed=0;shape=mxgraph.bootstrap.rect;fillColor=#000000;strokeColor=none;fontColor=#ffffff;spacingRight=30;whiteSpace=wrap;" parent="J5Lqej5zV_sNJ-SoRFqQ-23" vertex="1">
          <mxGeometry x="115" width="129.375" height="40" as="geometry" />
        </mxCell>
        <mxCell id="J5Lqej5zV_sNJ-SoRFqQ-26" value="84" style="html=1;shadow=0;dashed=0;shape=mxgraph.bootstrap.rrect;rSize=8;fillColor=#ff0000;strokeColor=none;fontColor=#ffffff;whiteSpace=wrap;" parent="J5Lqej5zV_sNJ-SoRFqQ-25" vertex="1">
          <mxGeometry x="1" y="0.5" width="25" height="16" relative="1" as="geometry">
            <mxPoint x="-30" y="-8" as="offset" />
          </mxGeometry>
        </mxCell>
        <mxCell id="J5Lqej5zV_sNJ-SoRFqQ-27" value="&lt;div&gt;About MEMLA&lt;/div&gt;" style="html=1;shadow=0;dashed=0;fillColor=none;strokeColor=none;shape=mxgraph.bootstrap.rect;fontColor=#999999;spacingRight=30;whiteSpace=wrap;" parent="J5Lqej5zV_sNJ-SoRFqQ-23" vertex="1">
          <mxGeometry x="244.375" width="158.125" height="40" as="geometry" />
        </mxCell>
        <mxCell id="J5Lqej5zV_sNJ-SoRFqQ-28" value="42" style="html=1;shadow=0;dashed=0;shape=mxgraph.bootstrap.rrect;rSize=8;fillColor=#ff0000;strokeColor=none;fontColor=#ffffff;whiteSpace=wrap;" parent="J5Lqej5zV_sNJ-SoRFqQ-27" vertex="1">
          <mxGeometry x="1" y="0.5" width="25" height="16" relative="1" as="geometry">
            <mxPoint x="-30" y="-8" as="offset" />
          </mxGeometry>
        </mxCell>
        <mxCell id="J5Lqej5zV_sNJ-SoRFqQ-29" value="About US" style="html=1;shadow=0;dashed=0;fillColor=none;strokeColor=none;shape=mxgraph.bootstrap.rect;fontColor=#999999;whiteSpace=wrap;" parent="J5Lqej5zV_sNJ-SoRFqQ-23" vertex="1">
          <mxGeometry x="402.5" width="115" height="40" as="geometry" />
        </mxCell>
        <mxCell id="J5Lqej5zV_sNJ-SoRFqQ-30" value="Login" style="html=1;shadow=0;dashed=0;fillColor=none;strokeColor=none;shape=mxgraph.bootstrap.rect;fontColor=#999999;whiteSpace=wrap;" parent="J5Lqej5zV_sNJ-SoRFqQ-23" vertex="1">
          <mxGeometry x="948.75" width="100.625" height="40" as="geometry" />
        </mxCell>
        <mxCell id="J5Lqej5zV_sNJ-SoRFqQ-31" value="Register" style="html=1;shadow=0;dashed=0;fillColor=none;strokeColor=none;shape=mxgraph.bootstrap.rect;fontColor=#999999;whiteSpace=wrap;" parent="J5Lqej5zV_sNJ-SoRFqQ-23" vertex="1">
          <mxGeometry x="1049.375" width="100.625" height="40" as="geometry" />
        </mxCell>
        <mxCell id="J5Lqej5zV_sNJ-SoRFqQ-34" value="Back" style="html=1;shadow=0;dashed=0;shape=mxgraph.bootstrap.rrect;align=center;rSize=5;strokeColor=none;fillColor=#3D8BCD;fontColor=#ffffff;fontSize=16;whiteSpace=wrap;rounded=0;" parent="1" vertex="1">
          <mxGeometry x="170" y="1930" width="150" height="40" as="geometry" />
        </mxCell>
        <mxCell id="J5Lqej5zV_sNJ-SoRFqQ-35" value="Next" style="html=1;shadow=0;dashed=0;shape=mxgraph.bootstrap.rrect;align=center;rSize=5;strokeColor=none;fillColor=#DB524C;fontColor=#ffffff;fontSize=16;whiteSpace=wrap;rounded=0;" parent="1" vertex="1">
          <mxGeometry x="800" y="1930" width="170" height="40" as="geometry" />
        </mxCell>
        <mxCell id="J5Lqej5zV_sNJ-SoRFqQ-36" value="Phase 2: Agrupación de valores de dominio" style="html=1;shadow=0;dashed=0;shape=mxgraph.bootstrap.rrect;rSize=5;strokeColor=#B8DCFE;strokeWidth=1;fillColor=#CCE7FE;fontColor=#004583;whiteSpace=wrap;align=left;verticalAlign=middle;spacingLeft=10;" parent="1" vertex="1">
          <mxGeometry x="170" y="1390" width="720" height="40" as="geometry" />
        </mxCell>
        <mxCell id="J5Lqej5zV_sNJ-SoRFqQ-193" value="" style="group" parent="1" vertex="1" connectable="0">
          <mxGeometry x="170" y="810" width="900" height="270" as="geometry" />
        </mxCell>
        <mxCell id="J5Lqej5zV_sNJ-SoRFqQ-141" value="Branch" style="html=1;fillColor=none;strokeColor=none;fontSize=11;align=left;fontColor=#596780;whiteSpace=wrap;sketch=1;hachureGap=4;pointerEvents=0;fontFamily=Architects Daughter;fontSource=https%3A%2F%2Ffonts.googleapis.com%2Fcss%3Ffamily%3DArchitects%2BDaughter;" parent="J5Lqej5zV_sNJ-SoRFqQ-193" vertex="1">
          <mxGeometry width="214.28571428571428" height="28.571428571428573" as="geometry" />
        </mxCell>
        <mxCell id="J5Lqej5zV_sNJ-SoRFqQ-142" value="Behind" style="html=1;fillColor=none;strokeColor=none;fontSize=11;align=left;fontColor=#596780;whiteSpace=wrap;sketch=1;hachureGap=4;pointerEvents=0;fontFamily=Architects Daughter;fontSource=https%3A%2F%2Ffonts.googleapis.com%2Fcss%3Ffamily%3DArchitects%2BDaughter;" parent="J5Lqej5zV_sNJ-SoRFqQ-193" vertex="1">
          <mxGeometry x="371.42857142857144" width="57.142857142857146" height="28.571428571428573" as="geometry" />
        </mxCell>
        <mxCell id="J5Lqej5zV_sNJ-SoRFqQ-143" value="Ahead" style="html=1;fillColor=none;strokeColor=none;fontSize=11;align=right;fontColor=#596780;whiteSpace=wrap;sketch=1;hachureGap=4;pointerEvents=0;fontFamily=Architects Daughter;fontSource=https%3A%2F%2Ffonts.googleapis.com%2Fcss%3Ffamily%3DArchitects%2BDaughter;" parent="J5Lqej5zV_sNJ-SoRFqQ-193" vertex="1">
          <mxGeometry x="428.57142857142856" width="57.142857142857146" height="28.571428571428573" as="geometry" />
        </mxCell>
        <mxCell id="J5Lqej5zV_sNJ-SoRFqQ-144" value="Updated" style="html=1;fillColor=none;strokeColor=none;fontSize=11;align=left;fontColor=#596780;whiteSpace=wrap;sketch=1;hachureGap=4;pointerEvents=0;fontFamily=Architects Daughter;fontSource=https%3A%2F%2Ffonts.googleapis.com%2Fcss%3Ffamily%3DArchitects%2BDaughter;" parent="J5Lqej5zV_sNJ-SoRFqQ-193" vertex="1">
          <mxGeometry x="514.2857142857143" width="128.57142857142858" height="28.571428571428573" as="geometry" />
        </mxCell>
        <mxCell id="J5Lqej5zV_sNJ-SoRFqQ-145" value="Pull request" style="html=1;fillColor=none;strokeColor=none;fontSize=11;align=center;fontColor=#596780;whiteSpace=wrap;sketch=1;hachureGap=4;pointerEvents=0;fontFamily=Architects Daughter;fontSource=https%3A%2F%2Ffonts.googleapis.com%2Fcss%3Ffamily%3DArchitects%2BDaughter;" parent="J5Lqej5zV_sNJ-SoRFqQ-193" vertex="1">
          <mxGeometry x="642.8571428571429" width="128.57142857142858" height="28.571428571428573" as="geometry" />
        </mxCell>
        <mxCell id="J5Lqej5zV_sNJ-SoRFqQ-146" value="Builds" style="html=1;fillColor=none;strokeColor=none;fontSize=11;align=center;fontColor=#596780;whiteSpace=wrap;sketch=1;hachureGap=4;pointerEvents=0;fontFamily=Architects Daughter;fontSource=https%3A%2F%2Ffonts.googleapis.com%2Fcss%3Ffamily%3DArchitects%2BDaughter;" parent="J5Lqej5zV_sNJ-SoRFqQ-193" vertex="1">
          <mxGeometry x="771.4285714285714" width="57.142857142857146" height="28.571428571428573" as="geometry" />
        </mxCell>
        <mxCell id="J5Lqej5zV_sNJ-SoRFqQ-147" value="" style="shape=line;strokeWidth=2;html=1;strokeColor=#DFE1E5;resizeWidth=1;sketch=1;hachureGap=4;pointerEvents=0;fontFamily=Architects Daughter;fontSource=https%3A%2F%2Ffonts.googleapis.com%2Fcss%3Ffamily%3DArchitects%2BDaughter;fontSize=20;" parent="J5Lqej5zV_sNJ-SoRFqQ-193" vertex="1">
          <mxGeometry y="28.571428571428573" width="900" height="14.285714285714286" as="geometry" />
        </mxCell>
        <mxCell id="J5Lqej5zV_sNJ-SoRFqQ-149" value="staging" style="strokeColor=none;fillColor=none;fontSize=12;fontColor=#596780;align=left;html=1;sketch=1;hachureGap=4;pointerEvents=0;fontFamily=Architects Daughter;fontSource=https%3A%2F%2Ffonts.googleapis.com%2Fcss%3Ffamily%3DArchitects%2BDaughter;" parent="J5Lqej5zV_sNJ-SoRFqQ-193" vertex="1">
          <mxGeometry y="44.285714285714285" width="71.42857142857143" height="28.571428571428573" as="geometry" />
        </mxCell>
        <mxCell id="J5Lqej5zV_sNJ-SoRFqQ-150" value="Main Branch" style="strokeColor=none;fillColor=#EDEEEF;fontSize=11;fontColor=#596780;rounded=1;html=1;sketch=1;hachureGap=4;pointerEvents=0;fontFamily=Architects Daughter;fontSource=https%3A%2F%2Ffonts.googleapis.com%2Fcss%3Ffamily%3DArchitects%2BDaughter;" parent="J5Lqej5zV_sNJ-SoRFqQ-193" vertex="1">
          <mxGeometry x="71.42857142857143" y="44.285714285714285" width="92.85714285714286" height="28.571428571428573" as="geometry" />
        </mxCell>
        <mxCell id="J5Lqej5zV_sNJ-SoRFqQ-151" value="28 minutes ago" style="strokeColor=none;fillColor=none;fontSize=12;fontColor=#596780;align=left;html=1;sketch=1;hachureGap=4;pointerEvents=0;fontFamily=Architects Daughter;fontSource=https%3A%2F%2Ffonts.googleapis.com%2Fcss%3Ffamily%3DArchitects%2BDaughter;" parent="J5Lqej5zV_sNJ-SoRFqQ-193" vertex="1">
          <mxGeometry x="514.2857142857143" y="44.285714285714285" width="71.42857142857143" height="28.571428571428573" as="geometry" />
        </mxCell>
        <mxCell id="J5Lqej5zV_sNJ-SoRFqQ-152" value="&amp;#8226;&amp;#8226;&amp;#8226;" style="shape=ellipse;fillColor=#0057D8;strokeColor=none;fontColor=#ffffff;align=center;verticalAlign=middle;whiteSpace=wrap;fontSize=10;fontStyle=0;html=1;sketch=0;hachureGap=4;pointerEvents=0;fontFamily=Architects Daughter;fontSource=https%3A%2F%2Ffonts.googleapis.com%2Fcss%3Ffamily%3DArchitects%2BDaughter;" parent="J5Lqej5zV_sNJ-SoRFqQ-193" vertex="1">
          <mxGeometry x="792.8571428571429" y="47.142857142857146" width="22.857142857142858" height="22.857142857142858" as="geometry" />
        </mxCell>
        <mxCell id="J5Lqej5zV_sNJ-SoRFqQ-157" value="abhin/repo/api/allow_repo_updates" style="strokeColor=none;fillColor=none;fontSize=12;fontColor=#596780;align=left;html=1;sketch=1;hachureGap=4;pointerEvents=0;fontFamily=Architects Daughter;fontSource=https%3A%2F%2Ffonts.googleapis.com%2Fcss%3Ffamily%3DArchitects%2BDaughter;" parent="J5Lqej5zV_sNJ-SoRFqQ-193" vertex="1">
          <mxGeometry y="87.14285714285714" width="342.8571428571429" height="28.571428571428573" as="geometry" />
        </mxCell>
        <mxCell id="J5Lqej5zV_sNJ-SoRFqQ-158" value="NA" style="shape=mxgraph.mockup.misc.progressBar;fillColor=#3384FF;strokeColor=none;fillColor2=#F2F2F2;barPos=80;sketch=1;hachureGap=4;pointerEvents=0;fontFamily=Architects Daughter;fontSource=https%3A%2F%2Ffonts.googleapis.com%2Fcss%3Ffamily%3DArchitects%2BDaughter;fontSize=20;" parent="J5Lqej5zV_sNJ-SoRFqQ-193" vertex="1">
          <mxGeometry x="371.42857142857144" y="94.28571428571429" width="114.28571428571429" height="14.285714285714286" as="geometry" />
        </mxCell>
        <mxCell id="J5Lqej5zV_sNJ-SoRFqQ-159" value="107" style="strokeColor=none;fillColor=none;fontSize=10;fontColor=#596780;align=left;html=1;sketch=1;hachureGap=4;pointerEvents=0;fontFamily=Architects Daughter;fontSource=https%3A%2F%2Ffonts.googleapis.com%2Fcss%3Ffamily%3DArchitects%2BDaughter;" parent="J5Lqej5zV_sNJ-SoRFqQ-193" vertex="1">
          <mxGeometry x="371.42857142857144" y="104.28571428571429" width="57.142857142857146" height="28.571428571428573" as="geometry" />
        </mxCell>
        <mxCell id="J5Lqej5zV_sNJ-SoRFqQ-160" value="3" style="strokeColor=none;fillColor=none;fontSize=10;fontColor=#596780;align=right;html=1;sketch=1;hachureGap=4;pointerEvents=0;fontFamily=Architects Daughter;fontSource=https%3A%2F%2Ffonts.googleapis.com%2Fcss%3Ffamily%3DArchitects%2BDaughter;" parent="J5Lqej5zV_sNJ-SoRFqQ-193" vertex="1">
          <mxGeometry x="428.57142857142856" y="104.28571428571429" width="57.142857142857146" height="28.571428571428573" as="geometry" />
        </mxCell>
        <mxCell id="J5Lqej5zV_sNJ-SoRFqQ-161" value="5 minutes ago" style="strokeColor=none;fillColor=none;fontSize=12;fontColor=#596780;align=left;html=1;sketch=1;hachureGap=4;pointerEvents=0;fontFamily=Architects Daughter;fontSource=https%3A%2F%2Ffonts.googleapis.com%2Fcss%3Ffamily%3DArchitects%2BDaughter;" parent="J5Lqej5zV_sNJ-SoRFqQ-193" vertex="1">
          <mxGeometry x="514.2857142857143" y="87.14285714285714" width="71.42857142857143" height="28.571428571428573" as="geometry" />
        </mxCell>
        <mxCell id="J5Lqej5zV_sNJ-SoRFqQ-162" value="#10258" style="strokeColor=none;fillColor=none;fontSize=12;fontColor=#596780;align=left;html=1;sketch=1;hachureGap=4;pointerEvents=0;fontFamily=Architects Daughter;fontSource=https%3A%2F%2Ffonts.googleapis.com%2Fcss%3Ffamily%3DArchitects%2BDaughter;" parent="J5Lqej5zV_sNJ-SoRFqQ-193" vertex="1">
          <mxGeometry x="642.8571428571429" y="87.14285714285714" width="71.42857142857143" height="28.571428571428573" as="geometry" />
        </mxCell>
        <mxCell id="J5Lqej5zV_sNJ-SoRFqQ-163" value="OPEN" style="strokeColor=none;fillColor=#CCE0FF;fontSize=11;fontColor=#3384FF;rounded=1;html=1;align=center;fontStyle=1;sketch=1;hachureGap=4;pointerEvents=0;fontFamily=Architects Daughter;fontSource=https%3A%2F%2Ffonts.googleapis.com%2Fcss%3Ffamily%3DArchitects%2BDaughter;" parent="J5Lqej5zV_sNJ-SoRFqQ-193" vertex="1">
          <mxGeometry x="714.2857142857143" y="87.14285714285714" width="57.142857142857146" height="28.571428571428573" as="geometry" />
        </mxCell>
        <mxCell id="J5Lqej5zV_sNJ-SoRFqQ-164" value="&amp;#8226;&amp;#8226;&amp;#8226;" style="shape=ellipse;fillColor=#0057D8;strokeColor=none;fontColor=#ffffff;align=center;verticalAlign=middle;whiteSpace=wrap;fontSize=10;fontStyle=0;html=1;sketch=0;hachureGap=4;pointerEvents=0;fontFamily=Architects Daughter;fontSource=https%3A%2F%2Ffonts.googleapis.com%2Fcss%3Ffamily%3DArchitects%2BDaughter;" parent="J5Lqej5zV_sNJ-SoRFqQ-193" vertex="1">
          <mxGeometry x="792.8571428571429" y="90" width="22.857142857142858" height="22.857142857142858" as="geometry" />
        </mxCell>
        <mxCell id="J5Lqej5zV_sNJ-SoRFqQ-165" value="zdavis/BBCDEV-1577" style="strokeColor=none;fillColor=none;fontSize=12;fontColor=#596780;align=left;html=1;sketch=1;hachureGap=4;pointerEvents=0;fontFamily=Architects Daughter;fontSource=https%3A%2F%2Ffonts.googleapis.com%2Fcss%3Ffamily%3DArchitects%2BDaughter;" parent="J5Lqej5zV_sNJ-SoRFqQ-193" vertex="1">
          <mxGeometry y="130" width="342.8571428571429" height="28.571428571428573" as="geometry" />
        </mxCell>
        <mxCell id="J5Lqej5zV_sNJ-SoRFqQ-166" value="NA" style="shape=mxgraph.mockup.misc.progressBar;fillColor=#3384FF;strokeColor=none;fillColor2=#F2F2F2;barPos=80;sketch=1;hachureGap=4;pointerEvents=0;fontFamily=Architects Daughter;fontSource=https%3A%2F%2Ffonts.googleapis.com%2Fcss%3Ffamily%3DArchitects%2BDaughter;fontSize=20;" parent="J5Lqej5zV_sNJ-SoRFqQ-193" vertex="1">
          <mxGeometry x="371.42857142857144" y="137.14285714285714" width="114.28571428571429" height="14.285714285714286" as="geometry" />
        </mxCell>
        <mxCell id="J5Lqej5zV_sNJ-SoRFqQ-167" value="103" style="strokeColor=none;fillColor=none;fontSize=10;fontColor=#596780;align=left;html=1;sketch=1;hachureGap=4;pointerEvents=0;fontFamily=Architects Daughter;fontSource=https%3A%2F%2Ffonts.googleapis.com%2Fcss%3Ffamily%3DArchitects%2BDaughter;" parent="J5Lqej5zV_sNJ-SoRFqQ-193" vertex="1">
          <mxGeometry x="371.42857142857144" y="147.14285714285714" width="57.142857142857146" height="28.571428571428573" as="geometry" />
        </mxCell>
        <mxCell id="J5Lqej5zV_sNJ-SoRFqQ-168" value="2" style="strokeColor=none;fillColor=none;fontSize=10;fontColor=#596780;align=right;html=1;sketch=1;hachureGap=4;pointerEvents=0;fontFamily=Architects Daughter;fontSource=https%3A%2F%2Ffonts.googleapis.com%2Fcss%3Ffamily%3DArchitects%2BDaughter;" parent="J5Lqej5zV_sNJ-SoRFqQ-193" vertex="1">
          <mxGeometry x="428.57142857142856" y="147.14285714285714" width="57.142857142857146" height="28.571428571428573" as="geometry" />
        </mxCell>
        <mxCell id="J5Lqej5zV_sNJ-SoRFqQ-169" value="5 minutes ago" style="strokeColor=none;fillColor=none;fontSize=12;fontColor=#596780;align=left;html=1;sketch=1;hachureGap=4;pointerEvents=0;fontFamily=Architects Daughter;fontSource=https%3A%2F%2Ffonts.googleapis.com%2Fcss%3Ffamily%3DArchitects%2BDaughter;" parent="J5Lqej5zV_sNJ-SoRFqQ-193" vertex="1">
          <mxGeometry x="514.2857142857143" y="130" width="71.42857142857143" height="28.571428571428573" as="geometry" />
        </mxCell>
        <mxCell id="J5Lqej5zV_sNJ-SoRFqQ-170" value="#10232" style="strokeColor=none;fillColor=none;fontSize=12;fontColor=#596780;align=left;html=1;sketch=1;hachureGap=4;pointerEvents=0;fontFamily=Architects Daughter;fontSource=https%3A%2F%2Ffonts.googleapis.com%2Fcss%3Ffamily%3DArchitects%2BDaughter;" parent="J5Lqej5zV_sNJ-SoRFqQ-193" vertex="1">
          <mxGeometry x="642.8571428571429" y="130" width="71.42857142857143" height="28.571428571428573" as="geometry" />
        </mxCell>
        <mxCell id="J5Lqej5zV_sNJ-SoRFqQ-171" value="OPEN" style="strokeColor=none;fillColor=#CCE0FF;fontSize=11;fontColor=#3384FF;rounded=1;html=1;align=center;fontStyle=1;sketch=1;hachureGap=4;pointerEvents=0;fontFamily=Architects Daughter;fontSource=https%3A%2F%2Ffonts.googleapis.com%2Fcss%3Ffamily%3DArchitects%2BDaughter;" parent="J5Lqej5zV_sNJ-SoRFqQ-193" vertex="1">
          <mxGeometry x="714.2857142857143" y="130" width="57.142857142857146" height="28.571428571428573" as="geometry" />
        </mxCell>
        <mxCell id="J5Lqej5zV_sNJ-SoRFqQ-172" value="&amp;#8226;&amp;#8226;&amp;#8226;" style="shape=ellipse;fillColor=#0057D8;strokeColor=none;fontColor=#ffffff;align=center;verticalAlign=middle;whiteSpace=wrap;fontSize=10;fontStyle=0;html=1;sketch=0;hachureGap=4;pointerEvents=0;fontFamily=Architects Daughter;fontSource=https%3A%2F%2Ffonts.googleapis.com%2Fcss%3Ffamily%3DArchitects%2BDaughter;" parent="J5Lqej5zV_sNJ-SoRFqQ-193" vertex="1">
          <mxGeometry x="792.8571428571429" y="132.85714285714286" width="22.857142857142858" height="22.857142857142858" as="geometry" />
        </mxCell>
        <mxCell id="J5Lqej5zV_sNJ-SoRFqQ-173" value="tkells/BBCDEV-1631-fix-require-account=access" style="strokeColor=none;fillColor=none;fontSize=12;fontColor=#596780;align=left;html=1;sketch=1;hachureGap=4;pointerEvents=0;fontFamily=Architects Daughter;fontSource=https%3A%2F%2Ffonts.googleapis.com%2Fcss%3Ffamily%3DArchitects%2BDaughter;" parent="J5Lqej5zV_sNJ-SoRFqQ-193" vertex="1">
          <mxGeometry y="172.85714285714286" width="342.8571428571429" height="28.571428571428573" as="geometry" />
        </mxCell>
        <mxCell id="J5Lqej5zV_sNJ-SoRFqQ-174" value="NA" style="shape=mxgraph.mockup.misc.progressBar;fillColor=#3384FF;strokeColor=none;fillColor2=#F2F2F2;barPos=80;sketch=1;hachureGap=4;pointerEvents=0;fontFamily=Architects Daughter;fontSource=https%3A%2F%2Ffonts.googleapis.com%2Fcss%3Ffamily%3DArchitects%2BDaughter;fontSize=20;" parent="J5Lqej5zV_sNJ-SoRFqQ-193" vertex="1">
          <mxGeometry x="371.42857142857144" y="180" width="114.28571428571429" height="14.285714285714286" as="geometry" />
        </mxCell>
        <mxCell id="J5Lqej5zV_sNJ-SoRFqQ-175" value="7" style="strokeColor=none;fillColor=none;fontSize=10;fontColor=#596780;align=left;html=1;sketch=1;hachureGap=4;pointerEvents=0;fontFamily=Architects Daughter;fontSource=https%3A%2F%2Ffonts.googleapis.com%2Fcss%3Ffamily%3DArchitects%2BDaughter;" parent="J5Lqej5zV_sNJ-SoRFqQ-193" vertex="1">
          <mxGeometry x="371.42857142857144" y="190" width="57.142857142857146" height="28.571428571428573" as="geometry" />
        </mxCell>
        <mxCell id="J5Lqej5zV_sNJ-SoRFqQ-176" value="1" style="strokeColor=none;fillColor=none;fontSize=10;fontColor=#596780;align=right;html=1;sketch=1;hachureGap=4;pointerEvents=0;fontFamily=Architects Daughter;fontSource=https%3A%2F%2Ffonts.googleapis.com%2Fcss%3Ffamily%3DArchitects%2BDaughter;" parent="J5Lqej5zV_sNJ-SoRFqQ-193" vertex="1">
          <mxGeometry x="428.57142857142856" y="190" width="57.142857142857146" height="28.571428571428573" as="geometry" />
        </mxCell>
        <mxCell id="J5Lqej5zV_sNJ-SoRFqQ-177" value="25 minutes ago" style="strokeColor=none;fillColor=none;fontSize=12;fontColor=#596780;align=left;html=1;sketch=1;hachureGap=4;pointerEvents=0;fontFamily=Architects Daughter;fontSource=https%3A%2F%2Ffonts.googleapis.com%2Fcss%3Ffamily%3DArchitects%2BDaughter;" parent="J5Lqej5zV_sNJ-SoRFqQ-193" vertex="1">
          <mxGeometry x="514.2857142857143" y="172.85714285714286" width="71.42857142857143" height="28.571428571428573" as="geometry" />
        </mxCell>
        <mxCell id="J5Lqej5zV_sNJ-SoRFqQ-178" value="#10267" style="strokeColor=none;fillColor=none;fontSize=12;fontColor=#596780;align=left;html=1;sketch=1;hachureGap=4;pointerEvents=0;fontFamily=Architects Daughter;fontSource=https%3A%2F%2Ffonts.googleapis.com%2Fcss%3Ffamily%3DArchitects%2BDaughter;" parent="J5Lqej5zV_sNJ-SoRFqQ-193" vertex="1">
          <mxGeometry x="642.8571428571429" y="172.85714285714286" width="71.42857142857143" height="28.571428571428573" as="geometry" />
        </mxCell>
        <mxCell id="J5Lqej5zV_sNJ-SoRFqQ-179" value="OPEN" style="strokeColor=none;fillColor=#CCE0FF;fontSize=11;fontColor=#3384FF;rounded=1;html=1;align=center;fontStyle=1;sketch=1;hachureGap=4;pointerEvents=0;fontFamily=Architects Daughter;fontSource=https%3A%2F%2Ffonts.googleapis.com%2Fcss%3Ffamily%3DArchitects%2BDaughter;" parent="J5Lqej5zV_sNJ-SoRFqQ-193" vertex="1">
          <mxGeometry x="714.2857142857143" y="172.85714285714286" width="57.142857142857146" height="28.571428571428573" as="geometry" />
        </mxCell>
        <mxCell id="J5Lqej5zV_sNJ-SoRFqQ-180" value="&amp;#8226;&amp;#8226;&amp;#8226;" style="shape=ellipse;fillColor=#0057D8;strokeColor=none;fontColor=#ffffff;align=center;verticalAlign=middle;whiteSpace=wrap;fontSize=10;fontStyle=0;html=1;sketch=0;hachureGap=4;pointerEvents=0;fontFamily=Architects Daughter;fontSource=https%3A%2F%2Ffonts.googleapis.com%2Fcss%3Ffamily%3DArchitects%2BDaughter;" parent="J5Lqej5zV_sNJ-SoRFqQ-193" vertex="1">
          <mxGeometry x="792.8571428571429" y="175.71428571428572" width="22.857142857142858" height="22.857142857142858" as="geometry" />
        </mxCell>
        <mxCell id="J5Lqej5zV_sNJ-SoRFqQ-181" value="jmooring/BBDEV-1603" style="strokeColor=none;fillColor=none;fontSize=12;fontColor=#596780;align=left;html=1;sketch=1;hachureGap=4;pointerEvents=0;fontFamily=Architects Daughter;fontSource=https%3A%2F%2Ffonts.googleapis.com%2Fcss%3Ffamily%3DArchitects%2BDaughter;" parent="J5Lqej5zV_sNJ-SoRFqQ-193" vertex="1">
          <mxGeometry y="215.71428571428572" width="342.8571428571429" height="28.571428571428573" as="geometry" />
        </mxCell>
        <mxCell id="J5Lqej5zV_sNJ-SoRFqQ-182" value="NA" style="shape=mxgraph.mockup.misc.progressBar;fillColor=#3384FF;strokeColor=none;fillColor2=#F2F2F2;barPos=80;sketch=1;hachureGap=4;pointerEvents=0;fontFamily=Architects Daughter;fontSource=https%3A%2F%2Ffonts.googleapis.com%2Fcss%3Ffamily%3DArchitects%2BDaughter;fontSize=20;" parent="J5Lqej5zV_sNJ-SoRFqQ-193" vertex="1">
          <mxGeometry x="371.42857142857144" y="222.85714285714286" width="114.28571428571429" height="14.285714285714286" as="geometry" />
        </mxCell>
        <mxCell id="J5Lqej5zV_sNJ-SoRFqQ-183" value="2" style="strokeColor=none;fillColor=none;fontSize=10;fontColor=#596780;align=left;html=1;sketch=1;hachureGap=4;pointerEvents=0;fontFamily=Architects Daughter;fontSource=https%3A%2F%2Ffonts.googleapis.com%2Fcss%3Ffamily%3DArchitects%2BDaughter;" parent="J5Lqej5zV_sNJ-SoRFqQ-193" vertex="1">
          <mxGeometry x="371.42857142857144" y="232.85714285714286" width="57.142857142857146" height="28.571428571428573" as="geometry" />
        </mxCell>
        <mxCell id="J5Lqej5zV_sNJ-SoRFqQ-184" value="14" style="strokeColor=none;fillColor=none;fontSize=10;fontColor=#596780;align=right;html=1;sketch=1;hachureGap=4;pointerEvents=0;fontFamily=Architects Daughter;fontSource=https%3A%2F%2Ffonts.googleapis.com%2Fcss%3Ffamily%3DArchitects%2BDaughter;" parent="J5Lqej5zV_sNJ-SoRFqQ-193" vertex="1">
          <mxGeometry x="428.57142857142856" y="232.85714285714286" width="57.142857142857146" height="28.571428571428573" as="geometry" />
        </mxCell>
        <mxCell id="J5Lqej5zV_sNJ-SoRFqQ-185" value="29 minutes ago" style="strokeColor=none;fillColor=none;fontSize=12;fontColor=#596780;align=left;html=1;sketch=1;hachureGap=4;pointerEvents=0;fontFamily=Architects Daughter;fontSource=https%3A%2F%2Ffonts.googleapis.com%2Fcss%3Ffamily%3DArchitects%2BDaughter;" parent="J5Lqej5zV_sNJ-SoRFqQ-193" vertex="1">
          <mxGeometry x="514.2857142857143" y="215.71428571428572" width="71.42857142857143" height="28.571428571428573" as="geometry" />
        </mxCell>
        <mxCell id="J5Lqej5zV_sNJ-SoRFqQ-186" value="#10244" style="strokeColor=none;fillColor=none;fontSize=12;fontColor=#0057D8;align=left;html=1;sketch=1;hachureGap=4;pointerEvents=0;fontFamily=Architects Daughter;fontSource=https%3A%2F%2Ffonts.googleapis.com%2Fcss%3Ffamily%3DArchitects%2BDaughter;" parent="J5Lqej5zV_sNJ-SoRFqQ-193" vertex="1">
          <mxGeometry x="642.8571428571429" y="215.71428571428572" width="71.42857142857143" height="28.571428571428573" as="geometry" />
        </mxCell>
        <mxCell id="J5Lqej5zV_sNJ-SoRFqQ-187" value="OPEN" style="strokeColor=none;fillColor=#CCE0FF;fontSize=11;fontColor=#3384FF;rounded=1;html=1;align=center;fontStyle=1;sketch=1;hachureGap=4;pointerEvents=0;fontFamily=Architects Daughter;fontSource=https%3A%2F%2Ffonts.googleapis.com%2Fcss%3Ffamily%3DArchitects%2BDaughter;" parent="J5Lqej5zV_sNJ-SoRFqQ-193" vertex="1">
          <mxGeometry x="714.2857142857143" y="215.71428571428572" width="57.142857142857146" height="28.571428571428573" as="geometry" />
        </mxCell>
        <mxCell id="J5Lqej5zV_sNJ-SoRFqQ-188" value="" style="html=1;shadow=0;dashed=0;shape=mxgraph.atlassian.checkbox;fillColor=#008465;strokeColor=none;fontColor=#ffffff;align=center;verticalAlign=middle;whiteSpace=wrap;fontSize=10;fontStyle=0;html=1;sketch=0;hachureGap=4;pointerEvents=0;fontFamily=Architects Daughter;fontSource=https%3A%2F%2Ffonts.googleapis.com%2Fcss%3Ffamily%3DArchitects%2BDaughter;" parent="J5Lqej5zV_sNJ-SoRFqQ-193" vertex="1">
          <mxGeometry x="792.8571428571429" y="218.57142857142858" width="22.857142857142858" height="22.857142857142858" as="geometry" />
        </mxCell>
        <mxCell id="J5Lqej5zV_sNJ-SoRFqQ-189" value="" style="shape=line;strokeWidth=2;html=1;strokeColor=#DFE1E5;resizeWidth=1;sketch=1;hachureGap=4;pointerEvents=0;fontFamily=Architects Daughter;fontSource=https%3A%2F%2Ffonts.googleapis.com%2Fcss%3Ffamily%3DArchitects%2BDaughter;fontSize=20;" parent="J5Lqej5zV_sNJ-SoRFqQ-193" vertex="1">
          <mxGeometry y="255.71428571428572" width="900" height="14.285714285714286" as="geometry" />
        </mxCell>
        <mxCell id="J5Lqej5zV_sNJ-SoRFqQ-258" value="Behid" style="html=1;shadow=0;dashed=0;shape=mxgraph.bootstrap.rrect;rSize=5;strokeColor=#505050;strokeWidth=1;fillColor=#ffffff;fontColor=#777777;whiteSpace=wrap;align=left;verticalAlign=middle;fontStyle=0;fontSize=12;spacing=15;" parent="J5Lqej5zV_sNJ-SoRFqQ-193" vertex="1">
          <mxGeometry x="342.86" y="-0.71" width="110" height="30" as="geometry" />
        </mxCell>
        <mxCell id="J5Lqej5zV_sNJ-SoRFqQ-259" value="" style="shape=triangle;direction=south;fillColor=#495057;strokeColor=none;perimeter=none;" parent="J5Lqej5zV_sNJ-SoRFqQ-258" vertex="1">
          <mxGeometry x="1" y="0.5" width="10" height="5" relative="1" as="geometry">
            <mxPoint x="-17" y="-2.5" as="offset" />
          </mxGeometry>
        </mxCell>
        <mxCell id="J5Lqej5zV_sNJ-SoRFqQ-263" value="Clase" style="html=1;shadow=0;dashed=0;shape=mxgraph.bootstrap.checkbox2;labelPosition=right;verticalLabelPosition=middle;align=left;verticalAlign=middle;gradientColor=#DEDEDE;fillColor=#EDEDED;checked=1;spacing=5;checkedFill=#0085FC;checkedStroke=#ffffff;sketch=0;" parent="J5Lqej5zV_sNJ-SoRFqQ-193" vertex="1">
          <mxGeometry x="680" y="19.289999999999964" width="10" height="10" as="geometry" />
        </mxCell>
        <mxCell id="J5Lqej5zV_sNJ-SoRFqQ-264" value="&lt;div&gt;Clase&lt;br&gt;&lt;/div&gt;" style="html=1;shadow=0;dashed=0;shape=mxgraph.bootstrap.checkbox2;labelPosition=right;verticalLabelPosition=middle;align=left;verticalAlign=middle;gradientColor=#DEDEDE;fillColor=#EDEDED;checked=0;spacing=5;fontColor=#6C767D;checkedFill=#0085FC;checkedStroke=#ffffff;sketch=0;" parent="J5Lqej5zV_sNJ-SoRFqQ-193" vertex="1">
          <mxGeometry x="782.86" y="19.289999999999964" width="10" height="10" as="geometry" />
        </mxCell>
        <mxCell id="J5Lqej5zV_sNJ-SoRFqQ-267" value="&lt;div&gt;Clase&lt;br&gt;&lt;/div&gt;" style="html=1;shadow=0;dashed=0;shape=mxgraph.bootstrap.checkbox2;labelPosition=right;verticalLabelPosition=middle;align=left;verticalAlign=middle;gradientColor=#DEDEDE;fillColor=#EDEDED;checked=0;spacing=5;fontColor=#6C767D;checkedFill=#0085FC;checkedStroke=#ffffff;sketch=0;" parent="J5Lqej5zV_sNJ-SoRFqQ-193" vertex="1">
          <mxGeometry x="514.29" y="19.289999999999964" width="10" height="10" as="geometry" />
        </mxCell>
        <mxCell id="J5Lqej5zV_sNJ-SoRFqQ-268" value="&lt;div&gt;Clase&lt;br&gt;&lt;/div&gt;" style="html=1;shadow=0;dashed=0;shape=mxgraph.bootstrap.checkbox2;labelPosition=right;verticalLabelPosition=middle;align=left;verticalAlign=middle;gradientColor=#DEDEDE;fillColor=#EDEDED;checked=0;spacing=5;fontColor=#6C767D;checkedFill=#0085FC;checkedStroke=#ffffff;sketch=0;" parent="J5Lqej5zV_sNJ-SoRFqQ-193" vertex="1">
          <mxGeometry x="440" y="18.569999999999936" width="10" height="10" as="geometry" />
        </mxCell>
        <mxCell id="J5Lqej5zV_sNJ-SoRFqQ-269" value="&lt;div&gt;Clase&lt;br&gt;&lt;/div&gt;" style="html=1;shadow=0;dashed=0;shape=mxgraph.bootstrap.checkbox2;labelPosition=right;verticalLabelPosition=middle;align=left;verticalAlign=middle;gradientColor=#DEDEDE;fillColor=#EDEDED;checked=0;spacing=5;fontColor=#6C767D;checkedFill=#0085FC;checkedStroke=#ffffff;sketch=0;" parent="J5Lqej5zV_sNJ-SoRFqQ-193" vertex="1">
          <mxGeometry y="19.289999999999964" width="10" height="10" as="geometry" />
        </mxCell>
        <mxCell id="J5Lqej5zV_sNJ-SoRFqQ-254" value="" style="html=1;shadow=0;dashed=0;shape=mxgraph.bootstrap.rrect;rSize=5;fillColor=#ffffff;strokeColor=#999999;" parent="1" vertex="1">
          <mxGeometry x="580" y="670" width="170" height="110" as="geometry" />
        </mxCell>
        <mxCell id="J5Lqej5zV_sNJ-SoRFqQ-255" value="IO7" style="fillColor=none;strokeColor=none;align=left;spacing=20;fontSize=14;" parent="J5Lqej5zV_sNJ-SoRFqQ-254" vertex="1">
          <mxGeometry width="170" height="30" relative="1" as="geometry">
            <mxPoint y="10" as="offset" />
          </mxGeometry>
        </mxCell>
        <mxCell id="J5Lqej5zV_sNJ-SoRFqQ-256" value="IO3" style="fillColor=#0085FC;strokeColor=none;fontColor=#ffffff;align=left;spacing=20;fontSize=14;sketch=0;" parent="J5Lqej5zV_sNJ-SoRFqQ-254" vertex="1">
          <mxGeometry width="170" height="30" relative="1" as="geometry">
            <mxPoint y="40" as="offset" />
          </mxGeometry>
        </mxCell>
        <mxCell id="J5Lqej5zV_sNJ-SoRFqQ-257" value="2" style="fillColor=none;strokeColor=none;align=left;spacing=20;fontSize=14;" parent="J5Lqej5zV_sNJ-SoRFqQ-254" vertex="1">
          <mxGeometry width="170" height="30" relative="1" as="geometry">
            <mxPoint y="70" as="offset" />
          </mxGeometry>
        </mxCell>
        <mxCell id="J5Lqej5zV_sNJ-SoRFqQ-260" value="" style="endArrow=none;html=1;rounded=0;exitX=0.041;exitY=0.049;exitDx=0;exitDy=0;exitPerimeter=0;entryX=0;entryY=0;entryDx=0;entryDy=0;" parent="1" source="J5Lqej5zV_sNJ-SoRFqQ-258" target="J5Lqej5zV_sNJ-SoRFqQ-256" edge="1">
          <mxGeometry width="50" height="50" relative="1" as="geometry">
            <mxPoint x="740" y="1000" as="sourcePoint" />
            <mxPoint x="790" y="950" as="targetPoint" />
          </mxGeometry>
        </mxCell>
        <mxCell id="J5Lqej5zV_sNJ-SoRFqQ-261" value="" style="endArrow=none;html=1;rounded=0;exitX=1.045;exitY=0.081;exitDx=0;exitDy=0;exitPerimeter=0;entryX=1.004;entryY=1.003;entryDx=0;entryDy=0;entryPerimeter=0;" parent="1" source="J5Lqej5zV_sNJ-SoRFqQ-258" target="J5Lqej5zV_sNJ-SoRFqQ-254" edge="1">
          <mxGeometry width="50" height="50" relative="1" as="geometry">
            <mxPoint x="527.3699999999999" y="820.76" as="sourcePoint" />
            <mxPoint x="595.9499999999998" y="682.6399999999999" as="targetPoint" />
          </mxGeometry>
        </mxCell>
        <mxCell id="J5Lqej5zV_sNJ-SoRFqQ-270" value="" style="html=1;shadow=0;dashed=0;shape=mxgraph.bootstrap.rect;fillColor=#222222;strokeColor=none;whiteSpace=wrap;rounded=0;fontSize=12;fontColor=#000000;align=center;" parent="1" vertex="1">
          <mxGeometry x="40" y="2030" width="1150" height="40" as="geometry" />
        </mxCell>
        <mxCell id="J5Lqej5zV_sNJ-SoRFqQ-271" value="MEMLA" style="html=1;shadow=0;dashed=0;fillColor=none;strokeColor=none;shape=mxgraph.bootstrap.rect;fontColor=#999999;fontSize=14;whiteSpace=wrap;" parent="J5Lqej5zV_sNJ-SoRFqQ-270" vertex="1">
          <mxGeometry width="115" height="40" as="geometry" />
        </mxCell>
        <mxCell id="J5Lqej5zV_sNJ-SoRFqQ-272" value="Publicactions" style="html=1;shadow=0;dashed=0;shape=mxgraph.bootstrap.rect;fillColor=#000000;strokeColor=none;fontColor=#ffffff;spacingRight=30;whiteSpace=wrap;" parent="J5Lqej5zV_sNJ-SoRFqQ-270" vertex="1">
          <mxGeometry x="115" width="129.375" height="40" as="geometry" />
        </mxCell>
        <mxCell id="J5Lqej5zV_sNJ-SoRFqQ-273" value="84" style="html=1;shadow=0;dashed=0;shape=mxgraph.bootstrap.rrect;rSize=8;fillColor=#ff0000;strokeColor=none;fontColor=#ffffff;whiteSpace=wrap;" parent="J5Lqej5zV_sNJ-SoRFqQ-272" vertex="1">
          <mxGeometry x="1" y="0.5" width="25" height="16" relative="1" as="geometry">
            <mxPoint x="-30" y="-8" as="offset" />
          </mxGeometry>
        </mxCell>
        <mxCell id="J5Lqej5zV_sNJ-SoRFqQ-274" value="&lt;div&gt;About MEMLA&lt;/div&gt;" style="html=1;shadow=0;dashed=0;fillColor=none;strokeColor=none;shape=mxgraph.bootstrap.rect;fontColor=#999999;spacingRight=30;whiteSpace=wrap;" parent="J5Lqej5zV_sNJ-SoRFqQ-270" vertex="1">
          <mxGeometry x="244.375" width="158.125" height="40" as="geometry" />
        </mxCell>
        <mxCell id="J5Lqej5zV_sNJ-SoRFqQ-275" value="42" style="html=1;shadow=0;dashed=0;shape=mxgraph.bootstrap.rrect;rSize=8;fillColor=#ff0000;strokeColor=none;fontColor=#ffffff;whiteSpace=wrap;" parent="J5Lqej5zV_sNJ-SoRFqQ-274" vertex="1">
          <mxGeometry x="1" y="0.5" width="25" height="16" relative="1" as="geometry">
            <mxPoint x="-30" y="-8" as="offset" />
          </mxGeometry>
        </mxCell>
        <mxCell id="J5Lqej5zV_sNJ-SoRFqQ-276" value="About US" style="html=1;shadow=0;dashed=0;fillColor=none;strokeColor=none;shape=mxgraph.bootstrap.rect;fontColor=#999999;whiteSpace=wrap;" parent="J5Lqej5zV_sNJ-SoRFqQ-270" vertex="1">
          <mxGeometry x="402.5" width="115" height="40" as="geometry" />
        </mxCell>
        <mxCell id="J5Lqej5zV_sNJ-SoRFqQ-277" value="Login" style="html=1;shadow=0;dashed=0;fillColor=none;strokeColor=none;shape=mxgraph.bootstrap.rect;fontColor=#999999;whiteSpace=wrap;" parent="J5Lqej5zV_sNJ-SoRFqQ-270" vertex="1">
          <mxGeometry x="948.75" width="100.625" height="40" as="geometry" />
        </mxCell>
        <mxCell id="J5Lqej5zV_sNJ-SoRFqQ-278" value="Register" style="html=1;shadow=0;dashed=0;fillColor=none;strokeColor=none;shape=mxgraph.bootstrap.rect;fontColor=#999999;whiteSpace=wrap;" parent="J5Lqej5zV_sNJ-SoRFqQ-270" vertex="1">
          <mxGeometry x="1049.375" width="100.625" height="40" as="geometry" />
        </mxCell>
        <mxCell id="J5Lqej5zV_sNJ-SoRFqQ-279" value="Back" style="html=1;shadow=0;dashed=0;shape=mxgraph.bootstrap.rrect;align=center;rSize=5;strokeColor=none;fillColor=#3D8BCD;fontColor=#ffffff;fontSize=16;whiteSpace=wrap;rounded=0;" parent="1" vertex="1">
          <mxGeometry x="170" y="2630" width="150" height="40" as="geometry" />
        </mxCell>
        <mxCell id="J5Lqej5zV_sNJ-SoRFqQ-280" value="Next" style="html=1;shadow=0;dashed=0;shape=mxgraph.bootstrap.rrect;align=center;rSize=5;strokeColor=none;fillColor=#DB524C;fontColor=#ffffff;fontSize=16;whiteSpace=wrap;rounded=0;" parent="1" vertex="1">
          <mxGeometry x="800" y="2630" width="170" height="40" as="geometry" />
        </mxCell>
        <mxCell id="J5Lqej5zV_sNJ-SoRFqQ-281" value="Phase 2: Filas repetidas" style="html=1;shadow=0;dashed=0;shape=mxgraph.bootstrap.rrect;rSize=5;strokeColor=#B8DCFE;strokeWidth=1;fillColor=#CCE7FE;fontColor=#004583;whiteSpace=wrap;align=left;verticalAlign=middle;spacingLeft=10;" parent="1" vertex="1">
          <mxGeometry x="170" y="2110" width="720" height="40" as="geometry" />
        </mxCell>
        <mxCell id="J5Lqej5zV_sNJ-SoRFqQ-282" value="Nombre de la columna" style="html=1;shadow=0;dashed=0;shape=mxgraph.bootstrap.rrect;rSize=5;strokeColor=#BFE6EB;strokeWidth=1;fillColor=#D1EDF1;fontColor=#0E5560;whiteSpace=wrap;align=left;verticalAlign=middle;spacingLeft=10;" parent="1" vertex="1">
          <mxGeometry x="230" y="1480" width="240" height="40" as="geometry" />
        </mxCell>
        <mxCell id="J5Lqej5zV_sNJ-SoRFqQ-283" value="Siguiente" style="html=1;shadow=0;dashed=0;shape=mxgraph.bootstrap.rrect;rSize=5;strokeColor=#0085FC;strokeWidth=1;fillColor=none;fontColor=#0085FC;whiteSpace=wrap;align=center;verticalAlign=middle;spacingLeft=0;fontStyle=0;fontSize=16;spacing=5;" parent="1" vertex="1">
          <mxGeometry x="240" y="1800" width="80" height="40" as="geometry" />
        </mxCell>
        <mxCell id="J5Lqej5zV_sNJ-SoRFqQ-284" value="Cambiar" style="html=1;shadow=0;dashed=0;shape=mxgraph.bootstrap.rrect;rSize=5;strokeColor=none;strokeWidth=1;fillColor=#33A64C;fontColor=#FFFFFF;whiteSpace=wrap;align=center;verticalAlign=middle;spacingLeft=0;fontStyle=0;fontSize=16;spacing=5;" parent="1" vertex="1">
          <mxGeometry x="500" y="1800" width="90" height="40" as="geometry" />
        </mxCell>
        <mxCell id="J5Lqej5zV_sNJ-SoRFqQ-285" value="Agregar Dominio" style="html=1;shadow=0;dashed=0;shape=mxgraph.bootstrap.rrect;rSize=5;strokeColor=none;strokeWidth=1;fillColor=#33A64C;fontColor=#ffffff;whiteSpace=wrap;align=left;verticalAlign=middle;fontStyle=0;fontSize=14;spacingLeft=10;" parent="1" vertex="1">
          <mxGeometry x="230" y="1540" width="130" height="40" as="geometry" />
        </mxCell>
        <mxCell id="J5Lqej5zV_sNJ-SoRFqQ-293" value="" style="html=1;shadow=0;dashed=0;shape=mxgraph.bootstrap.rrect;rSize=5;strokeColor=#DFDFDF;html=1;whiteSpace=wrap;fillColor=#FFFFFF;fontColor=#000000;" parent="1" vertex="1">
          <mxGeometry x="560" y="1484" width="250" height="270" as="geometry" />
        </mxCell>
        <mxCell id="J5Lqej5zV_sNJ-SoRFqQ-294" value="Valores de dominio" style="strokeColor=inherit;fillColor=inherit;gradientColor=inherit;fontColor=inherit;html=1;shadow=0;dashed=0;shape=mxgraph.bootstrap.topButton;rSize=5;perimeter=none;whiteSpace=wrap;resizeWidth=1;align=left;spacing=10;" parent="J5Lqej5zV_sNJ-SoRFqQ-293" vertex="1">
          <mxGeometry width="250" height="30" relative="1" as="geometry" />
        </mxCell>
        <mxCell id="J5Lqej5zV_sNJ-SoRFqQ-295" value="A simple primary list group item" style="html=1;fillColor=#B8DCFE;strokeColor=#A1C0DE;fontColor=#004583;shadow=0;dashed=0;perimeter=none;whiteSpace=wrap;resizeWidth=1;align=left;spacing=10;" parent="J5Lqej5zV_sNJ-SoRFqQ-293" vertex="1">
          <mxGeometry width="250" height="30" relative="1" as="geometry">
            <mxPoint y="30" as="offset" />
          </mxGeometry>
        </mxCell>
        <mxCell id="J5Lqej5zV_sNJ-SoRFqQ-296" value="A simple secondary list group item" style="html=1;fillColor=#D6D8DB;strokeColor=#BBBDC0;fontColor=#383D41;shadow=0;dashed=0;perimeter=none;whiteSpace=wrap;resizeWidth=1;align=left;spacing=10;" parent="J5Lqej5zV_sNJ-SoRFqQ-293" vertex="1">
          <mxGeometry width="250" height="30" relative="1" as="geometry">
            <mxPoint y="60" as="offset" />
          </mxGeometry>
        </mxCell>
        <mxCell id="J5Lqej5zV_sNJ-SoRFqQ-297" value="A simple success list group item" style="html=1;fillColor=#C4E6CC;strokeColor=#ABC9B2;fontColor=#ABC9B2;shadow=0;dashed=0;perimeter=none;whiteSpace=wrap;resizeWidth=1;align=left;spacing=10;" parent="J5Lqej5zV_sNJ-SoRFqQ-293" vertex="1">
          <mxGeometry width="250" height="30" relative="1" as="geometry">
            <mxPoint y="90" as="offset" />
          </mxGeometry>
        </mxCell>
        <mxCell id="J5Lqej5zV_sNJ-SoRFqQ-298" value="A simple danger list group item" style="html=1;fillColor=#F4C5CB;strokeColor=#D5ACB2;fontColor=#711623;shadow=0;dashed=0;perimeter=none;whiteSpace=wrap;resizeWidth=1;align=left;spacing=10;" parent="J5Lqej5zV_sNJ-SoRFqQ-293" vertex="1">
          <mxGeometry width="250" height="30" relative="1" as="geometry">
            <mxPoint y="120" as="offset" />
          </mxGeometry>
        </mxCell>
        <mxCell id="J5Lqej5zV_sNJ-SoRFqQ-299" value="A simple warning list group item" style="html=1;fillColor=#FFECBC;strokeColor=#DFCEA4;fontColor=#856110;shadow=0;dashed=0;perimeter=none;whiteSpace=wrap;resizeWidth=1;align=left;spacing=10;" parent="J5Lqej5zV_sNJ-SoRFqQ-293" vertex="1">
          <mxGeometry width="250" height="30" relative="1" as="geometry">
            <mxPoint y="150" as="offset" />
          </mxGeometry>
        </mxCell>
        <mxCell id="J5Lqej5zV_sNJ-SoRFqQ-300" value="A simple info list group item" style="html=1;fillColor=#BFE6EB;strokeColor=#A7C9CE;fontColor=#0E5560;shadow=0;dashed=0;perimeter=none;whiteSpace=wrap;resizeWidth=1;align=left;spacing=10;" parent="J5Lqej5zV_sNJ-SoRFqQ-293" vertex="1">
          <mxGeometry width="250" height="30" relative="1" as="geometry">
            <mxPoint y="180" as="offset" />
          </mxGeometry>
        </mxCell>
        <mxCell id="J5Lqej5zV_sNJ-SoRFqQ-301" value="A simple light list group item" style="html=1;fillColor=#FDFDFE;strokeColor=#DDDDDE;fontColor=#818182;shadow=0;dashed=0;perimeter=none;whiteSpace=wrap;resizeWidth=1;align=left;spacing=10;" parent="J5Lqej5zV_sNJ-SoRFqQ-293" vertex="1">
          <mxGeometry width="250" height="30" relative="1" as="geometry">
            <mxPoint y="210" as="offset" />
          </mxGeometry>
        </mxCell>
        <mxCell id="J5Lqej5zV_sNJ-SoRFqQ-302" value="A simple dark list group item" style="html=1;shadow=0;dashed=0;shape=mxgraph.bootstrap.bottomButton;fillColor=#C6C8CA;strokeColor=#ADAFB1;fontColor=#1B1E21;rSize=5;perimeter=none;whiteSpace=wrap;resizeWidth=1;resizeHeight=0;align=left;spacing=10;" parent="J5Lqej5zV_sNJ-SoRFqQ-293" vertex="1">
          <mxGeometry y="1" width="250" height="30" relative="1" as="geometry">
            <mxPoint y="-30" as="offset" />
          </mxGeometry>
        </mxCell>
        <mxCell id="J5Lqej5zV_sNJ-SoRFqQ-308" value="" style="shape=triangle;direction=south;fillColor=#0085FC;strokeColor=none;perimeter=none;sketch=0;" parent="J5Lqej5zV_sNJ-SoRFqQ-293" vertex="1">
          <mxGeometry x="225" y="36" width="10" height="5" as="geometry" />
        </mxCell>
        <mxCell id="J5Lqej5zV_sNJ-SoRFqQ-310" value="" style="shape=triangle;direction=south;fillColor=#0085FC;strokeColor=none;perimeter=none;sketch=0;" parent="J5Lqej5zV_sNJ-SoRFqQ-293" vertex="1">
          <mxGeometry x="225" y="66" width="10" height="5" as="geometry" />
        </mxCell>
        <mxCell id="J5Lqej5zV_sNJ-SoRFqQ-312" value="" style="shape=triangle;direction=south;fillColor=#0085FC;strokeColor=none;perimeter=none;sketch=0;" parent="J5Lqej5zV_sNJ-SoRFqQ-293" vertex="1">
          <mxGeometry x="225" y="96" width="10" height="5" as="geometry" />
        </mxCell>
        <mxCell id="J5Lqej5zV_sNJ-SoRFqQ-313" value="" style="shape=triangle;direction=south;fillColor=#0085FC;strokeColor=none;perimeter=none;sketch=0;" parent="J5Lqej5zV_sNJ-SoRFqQ-293" vertex="1">
          <mxGeometry x="225" y="132.5" width="10" height="5" as="geometry" />
        </mxCell>
        <mxCell id="J5Lqej5zV_sNJ-SoRFqQ-314" value="" style="shape=triangle;direction=south;fillColor=#0085FC;strokeColor=none;perimeter=none;sketch=0;" parent="J5Lqej5zV_sNJ-SoRFqQ-293" vertex="1">
          <mxGeometry x="225" y="166" width="10" height="5" as="geometry" />
        </mxCell>
        <mxCell id="J5Lqej5zV_sNJ-SoRFqQ-315" value="" style="shape=triangle;direction=south;fillColor=#0085FC;strokeColor=none;perimeter=none;sketch=0;" parent="J5Lqej5zV_sNJ-SoRFqQ-293" vertex="1">
          <mxGeometry x="225" y="196" width="10" height="5" as="geometry" />
        </mxCell>
        <mxCell id="J5Lqej5zV_sNJ-SoRFqQ-316" value="" style="shape=triangle;direction=south;fillColor=#0085FC;strokeColor=none;perimeter=none;sketch=0;" parent="J5Lqej5zV_sNJ-SoRFqQ-293" vertex="1">
          <mxGeometry x="225" y="216" width="10" height="5" as="geometry" />
        </mxCell>
        <mxCell id="J5Lqej5zV_sNJ-SoRFqQ-317" value="" style="shape=triangle;direction=south;fillColor=#0085FC;strokeColor=none;perimeter=none;sketch=0;" parent="J5Lqej5zV_sNJ-SoRFqQ-293" vertex="1">
          <mxGeometry x="225" y="246" width="10" height="5" as="geometry" />
        </mxCell>
        <mxCell id="J5Lqej5zV_sNJ-SoRFqQ-318" value="" style="html=1;shadow=0;dashed=0;shape=mxgraph.bootstrap.rrect;rSize=5;strokeColor=#DFDFDF;html=1;whiteSpace=wrap;fillColor=#FFFFFF;fontColor=#000000;" parent="1" vertex="1">
          <mxGeometry x="220" y="1590" width="300" height="120" as="geometry" />
        </mxCell>
        <mxCell id="J5Lqej5zV_sNJ-SoRFqQ-319" value="Mamiferos" style="strokeColor=inherit;fillColor=inherit;gradientColor=inherit;fontColor=inherit;html=1;shadow=0;dashed=0;shape=mxgraph.bootstrap.topButton;rSize=5;perimeter=none;whiteSpace=wrap;resizeWidth=1;align=left;spacing=10;" parent="J5Lqej5zV_sNJ-SoRFqQ-318" vertex="1">
          <mxGeometry width="300" height="40" relative="1" as="geometry" />
        </mxCell>
        <mxCell id="J5Lqej5zV_sNJ-SoRFqQ-320" value="4" style="strokeColor=inherit;fillColor=inherit;gradientColor=inherit;fontColor=inherit;html=1;shadow=0;dashed=0;shape=mxgraph.bootstrap.rrect;rSize=8;fillColor=#0085FC;strokeColor=none;fontColor=#ffffff;whiteSpace=wrap;" parent="J5Lqej5zV_sNJ-SoRFqQ-319" vertex="1">
          <mxGeometry x="1" y="0.5" width="25" height="16" relative="1" as="geometry">
            <mxPoint x="-40" y="-8" as="offset" />
          </mxGeometry>
        </mxCell>
        <mxCell id="J5Lqej5zV_sNJ-SoRFqQ-321" value="Acuaticos" style="strokeColor=inherit;fillColor=inherit;gradientColor=inherit;fontColor=inherit;html=1;shadow=0;dashed=0;perimeter=none;whiteSpace=wrap;resizeWidth=1;align=left;spacing=10;" parent="J5Lqej5zV_sNJ-SoRFqQ-318" vertex="1">
          <mxGeometry width="300" height="40" relative="1" as="geometry">
            <mxPoint y="40" as="offset" />
          </mxGeometry>
        </mxCell>
        <mxCell id="J5Lqej5zV_sNJ-SoRFqQ-322" value="2" style="strokeColor=inherit;fillColor=inherit;gradientColor=inherit;fontColor=inherit;html=1;shadow=0;dashed=0;shape=mxgraph.bootstrap.rrect;rSize=8;fillColor=#0085FC;strokeColor=none;fontColor=#ffffff;whiteSpace=wrap;" parent="J5Lqej5zV_sNJ-SoRFqQ-321" vertex="1">
          <mxGeometry x="1" y="0.5" width="20" height="16" relative="1" as="geometry">
            <mxPoint x="-38" y="-8" as="offset" />
          </mxGeometry>
        </mxCell>
        <mxCell id="J5Lqej5zV_sNJ-SoRFqQ-323" value="Carnivoros" style="strokeColor=inherit;fillColor=inherit;gradientColor=inherit;fontColor=inherit;html=1;shadow=0;dashed=0;shape=mxgraph.bootstrap.bottomButton;rSize=5;perimeter=none;whiteSpace=wrap;resizeWidth=1;resizeHeight=0;align=left;spacing=10;" parent="J5Lqej5zV_sNJ-SoRFqQ-318" vertex="1">
          <mxGeometry y="1" width="300" height="40" relative="1" as="geometry">
            <mxPoint y="-40" as="offset" />
          </mxGeometry>
        </mxCell>
        <mxCell id="J5Lqej5zV_sNJ-SoRFqQ-324" value="1" style="strokeColor=inherit;fillColor=inherit;gradientColor=inherit;fontColor=inherit;html=1;shadow=0;dashed=0;shape=mxgraph.bootstrap.rrect;rSize=8;fillColor=#0085FC;strokeColor=none;fontColor=#ffffff;whiteSpace=wrap;" parent="J5Lqej5zV_sNJ-SoRFqQ-323" vertex="1">
          <mxGeometry x="1" y="0.5" width="20" height="16" relative="1" as="geometry">
            <mxPoint x="-38" y="-8" as="offset" />
          </mxGeometry>
        </mxCell>
        <mxCell id="J5Lqej5zV_sNJ-SoRFqQ-325" value="" style="html=1;shadow=0;dashed=0;shape=mxgraph.bootstrap.rrect;rSize=5;fillColor=#ffffff;strokeColor=#999999;" parent="1" vertex="1">
          <mxGeometry x="840" y="1470" width="170" height="110" as="geometry" />
        </mxCell>
        <mxCell id="J5Lqej5zV_sNJ-SoRFqQ-326" value="Mamiferos" style="fillColor=none;strokeColor=none;align=left;spacing=20;fontSize=14;" parent="J5Lqej5zV_sNJ-SoRFqQ-325" vertex="1">
          <mxGeometry width="170" height="30" relative="1" as="geometry">
            <mxPoint y="10" as="offset" />
          </mxGeometry>
        </mxCell>
        <mxCell id="J5Lqej5zV_sNJ-SoRFqQ-327" value="Acuatico" style="fillColor=#0085FC;strokeColor=none;fontColor=#ffffff;align=left;spacing=20;fontSize=14;sketch=0;" parent="J5Lqej5zV_sNJ-SoRFqQ-325" vertex="1">
          <mxGeometry width="170" height="30" relative="1" as="geometry">
            <mxPoint y="40" as="offset" />
          </mxGeometry>
        </mxCell>
        <mxCell id="J5Lqej5zV_sNJ-SoRFqQ-328" value="Carnivoro" style="fillColor=none;strokeColor=none;align=left;spacing=20;fontSize=14;" parent="J5Lqej5zV_sNJ-SoRFqQ-325" vertex="1">
          <mxGeometry width="170" height="30" relative="1" as="geometry">
            <mxPoint y="70" as="offset" />
          </mxGeometry>
        </mxCell>
        <mxCell id="J5Lqej5zV_sNJ-SoRFqQ-332" value="" style="html=1;shadow=0;dashed=0;shape=mxgraph.bootstrap.rect;fillColor=#222222;strokeColor=none;whiteSpace=wrap;rounded=0;fontSize=12;fontColor=#000000;align=center;" parent="1" vertex="1">
          <mxGeometry x="30" y="2750" width="1150" height="40" as="geometry" />
        </mxCell>
        <mxCell id="J5Lqej5zV_sNJ-SoRFqQ-333" value="MEMLA" style="html=1;shadow=0;dashed=0;fillColor=none;strokeColor=none;shape=mxgraph.bootstrap.rect;fontColor=#999999;fontSize=14;whiteSpace=wrap;" parent="J5Lqej5zV_sNJ-SoRFqQ-332" vertex="1">
          <mxGeometry width="115" height="40" as="geometry" />
        </mxCell>
        <mxCell id="J5Lqej5zV_sNJ-SoRFqQ-334" value="Publicactions" style="html=1;shadow=0;dashed=0;shape=mxgraph.bootstrap.rect;fillColor=#000000;strokeColor=none;fontColor=#ffffff;spacingRight=30;whiteSpace=wrap;" parent="J5Lqej5zV_sNJ-SoRFqQ-332" vertex="1">
          <mxGeometry x="115" width="129.375" height="40" as="geometry" />
        </mxCell>
        <mxCell id="J5Lqej5zV_sNJ-SoRFqQ-335" value="84" style="html=1;shadow=0;dashed=0;shape=mxgraph.bootstrap.rrect;rSize=8;fillColor=#ff0000;strokeColor=none;fontColor=#ffffff;whiteSpace=wrap;" parent="J5Lqej5zV_sNJ-SoRFqQ-334" vertex="1">
          <mxGeometry x="1" y="0.5" width="25" height="16" relative="1" as="geometry">
            <mxPoint x="-30" y="-8" as="offset" />
          </mxGeometry>
        </mxCell>
        <mxCell id="J5Lqej5zV_sNJ-SoRFqQ-336" value="&lt;div&gt;About MEMLA&lt;/div&gt;" style="html=1;shadow=0;dashed=0;fillColor=none;strokeColor=none;shape=mxgraph.bootstrap.rect;fontColor=#999999;spacingRight=30;whiteSpace=wrap;" parent="J5Lqej5zV_sNJ-SoRFqQ-332" vertex="1">
          <mxGeometry x="244.375" width="158.125" height="40" as="geometry" />
        </mxCell>
        <mxCell id="J5Lqej5zV_sNJ-SoRFqQ-337" value="42" style="html=1;shadow=0;dashed=0;shape=mxgraph.bootstrap.rrect;rSize=8;fillColor=#ff0000;strokeColor=none;fontColor=#ffffff;whiteSpace=wrap;" parent="J5Lqej5zV_sNJ-SoRFqQ-336" vertex="1">
          <mxGeometry x="1" y="0.5" width="25" height="16" relative="1" as="geometry">
            <mxPoint x="-30" y="-8" as="offset" />
          </mxGeometry>
        </mxCell>
        <mxCell id="J5Lqej5zV_sNJ-SoRFqQ-338" value="About US" style="html=1;shadow=0;dashed=0;fillColor=none;strokeColor=none;shape=mxgraph.bootstrap.rect;fontColor=#999999;whiteSpace=wrap;" parent="J5Lqej5zV_sNJ-SoRFqQ-332" vertex="1">
          <mxGeometry x="402.5" width="115" height="40" as="geometry" />
        </mxCell>
        <mxCell id="J5Lqej5zV_sNJ-SoRFqQ-339" value="Login" style="html=1;shadow=0;dashed=0;fillColor=none;strokeColor=none;shape=mxgraph.bootstrap.rect;fontColor=#999999;whiteSpace=wrap;" parent="J5Lqej5zV_sNJ-SoRFqQ-332" vertex="1">
          <mxGeometry x="948.75" width="100.625" height="40" as="geometry" />
        </mxCell>
        <mxCell id="J5Lqej5zV_sNJ-SoRFqQ-340" value="Register" style="html=1;shadow=0;dashed=0;fillColor=none;strokeColor=none;shape=mxgraph.bootstrap.rect;fontColor=#999999;whiteSpace=wrap;" parent="J5Lqej5zV_sNJ-SoRFqQ-332" vertex="1">
          <mxGeometry x="1049.375" width="100.625" height="40" as="geometry" />
        </mxCell>
        <mxCell id="J5Lqej5zV_sNJ-SoRFqQ-341" value="Back" style="html=1;shadow=0;dashed=0;shape=mxgraph.bootstrap.rrect;align=center;rSize=5;strokeColor=none;fillColor=#3D8BCD;fontColor=#ffffff;fontSize=16;whiteSpace=wrap;rounded=0;" parent="1" vertex="1">
          <mxGeometry x="170" y="3280" width="150" height="40" as="geometry" />
        </mxCell>
        <mxCell id="J5Lqej5zV_sNJ-SoRFqQ-342" value="Next" style="html=1;shadow=0;dashed=0;shape=mxgraph.bootstrap.rrect;align=center;rSize=5;strokeColor=none;fillColor=#DB524C;fontColor=#ffffff;fontSize=16;whiteSpace=wrap;rounded=0;" parent="1" vertex="1">
          <mxGeometry x="800" y="3280" width="170" height="40" as="geometry" />
        </mxCell>
        <mxCell id="J5Lqej5zV_sNJ-SoRFqQ-343" value="Phase 2: Eliminación de columnas no informativas" style="html=1;shadow=0;dashed=0;shape=mxgraph.bootstrap.rrect;rSize=5;strokeColor=#B8DCFE;strokeWidth=1;fillColor=#CCE7FE;fontColor=#004583;whiteSpace=wrap;align=left;verticalAlign=middle;spacingLeft=10;" parent="1" vertex="1">
          <mxGeometry x="160" y="2830" width="720" height="40" as="geometry" />
        </mxCell>
        <mxCell id="J5Lqej5zV_sNJ-SoRFqQ-417" value="Branch" style="html=1;fillColor=none;strokeColor=none;fontSize=11;align=left;fontColor=#596780;whiteSpace=wrap;sketch=1;hachureGap=4;pointerEvents=0;fontFamily=Architects Daughter;fontSource=https%3A%2F%2Ffonts.googleapis.com%2Fcss%3Ffamily%3DArchitects%2BDaughter;fillStyle=auto;" parent="1" vertex="1">
          <mxGeometry x="204.28578125" y="2210" width="214.28671875" height="28.571428571428573" as="geometry" />
        </mxCell>
        <mxCell id="J5Lqej5zV_sNJ-SoRFqQ-418" value="Behind" style="html=1;fillColor=none;strokeColor=none;fontSize=11;align=left;fontColor=#596780;whiteSpace=wrap;sketch=1;hachureGap=4;pointerEvents=0;fontFamily=Architects Daughter;fontSource=https%3A%2F%2Ffonts.googleapis.com%2Fcss%3Ffamily%3DArchitects%2BDaughter;fillStyle=auto;" parent="1" vertex="1">
          <mxGeometry x="575.71609375" y="2210" width="57.143125" height="28.571428571428573" as="geometry" />
        </mxCell>
        <mxCell id="J5Lqej5zV_sNJ-SoRFqQ-419" value="Ahead" style="html=1;fillColor=none;strokeColor=none;fontSize=11;align=right;fontColor=#596780;whiteSpace=wrap;sketch=1;hachureGap=4;pointerEvents=0;fontFamily=Architects Daughter;fontSource=https%3A%2F%2Ffonts.googleapis.com%2Fcss%3Ffamily%3DArchitects%2BDaughter;fillStyle=auto;" parent="1" vertex="1">
          <mxGeometry x="632.8592187500001" y="2210" width="57.143125" height="28.571428571428573" as="geometry" />
        </mxCell>
        <mxCell id="J5Lqej5zV_sNJ-SoRFqQ-420" value="Updated" style="html=1;fillColor=none;strokeColor=none;fontSize=11;align=left;fontColor=#596780;whiteSpace=wrap;sketch=1;hachureGap=4;pointerEvents=0;fontFamily=Architects Daughter;fontSource=https%3A%2F%2Ffonts.googleapis.com%2Fcss%3Ffamily%3DArchitects%2BDaughter;fillStyle=auto;" parent="1" vertex="1">
          <mxGeometry x="718.57390625" y="2210" width="128.57203125" height="28.571428571428573" as="geometry" />
        </mxCell>
        <mxCell id="J5Lqej5zV_sNJ-SoRFqQ-421" value="Pull request" style="html=1;fillColor=none;strokeColor=none;fontSize=11;align=center;fontColor=#596780;whiteSpace=wrap;sketch=1;hachureGap=4;pointerEvents=0;fontFamily=Architects Daughter;fontSource=https%3A%2F%2Ffonts.googleapis.com%2Fcss%3Ffamily%3DArchitects%2BDaughter;fillStyle=auto;" parent="1" vertex="1">
          <mxGeometry x="847.1459375000001" y="2210" width="128.57203125" height="28.571428571428573" as="geometry" />
        </mxCell>
        <mxCell id="J5Lqej5zV_sNJ-SoRFqQ-422" value="Builds" style="html=1;fillColor=none;strokeColor=none;fontSize=11;align=center;fontColor=#596780;whiteSpace=wrap;sketch=1;hachureGap=4;pointerEvents=0;fontFamily=Architects Daughter;fontSource=https%3A%2F%2Ffonts.googleapis.com%2Fcss%3Ffamily%3DArchitects%2BDaughter;fillStyle=auto;" parent="1" vertex="1">
          <mxGeometry x="975.7179687500001" y="2210" width="57.143125" height="28.571428571428573" as="geometry" />
        </mxCell>
        <mxCell id="J5Lqej5zV_sNJ-SoRFqQ-423" value="" style="shape=line;strokeWidth=2;html=1;strokeColor=#DFE1E5;resizeWidth=1;sketch=1;hachureGap=4;pointerEvents=0;fontFamily=Architects Daughter;fontSource=https%3A%2F%2Ffonts.googleapis.com%2Fcss%3Ffamily%3DArchitects%2BDaughter;fontSize=20;fillStyle=auto;" parent="1" vertex="1">
          <mxGeometry x="204.28578125" y="2238.5714285714284" width="900.0042187500001" height="14.285714285714286" as="geometry" />
        </mxCell>
        <mxCell id="J5Lqej5zV_sNJ-SoRFqQ-424" value="" style="strokeColor=none;fillColor=#FAFBFC;html=1;sketch=1;hachureGap=4;pointerEvents=0;fontFamily=Architects Daughter;fontSource=https%3A%2F%2Ffonts.googleapis.com%2Fcss%3Ffamily%3DArchitects%2BDaughter;fontSize=20;fillStyle=auto;" parent="1" vertex="1">
          <mxGeometry x="190" y="2247.1428571428573" width="914.29" height="42.85714285714286" as="geometry" />
        </mxCell>
        <mxCell id="J5Lqej5zV_sNJ-SoRFqQ-428" value="&amp;#8226;&amp;#8226;&amp;#8226;" style="shape=ellipse;fillColor=#0057D8;strokeColor=none;fontColor=#ffffff;align=center;verticalAlign=middle;whiteSpace=wrap;fontSize=10;fontStyle=0;html=1;sketch=0;hachureGap=4;pointerEvents=0;fontFamily=Architects Daughter;fontSource=https%3A%2F%2Ffonts.googleapis.com%2Fcss%3Ffamily%3DArchitects%2BDaughter;fillStyle=auto;" parent="1" vertex="1">
          <mxGeometry x="997.146640625" y="2257.1428571428573" width="22.85725" height="22.857142857142858" as="geometry" />
        </mxCell>
        <mxCell id="J5Lqej5zV_sNJ-SoRFqQ-433" value="abhin/repo/api/allow_repo_updates" style="strokeColor=none;fillColor=none;fontSize=12;fontColor=#596780;align=left;html=1;sketch=1;hachureGap=4;pointerEvents=0;fontFamily=Architects Daughter;fontSource=https%3A%2F%2Ffonts.googleapis.com%2Fcss%3Ffamily%3DArchitects%2BDaughter;fillStyle=auto;" parent="1" vertex="1">
          <mxGeometry x="204.28578125" y="2297.1428571428573" width="342.85875" height="28.571428571428573" as="geometry" />
        </mxCell>
        <mxCell id="J5Lqej5zV_sNJ-SoRFqQ-434" value="" style="shape=mxgraph.mockup.misc.progressBar;fillColor=#3384FF;strokeColor=none;fillColor2=#F2F2F2;barPos=80;sketch=1;hachureGap=4;pointerEvents=0;fontFamily=Architects Daughter;fontSource=https%3A%2F%2Ffonts.googleapis.com%2Fcss%3Ffamily%3DArchitects%2BDaughter;fontSize=20;fillStyle=auto;" parent="1" vertex="1">
          <mxGeometry x="575.71609375" y="2304.285714285714" width="114.28625" height="14.285714285714286" as="geometry" />
        </mxCell>
        <mxCell id="J5Lqej5zV_sNJ-SoRFqQ-435" value="107" style="strokeColor=none;fillColor=none;fontSize=10;fontColor=#596780;align=left;html=1;sketch=1;hachureGap=4;pointerEvents=0;fontFamily=Architects Daughter;fontSource=https%3A%2F%2Ffonts.googleapis.com%2Fcss%3Ffamily%3DArchitects%2BDaughter;fillStyle=auto;" parent="1" vertex="1">
          <mxGeometry x="575.71609375" y="2314.285714285714" width="57.143125" height="28.571428571428573" as="geometry" />
        </mxCell>
        <mxCell id="J5Lqej5zV_sNJ-SoRFqQ-436" value="3" style="strokeColor=none;fillColor=none;fontSize=10;fontColor=#596780;align=right;html=1;sketch=1;hachureGap=4;pointerEvents=0;fontFamily=Architects Daughter;fontSource=https%3A%2F%2Ffonts.googleapis.com%2Fcss%3Ffamily%3DArchitects%2BDaughter;fillStyle=auto;" parent="1" vertex="1">
          <mxGeometry x="632.8592187500001" y="2314.285714285714" width="57.143125" height="28.571428571428573" as="geometry" />
        </mxCell>
        <mxCell id="J5Lqej5zV_sNJ-SoRFqQ-437" value="5 minutes ago" style="strokeColor=none;fillColor=none;fontSize=12;fontColor=#596780;align=left;html=1;sketch=1;hachureGap=4;pointerEvents=0;fontFamily=Architects Daughter;fontSource=https%3A%2F%2Ffonts.googleapis.com%2Fcss%3Ffamily%3DArchitects%2BDaughter;fillStyle=auto;" parent="1" vertex="1">
          <mxGeometry x="718.57390625" y="2297.1428571428573" width="71.42890625" height="28.571428571428573" as="geometry" />
        </mxCell>
        <mxCell id="J5Lqej5zV_sNJ-SoRFqQ-438" value="#10258" style="strokeColor=none;fillColor=none;fontSize=12;fontColor=#596780;align=left;html=1;sketch=1;hachureGap=4;pointerEvents=0;fontFamily=Architects Daughter;fontSource=https%3A%2F%2Ffonts.googleapis.com%2Fcss%3Ffamily%3DArchitects%2BDaughter;fillStyle=auto;" parent="1" vertex="1">
          <mxGeometry x="847.1459375000001" y="2297.1428571428573" width="71.42890625" height="28.571428571428573" as="geometry" />
        </mxCell>
        <mxCell id="J5Lqej5zV_sNJ-SoRFqQ-439" value="OPEN" style="strokeColor=none;fillColor=#CCE0FF;fontSize=11;fontColor=#3384FF;rounded=1;html=1;align=center;fontStyle=1;sketch=1;hachureGap=4;pointerEvents=0;fontFamily=Architects Daughter;fontSource=https%3A%2F%2Ffonts.googleapis.com%2Fcss%3Ffamily%3DArchitects%2BDaughter;fillStyle=auto;" parent="1" vertex="1">
          <mxGeometry x="918.57484375" y="2297.1428571428573" width="57.143125" height="28.571428571428573" as="geometry" />
        </mxCell>
        <mxCell id="J5Lqej5zV_sNJ-SoRFqQ-440" value="&amp;#8226;&amp;#8226;&amp;#8226;" style="shape=ellipse;fillColor=#0057D8;strokeColor=none;fontColor=#ffffff;align=center;verticalAlign=middle;whiteSpace=wrap;fontSize=10;fontStyle=0;html=1;sketch=0;hachureGap=4;pointerEvents=0;fontFamily=Architects Daughter;fontSource=https%3A%2F%2Ffonts.googleapis.com%2Fcss%3Ffamily%3DArchitects%2BDaughter;fillStyle=auto;" parent="1" vertex="1">
          <mxGeometry x="997.146640625" y="2300" width="22.85725" height="22.857142857142858" as="geometry" />
        </mxCell>
        <mxCell id="J5Lqej5zV_sNJ-SoRFqQ-448" value="&amp;#8226;&amp;#8226;&amp;#8226;" style="shape=ellipse;fillColor=#0057D8;strokeColor=none;fontColor=#ffffff;align=center;verticalAlign=middle;whiteSpace=wrap;fontSize=10;fontStyle=0;html=1;sketch=0;hachureGap=4;pointerEvents=0;fontFamily=Architects Daughter;fontSource=https%3A%2F%2Ffonts.googleapis.com%2Fcss%3Ffamily%3DArchitects%2BDaughter;fillStyle=auto;" parent="1" vertex="1">
          <mxGeometry x="997.146640625" y="2342.8571428571427" width="22.85725" height="22.857142857142858" as="geometry" />
        </mxCell>
        <mxCell id="J5Lqej5zV_sNJ-SoRFqQ-451" value="7" style="strokeColor=none;fillColor=none;fontSize=10;fontColor=#596780;align=left;html=1;sketch=1;hachureGap=4;pointerEvents=0;fontFamily=Architects Daughter;fontSource=https%3A%2F%2Ffonts.googleapis.com%2Fcss%3Ffamily%3DArchitects%2BDaughter;fillStyle=auto;" parent="1" vertex="1">
          <mxGeometry x="575.71609375" y="2400" width="57.143125" height="28.571428571428573" as="geometry" />
        </mxCell>
        <mxCell id="J5Lqej5zV_sNJ-SoRFqQ-452" value="1" style="strokeColor=none;fillColor=none;fontSize=10;fontColor=#596780;align=right;html=1;sketch=1;hachureGap=4;pointerEvents=0;fontFamily=Architects Daughter;fontSource=https%3A%2F%2Ffonts.googleapis.com%2Fcss%3Ffamily%3DArchitects%2BDaughter;fillStyle=auto;" parent="1" vertex="1">
          <mxGeometry x="632.8592187500001" y="2400" width="57.143125" height="28.571428571428573" as="geometry" />
        </mxCell>
        <mxCell id="J5Lqej5zV_sNJ-SoRFqQ-456" value="&amp;#8226;&amp;#8226;&amp;#8226;" style="shape=ellipse;fillColor=#0057D8;strokeColor=none;fontColor=#ffffff;align=center;verticalAlign=middle;whiteSpace=wrap;fontSize=10;fontStyle=0;html=1;sketch=0;hachureGap=4;pointerEvents=0;fontFamily=Architects Daughter;fontSource=https%3A%2F%2Ffonts.googleapis.com%2Fcss%3Ffamily%3DArchitects%2BDaughter;fillStyle=auto;" parent="1" vertex="1">
          <mxGeometry x="997.146640625" y="2385.714285714286" width="22.85725" height="22.857142857142858" as="geometry" />
        </mxCell>
        <mxCell id="J5Lqej5zV_sNJ-SoRFqQ-457" value="jmooring/BBDEV-1603" style="strokeColor=none;fillColor=none;fontSize=12;fontColor=#596780;align=left;html=1;sketch=1;hachureGap=4;pointerEvents=0;fontFamily=Architects Daughter;fontSource=https%3A%2F%2Ffonts.googleapis.com%2Fcss%3Ffamily%3DArchitects%2BDaughter;fillStyle=auto;" parent="1" vertex="1">
          <mxGeometry x="204.28578125" y="2425.714285714286" width="342.85875" height="28.571428571428573" as="geometry" />
        </mxCell>
        <mxCell id="J5Lqej5zV_sNJ-SoRFqQ-458" value="" style="shape=mxgraph.mockup.misc.progressBar;fillColor=#3384FF;strokeColor=none;fillColor2=#F2F2F2;barPos=80;sketch=1;hachureGap=4;pointerEvents=0;fontFamily=Architects Daughter;fontSource=https%3A%2F%2Ffonts.googleapis.com%2Fcss%3Ffamily%3DArchitects%2BDaughter;fontSize=20;fillStyle=auto;" parent="1" vertex="1">
          <mxGeometry x="575.71609375" y="2432.8571428571427" width="114.28625" height="14.285714285714286" as="geometry" />
        </mxCell>
        <mxCell id="J5Lqej5zV_sNJ-SoRFqQ-459" value="2" style="strokeColor=none;fillColor=none;fontSize=10;fontColor=#596780;align=left;html=1;sketch=1;hachureGap=4;pointerEvents=0;fontFamily=Architects Daughter;fontSource=https%3A%2F%2Ffonts.googleapis.com%2Fcss%3Ffamily%3DArchitects%2BDaughter;fillStyle=auto;" parent="1" vertex="1">
          <mxGeometry x="575.71609375" y="2442.8571428571427" width="57.143125" height="28.571428571428573" as="geometry" />
        </mxCell>
        <mxCell id="J5Lqej5zV_sNJ-SoRFqQ-460" value="14" style="strokeColor=none;fillColor=none;fontSize=10;fontColor=#596780;align=right;html=1;sketch=1;hachureGap=4;pointerEvents=0;fontFamily=Architects Daughter;fontSource=https%3A%2F%2Ffonts.googleapis.com%2Fcss%3Ffamily%3DArchitects%2BDaughter;fillStyle=auto;" parent="1" vertex="1">
          <mxGeometry x="632.8592187500001" y="2442.8571428571427" width="57.143125" height="28.571428571428573" as="geometry" />
        </mxCell>
        <mxCell id="J5Lqej5zV_sNJ-SoRFqQ-461" value="29 minutes ago" style="strokeColor=none;fillColor=none;fontSize=12;fontColor=#596780;align=left;html=1;sketch=1;hachureGap=4;pointerEvents=0;fontFamily=Architects Daughter;fontSource=https%3A%2F%2Ffonts.googleapis.com%2Fcss%3Ffamily%3DArchitects%2BDaughter;fillStyle=auto;" parent="1" vertex="1">
          <mxGeometry x="718.57390625" y="2425.714285714286" width="71.42890625" height="28.571428571428573" as="geometry" />
        </mxCell>
        <mxCell id="J5Lqej5zV_sNJ-SoRFqQ-462" value="#10244" style="strokeColor=none;fillColor=none;fontSize=12;fontColor=#0057D8;align=left;html=1;sketch=1;hachureGap=4;pointerEvents=0;fontFamily=Architects Daughter;fontSource=https%3A%2F%2Ffonts.googleapis.com%2Fcss%3Ffamily%3DArchitects%2BDaughter;fillStyle=auto;" parent="1" vertex="1">
          <mxGeometry x="847.1459375000001" y="2425.714285714286" width="71.42890625" height="28.571428571428573" as="geometry" />
        </mxCell>
        <mxCell id="J5Lqej5zV_sNJ-SoRFqQ-463" value="OPEN" style="strokeColor=none;fillColor=#CCE0FF;fontSize=11;fontColor=#3384FF;rounded=1;html=1;align=center;fontStyle=1;sketch=1;hachureGap=4;pointerEvents=0;fontFamily=Architects Daughter;fontSource=https%3A%2F%2Ffonts.googleapis.com%2Fcss%3Ffamily%3DArchitects%2BDaughter;fillStyle=auto;" parent="1" vertex="1">
          <mxGeometry x="918.57484375" y="2425.714285714286" width="57.143125" height="28.571428571428573" as="geometry" />
        </mxCell>
        <mxCell id="J5Lqej5zV_sNJ-SoRFqQ-465" value="" style="shape=line;strokeWidth=2;html=1;strokeColor=#DFE1E5;resizeWidth=1;sketch=1;hachureGap=4;pointerEvents=0;fontFamily=Architects Daughter;fontSource=https%3A%2F%2Ffonts.googleapis.com%2Fcss%3Ffamily%3DArchitects%2BDaughter;fontSize=20;fillStyle=auto;" parent="1" vertex="1">
          <mxGeometry x="204.28578125" y="2465.714285714286" width="900.0042187500001" height="14.285714285714286" as="geometry" />
        </mxCell>
        <mxCell id="J5Lqej5zV_sNJ-SoRFqQ-470" value="&amp;#8226;&amp;#8226;&amp;#8226;" style="shape=ellipse;fillColor=#0057D8;strokeColor=none;fontColor=#ffffff;align=center;verticalAlign=middle;whiteSpace=wrap;fontSize=10;fontStyle=0;html=1;sketch=0;hachureGap=4;pointerEvents=0;fontFamily=Architects Daughter;fontSource=https%3A%2F%2Ffonts.googleapis.com%2Fcss%3Ffamily%3DArchitects%2BDaughter;fillStyle=auto;" parent="1" vertex="1">
          <mxGeometry x="997.146640625" y="2428.574285714286" width="22.85725" height="22.857142857142858" as="geometry" />
        </mxCell>
        <mxCell id="J5Lqej5zV_sNJ-SoRFqQ-476" value="jmooring/BBDEV-1603" style="strokeColor=none;fillColor=none;fontSize=12;fontColor=#596780;align=left;html=1;sketch=1;hachureGap=4;pointerEvents=0;fontFamily=Architects Daughter;fontSource=https%3A%2F%2Ffonts.googleapis.com%2Fcss%3Ffamily%3DArchitects%2BDaughter;fillStyle=auto;" parent="1" vertex="1">
          <mxGeometry x="204.28578125" y="2337.1442857142856" width="342.85875" height="28.571428571428573" as="geometry" />
        </mxCell>
        <mxCell id="J5Lqej5zV_sNJ-SoRFqQ-477" value="" style="shape=mxgraph.mockup.misc.progressBar;fillColor=#3384FF;strokeColor=none;fillColor2=#F2F2F2;barPos=80;sketch=1;hachureGap=4;pointerEvents=0;fontFamily=Architects Daughter;fontSource=https%3A%2F%2Ffonts.googleapis.com%2Fcss%3Ffamily%3DArchitects%2BDaughter;fontSize=20;fillStyle=auto;" parent="1" vertex="1">
          <mxGeometry x="575.71609375" y="2344.2871428571425" width="114.28625" height="14.285714285714286" as="geometry" />
        </mxCell>
        <mxCell id="J5Lqej5zV_sNJ-SoRFqQ-478" value="29 minutes ago" style="strokeColor=none;fillColor=none;fontSize=12;fontColor=#596780;align=left;html=1;sketch=1;hachureGap=4;pointerEvents=0;fontFamily=Architects Daughter;fontSource=https%3A%2F%2Ffonts.googleapis.com%2Fcss%3Ffamily%3DArchitects%2BDaughter;fillStyle=auto;" parent="1" vertex="1">
          <mxGeometry x="718.57390625" y="2337.1442857142856" width="71.42890625" height="28.571428571428573" as="geometry" />
        </mxCell>
        <mxCell id="J5Lqej5zV_sNJ-SoRFqQ-479" value="#10244" style="strokeColor=none;fillColor=none;fontSize=12;fontColor=#0057D8;align=left;html=1;sketch=1;hachureGap=4;pointerEvents=0;fontFamily=Architects Daughter;fontSource=https%3A%2F%2Ffonts.googleapis.com%2Fcss%3Ffamily%3DArchitects%2BDaughter;fillStyle=auto;" parent="1" vertex="1">
          <mxGeometry x="847.1459375000001" y="2337.1442857142856" width="71.42890625" height="28.571428571428573" as="geometry" />
        </mxCell>
        <mxCell id="J5Lqej5zV_sNJ-SoRFqQ-480" value="OPEN" style="strokeColor=none;fillColor=#CCE0FF;fontSize=11;fontColor=#3384FF;rounded=1;html=1;align=center;fontStyle=1;sketch=1;hachureGap=4;pointerEvents=0;fontFamily=Architects Daughter;fontSource=https%3A%2F%2Ffonts.googleapis.com%2Fcss%3Ffamily%3DArchitects%2BDaughter;fillStyle=auto;" parent="1" vertex="1">
          <mxGeometry x="918.57484375" y="2337.1442857142856" width="57.143125" height="28.571428571428573" as="geometry" />
        </mxCell>
        <mxCell id="J5Lqej5zV_sNJ-SoRFqQ-481" value="jmooring/BBDEV-1603" style="strokeColor=none;fillColor=none;fontSize=12;fontColor=#596780;align=left;html=1;sketch=1;hachureGap=4;pointerEvents=0;fontFamily=Architects Daughter;fontSource=https%3A%2F%2Ffonts.googleapis.com%2Fcss%3Ffamily%3DArchitects%2BDaughter;fillStyle=auto;" parent="1" vertex="1">
          <mxGeometry x="198.56578125000001" y="2380.0042857142857" width="342.85875" height="28.571428571428573" as="geometry" />
        </mxCell>
        <mxCell id="J5Lqej5zV_sNJ-SoRFqQ-482" value="" style="shape=mxgraph.mockup.misc.progressBar;fillColor=#3384FF;strokeColor=none;fillColor2=#F2F2F2;barPos=80;sketch=1;hachureGap=4;pointerEvents=0;fontFamily=Architects Daughter;fontSource=https%3A%2F%2Ffonts.googleapis.com%2Fcss%3Ffamily%3DArchitects%2BDaughter;fontSize=20;fillStyle=auto;" parent="1" vertex="1">
          <mxGeometry x="569.99609375" y="2387.1471428571426" width="114.28625" height="14.285714285714286" as="geometry" />
        </mxCell>
        <mxCell id="J5Lqej5zV_sNJ-SoRFqQ-483" value="29 minutes ago" style="strokeColor=none;fillColor=none;fontSize=12;fontColor=#596780;align=left;html=1;sketch=1;hachureGap=4;pointerEvents=0;fontFamily=Architects Daughter;fontSource=https%3A%2F%2Ffonts.googleapis.com%2Fcss%3Ffamily%3DArchitects%2BDaughter;fillStyle=auto;" parent="1" vertex="1">
          <mxGeometry x="712.85390625" y="2380.0042857142857" width="71.42890625" height="28.571428571428573" as="geometry" />
        </mxCell>
        <mxCell id="J5Lqej5zV_sNJ-SoRFqQ-484" value="#10244" style="strokeColor=none;fillColor=none;fontSize=12;fontColor=#0057D8;align=left;html=1;sketch=1;hachureGap=4;pointerEvents=0;fontFamily=Architects Daughter;fontSource=https%3A%2F%2Ffonts.googleapis.com%2Fcss%3Ffamily%3DArchitects%2BDaughter;fillStyle=auto;" parent="1" vertex="1">
          <mxGeometry x="841.4259375" y="2380.0042857142857" width="71.42890625" height="28.571428571428573" as="geometry" />
        </mxCell>
        <mxCell id="J5Lqej5zV_sNJ-SoRFqQ-485" value="OPEN" style="strokeColor=none;fillColor=#CCE0FF;fontSize=11;fontColor=#3384FF;rounded=1;html=1;align=center;fontStyle=1;sketch=1;hachureGap=4;pointerEvents=0;fontFamily=Architects Daughter;fontSource=https%3A%2F%2Ffonts.googleapis.com%2Fcss%3Ffamily%3DArchitects%2BDaughter;fillStyle=auto;" parent="1" vertex="1">
          <mxGeometry x="912.85484375" y="2380.0042857142857" width="57.143125" height="28.571428571428573" as="geometry" />
        </mxCell>
        <mxCell id="J5Lqej5zV_sNJ-SoRFqQ-496" value="abhin/repo/api/allow_repo_updates" style="strokeColor=none;fillColor=none;fontSize=12;fontColor=#596780;align=left;html=1;sketch=1;hachureGap=4;pointerEvents=0;fontFamily=Architects Daughter;fontSource=https%3A%2F%2Ffonts.googleapis.com%2Fcss%3Ffamily%3DArchitects%2BDaughter;fillStyle=auto;" parent="1" vertex="1">
          <mxGeometry x="198.56578125000001" y="2257.1428571428573" width="342.85875" height="28.571428571428573" as="geometry" />
        </mxCell>
        <mxCell id="J5Lqej5zV_sNJ-SoRFqQ-497" value="" style="shape=mxgraph.mockup.misc.progressBar;fillColor=#3384FF;strokeColor=none;fillColor2=#F2F2F2;barPos=80;sketch=1;hachureGap=4;pointerEvents=0;fontFamily=Architects Daughter;fontSource=https%3A%2F%2Ffonts.googleapis.com%2Fcss%3Ffamily%3DArchitects%2BDaughter;fontSize=20;fillStyle=auto;" parent="1" vertex="1">
          <mxGeometry x="569.99609375" y="2264.285714285714" width="114.28625" height="14.285714285714286" as="geometry" />
        </mxCell>
        <mxCell id="J5Lqej5zV_sNJ-SoRFqQ-498" value="5 minutes ago" style="strokeColor=none;fillColor=none;fontSize=12;fontColor=#596780;align=left;html=1;sketch=1;hachureGap=4;pointerEvents=0;fontFamily=Architects Daughter;fontSource=https%3A%2F%2Ffonts.googleapis.com%2Fcss%3Ffamily%3DArchitects%2BDaughter;fillStyle=auto;" parent="1" vertex="1">
          <mxGeometry x="712.85390625" y="2257.1428571428573" width="71.42890625" height="28.571428571428573" as="geometry" />
        </mxCell>
        <mxCell id="J5Lqej5zV_sNJ-SoRFqQ-499" value="#10258" style="strokeColor=none;fillColor=none;fontSize=12;fontColor=#596780;align=left;html=1;sketch=1;hachureGap=4;pointerEvents=0;fontFamily=Architects Daughter;fontSource=https%3A%2F%2Ffonts.googleapis.com%2Fcss%3Ffamily%3DArchitects%2BDaughter;fillStyle=auto;" parent="1" vertex="1">
          <mxGeometry x="841.4259375" y="2257.1428571428573" width="71.42890625" height="28.571428571428573" as="geometry" />
        </mxCell>
        <mxCell id="J5Lqej5zV_sNJ-SoRFqQ-500" value="OPEN" style="strokeColor=none;fillColor=#CCE0FF;fontSize=11;fontColor=#3384FF;rounded=1;html=1;align=center;fontStyle=1;sketch=1;hachureGap=4;pointerEvents=0;fontFamily=Architects Daughter;fontSource=https%3A%2F%2Ffonts.googleapis.com%2Fcss%3Ffamily%3DArchitects%2BDaughter;fillStyle=auto;" parent="1" vertex="1">
          <mxGeometry x="912.85484375" y="2257.1428571428573" width="57.143125" height="28.571428571428573" as="geometry" />
        </mxCell>
        <mxCell id="J5Lqej5zV_sNJ-SoRFqQ-501" value="" style="html=1;shadow=0;dashed=0;shape=mxgraph.bootstrap.rect;fillColor=#222222;strokeColor=none;whiteSpace=wrap;rounded=0;fontSize=12;fontColor=#000000;align=center;" parent="1" vertex="1">
          <mxGeometry x="30" y="3390" width="1150" height="40" as="geometry" />
        </mxCell>
        <mxCell id="J5Lqej5zV_sNJ-SoRFqQ-502" value="MEMLA" style="html=1;shadow=0;dashed=0;fillColor=none;strokeColor=none;shape=mxgraph.bootstrap.rect;fontColor=#999999;fontSize=14;whiteSpace=wrap;" parent="J5Lqej5zV_sNJ-SoRFqQ-501" vertex="1">
          <mxGeometry width="115" height="40" as="geometry" />
        </mxCell>
        <mxCell id="J5Lqej5zV_sNJ-SoRFqQ-503" value="Publicactions" style="html=1;shadow=0;dashed=0;shape=mxgraph.bootstrap.rect;fillColor=#000000;strokeColor=none;fontColor=#ffffff;spacingRight=30;whiteSpace=wrap;" parent="J5Lqej5zV_sNJ-SoRFqQ-501" vertex="1">
          <mxGeometry x="115" width="129.375" height="40" as="geometry" />
        </mxCell>
        <mxCell id="J5Lqej5zV_sNJ-SoRFqQ-504" value="84" style="html=1;shadow=0;dashed=0;shape=mxgraph.bootstrap.rrect;rSize=8;fillColor=#ff0000;strokeColor=none;fontColor=#ffffff;whiteSpace=wrap;" parent="J5Lqej5zV_sNJ-SoRFqQ-503" vertex="1">
          <mxGeometry x="1" y="0.5" width="25" height="16" relative="1" as="geometry">
            <mxPoint x="-30" y="-8" as="offset" />
          </mxGeometry>
        </mxCell>
        <mxCell id="J5Lqej5zV_sNJ-SoRFqQ-505" value="&lt;div&gt;About MEMLA&lt;/div&gt;" style="html=1;shadow=0;dashed=0;fillColor=none;strokeColor=none;shape=mxgraph.bootstrap.rect;fontColor=#999999;spacingRight=30;whiteSpace=wrap;" parent="J5Lqej5zV_sNJ-SoRFqQ-501" vertex="1">
          <mxGeometry x="244.375" width="158.125" height="40" as="geometry" />
        </mxCell>
        <mxCell id="J5Lqej5zV_sNJ-SoRFqQ-506" value="42" style="html=1;shadow=0;dashed=0;shape=mxgraph.bootstrap.rrect;rSize=8;fillColor=#ff0000;strokeColor=none;fontColor=#ffffff;whiteSpace=wrap;" parent="J5Lqej5zV_sNJ-SoRFqQ-505" vertex="1">
          <mxGeometry x="1" y="0.5" width="25" height="16" relative="1" as="geometry">
            <mxPoint x="-30" y="-8" as="offset" />
          </mxGeometry>
        </mxCell>
        <mxCell id="J5Lqej5zV_sNJ-SoRFqQ-507" value="About US" style="html=1;shadow=0;dashed=0;fillColor=none;strokeColor=none;shape=mxgraph.bootstrap.rect;fontColor=#999999;whiteSpace=wrap;" parent="J5Lqej5zV_sNJ-SoRFqQ-501" vertex="1">
          <mxGeometry x="402.5" width="115" height="40" as="geometry" />
        </mxCell>
        <mxCell id="J5Lqej5zV_sNJ-SoRFqQ-508" value="Login" style="html=1;shadow=0;dashed=0;fillColor=none;strokeColor=none;shape=mxgraph.bootstrap.rect;fontColor=#999999;whiteSpace=wrap;" parent="J5Lqej5zV_sNJ-SoRFqQ-501" vertex="1">
          <mxGeometry x="948.75" width="100.625" height="40" as="geometry" />
        </mxCell>
        <mxCell id="J5Lqej5zV_sNJ-SoRFqQ-509" value="Register" style="html=1;shadow=0;dashed=0;fillColor=none;strokeColor=none;shape=mxgraph.bootstrap.rect;fontColor=#999999;whiteSpace=wrap;" parent="J5Lqej5zV_sNJ-SoRFqQ-501" vertex="1">
          <mxGeometry x="1049.375" width="100.625" height="40" as="geometry" />
        </mxCell>
        <mxCell id="J5Lqej5zV_sNJ-SoRFqQ-510" value="Back" style="html=1;shadow=0;dashed=0;shape=mxgraph.bootstrap.rrect;align=center;rSize=5;strokeColor=none;fillColor=#3D8BCD;fontColor=#ffffff;fontSize=16;whiteSpace=wrap;rounded=0;" parent="1" vertex="1">
          <mxGeometry x="190" y="3880" width="150" height="40" as="geometry" />
        </mxCell>
        <mxCell id="J5Lqej5zV_sNJ-SoRFqQ-511" value="Next" style="html=1;shadow=0;dashed=0;shape=mxgraph.bootstrap.rrect;align=center;rSize=5;strokeColor=none;fillColor=#DB524C;fontColor=#ffffff;fontSize=16;whiteSpace=wrap;rounded=0;" parent="1" vertex="1">
          <mxGeometry x="820" y="3880" width="170" height="40" as="geometry" />
        </mxCell>
        <mxCell id="J5Lqej5zV_sNJ-SoRFqQ-512" value="Phase 2: Codificación de cadenas" style="html=1;shadow=0;dashed=0;shape=mxgraph.bootstrap.rrect;rSize=5;strokeColor=#B8DCFE;strokeWidth=1;fillColor=#CCE7FE;fontColor=#004583;whiteSpace=wrap;align=left;verticalAlign=middle;spacingLeft=10;" parent="1" vertex="1">
          <mxGeometry x="160" y="3470" width="720" height="40" as="geometry" />
        </mxCell>
        <mxCell id="J5Lqej5zV_sNJ-SoRFqQ-513" value="Branch" style="html=1;fillColor=none;strokeColor=none;fontSize=11;align=left;fontColor=#596780;whiteSpace=wrap;sketch=1;hachureGap=4;pointerEvents=0;fontFamily=Architects Daughter;fontSource=https%3A%2F%2Ffonts.googleapis.com%2Fcss%3Ffamily%3DArchitects%2BDaughter;fillStyle=auto;" parent="1" vertex="1">
          <mxGeometry x="222.14578125000003" y="2950" width="214.28671875" height="28.571428571428573" as="geometry" />
        </mxCell>
        <mxCell id="J5Lqej5zV_sNJ-SoRFqQ-514" value="Behind" style="html=1;fillColor=none;strokeColor=none;fontSize=11;align=left;fontColor=#596780;whiteSpace=wrap;sketch=1;hachureGap=4;pointerEvents=0;fontFamily=Architects Daughter;fontSource=https%3A%2F%2Ffonts.googleapis.com%2Fcss%3Ffamily%3DArchitects%2BDaughter;fillStyle=auto;" parent="1" vertex="1">
          <mxGeometry x="593.57609375" y="2950" width="57.143125" height="28.571428571428573" as="geometry" />
        </mxCell>
        <mxCell id="J5Lqej5zV_sNJ-SoRFqQ-515" value="Ahead" style="html=1;fillColor=none;strokeColor=none;fontSize=11;align=right;fontColor=#596780;whiteSpace=wrap;sketch=1;hachureGap=4;pointerEvents=0;fontFamily=Architects Daughter;fontSource=https%3A%2F%2Ffonts.googleapis.com%2Fcss%3Ffamily%3DArchitects%2BDaughter;fillStyle=auto;" parent="1" vertex="1">
          <mxGeometry x="650.7192187500001" y="2950" width="57.143125" height="28.571428571428573" as="geometry" />
        </mxCell>
        <mxCell id="J5Lqej5zV_sNJ-SoRFqQ-516" value="Updated" style="html=1;fillColor=none;strokeColor=none;fontSize=11;align=left;fontColor=#596780;whiteSpace=wrap;sketch=1;hachureGap=4;pointerEvents=0;fontFamily=Architects Daughter;fontSource=https%3A%2F%2Ffonts.googleapis.com%2Fcss%3Ffamily%3DArchitects%2BDaughter;fillStyle=auto;" parent="1" vertex="1">
          <mxGeometry x="736.4339062500001" y="2950" width="128.57203125" height="28.571428571428573" as="geometry" />
        </mxCell>
        <mxCell id="J5Lqej5zV_sNJ-SoRFqQ-517" value="Pull request" style="html=1;fillColor=none;strokeColor=none;fontSize=11;align=center;fontColor=#596780;whiteSpace=wrap;sketch=1;hachureGap=4;pointerEvents=0;fontFamily=Architects Daughter;fontSource=https%3A%2F%2Ffonts.googleapis.com%2Fcss%3Ffamily%3DArchitects%2BDaughter;fillStyle=auto;" parent="1" vertex="1">
          <mxGeometry x="865.0059375000001" y="2950" width="128.57203125" height="28.571428571428573" as="geometry" />
        </mxCell>
        <mxCell id="J5Lqej5zV_sNJ-SoRFqQ-519" value="" style="shape=line;strokeWidth=2;html=1;strokeColor=#DFE1E5;resizeWidth=1;sketch=1;hachureGap=4;pointerEvents=0;fontFamily=Architects Daughter;fontSource=https%3A%2F%2Ffonts.googleapis.com%2Fcss%3Ffamily%3DArchitects%2BDaughter;fontSize=20;fillStyle=auto;" parent="1" vertex="1">
          <mxGeometry x="222.15" y="2978.57" width="777.85" height="14.29" as="geometry" />
        </mxCell>
        <mxCell id="J5Lqej5zV_sNJ-SoRFqQ-520" value="" style="strokeColor=none;fillColor=#FAFBFC;html=1;sketch=1;hachureGap=4;pointerEvents=0;fontFamily=Architects Daughter;fontSource=https%3A%2F%2Ffonts.googleapis.com%2Fcss%3Ffamily%3DArchitects%2BDaughter;fontSize=20;fillStyle=auto;" parent="1" vertex="1">
          <mxGeometry x="207.86" y="2987.14" width="802.14" height="42.86" as="geometry" />
        </mxCell>
        <mxCell id="J5Lqej5zV_sNJ-SoRFqQ-522" value="abhin/repo/api/allow_repo_updates" style="strokeColor=none;fillColor=none;fontSize=12;fontColor=#596780;align=left;html=1;sketch=1;hachureGap=4;pointerEvents=0;fontFamily=Architects Daughter;fontSource=https%3A%2F%2Ffonts.googleapis.com%2Fcss%3Ffamily%3DArchitects%2BDaughter;fillStyle=auto;" parent="1" vertex="1">
          <mxGeometry x="222.14578125000003" y="3037.1428571428573" width="342.85875" height="28.571428571428573" as="geometry" />
        </mxCell>
        <mxCell id="J5Lqej5zV_sNJ-SoRFqQ-523" value="" style="shape=mxgraph.mockup.misc.progressBar;fillColor=#3384FF;strokeColor=none;fillColor2=#F2F2F2;barPos=80;sketch=1;hachureGap=4;pointerEvents=0;fontFamily=Architects Daughter;fontSource=https%3A%2F%2Ffonts.googleapis.com%2Fcss%3Ffamily%3DArchitects%2BDaughter;fontSize=20;fillStyle=auto;" parent="1" vertex="1">
          <mxGeometry x="593.57609375" y="3044.285714285714" width="114.28625" height="14.285714285714286" as="geometry" />
        </mxCell>
        <mxCell id="J5Lqej5zV_sNJ-SoRFqQ-524" value="107" style="strokeColor=none;fillColor=none;fontSize=10;fontColor=#596780;align=left;html=1;sketch=1;hachureGap=4;pointerEvents=0;fontFamily=Architects Daughter;fontSource=https%3A%2F%2Ffonts.googleapis.com%2Fcss%3Ffamily%3DArchitects%2BDaughter;fillStyle=auto;" parent="1" vertex="1">
          <mxGeometry x="593.57609375" y="3054.285714285714" width="57.143125" height="28.571428571428573" as="geometry" />
        </mxCell>
        <mxCell id="J5Lqej5zV_sNJ-SoRFqQ-525" value="3" style="strokeColor=none;fillColor=none;fontSize=10;fontColor=#596780;align=right;html=1;sketch=1;hachureGap=4;pointerEvents=0;fontFamily=Architects Daughter;fontSource=https%3A%2F%2Ffonts.googleapis.com%2Fcss%3Ffamily%3DArchitects%2BDaughter;fillStyle=auto;" parent="1" vertex="1">
          <mxGeometry x="650.7192187500001" y="3054.285714285714" width="57.143125" height="28.571428571428573" as="geometry" />
        </mxCell>
        <mxCell id="J5Lqej5zV_sNJ-SoRFqQ-526" value="5 minutes ago" style="strokeColor=none;fillColor=none;fontSize=12;fontColor=#596780;align=left;html=1;sketch=1;hachureGap=4;pointerEvents=0;fontFamily=Architects Daughter;fontSource=https%3A%2F%2Ffonts.googleapis.com%2Fcss%3Ffamily%3DArchitects%2BDaughter;fillStyle=auto;" parent="1" vertex="1">
          <mxGeometry x="736.4339062500001" y="3037.1428571428573" width="71.42890625" height="28.571428571428573" as="geometry" />
        </mxCell>
        <mxCell id="J5Lqej5zV_sNJ-SoRFqQ-527" value="#10258" style="strokeColor=none;fillColor=none;fontSize=12;fontColor=#596780;align=left;html=1;sketch=1;hachureGap=4;pointerEvents=0;fontFamily=Architects Daughter;fontSource=https%3A%2F%2Ffonts.googleapis.com%2Fcss%3Ffamily%3DArchitects%2BDaughter;fillStyle=auto;" parent="1" vertex="1">
          <mxGeometry x="865.0059375000001" y="3037.1428571428573" width="71.42890625" height="28.571428571428573" as="geometry" />
        </mxCell>
        <mxCell id="J5Lqej5zV_sNJ-SoRFqQ-528" value="OPEN" style="strokeColor=none;fillColor=#CCE0FF;fontSize=11;fontColor=#3384FF;rounded=1;html=1;align=center;fontStyle=1;sketch=1;hachureGap=4;pointerEvents=0;fontFamily=Architects Daughter;fontSource=https%3A%2F%2Ffonts.googleapis.com%2Fcss%3Ffamily%3DArchitects%2BDaughter;fillStyle=auto;" parent="1" vertex="1">
          <mxGeometry x="936.43484375" y="3037.1428571428573" width="57.143125" height="28.571428571428573" as="geometry" />
        </mxCell>
        <mxCell id="J5Lqej5zV_sNJ-SoRFqQ-531" value="7" style="strokeColor=none;fillColor=none;fontSize=10;fontColor=#596780;align=left;html=1;sketch=1;hachureGap=4;pointerEvents=0;fontFamily=Architects Daughter;fontSource=https%3A%2F%2Ffonts.googleapis.com%2Fcss%3Ffamily%3DArchitects%2BDaughter;fillStyle=auto;" parent="1" vertex="1">
          <mxGeometry x="593.57609375" y="3140" width="57.143125" height="28.571428571428573" as="geometry" />
        </mxCell>
        <mxCell id="J5Lqej5zV_sNJ-SoRFqQ-532" value="1" style="strokeColor=none;fillColor=none;fontSize=10;fontColor=#596780;align=right;html=1;sketch=1;hachureGap=4;pointerEvents=0;fontFamily=Architects Daughter;fontSource=https%3A%2F%2Ffonts.googleapis.com%2Fcss%3Ffamily%3DArchitects%2BDaughter;fillStyle=auto;" parent="1" vertex="1">
          <mxGeometry x="650.7192187500001" y="3140" width="57.143125" height="28.571428571428573" as="geometry" />
        </mxCell>
        <mxCell id="J5Lqej5zV_sNJ-SoRFqQ-534" value="jmooring/BBDEV-1603" style="strokeColor=none;fillColor=none;fontSize=12;fontColor=#596780;align=left;html=1;sketch=1;hachureGap=4;pointerEvents=0;fontFamily=Architects Daughter;fontSource=https%3A%2F%2Ffonts.googleapis.com%2Fcss%3Ffamily%3DArchitects%2BDaughter;fillStyle=auto;" parent="1" vertex="1">
          <mxGeometry x="222.14578125000003" y="3165.714285714286" width="342.85875" height="28.571428571428573" as="geometry" />
        </mxCell>
        <mxCell id="J5Lqej5zV_sNJ-SoRFqQ-535" value="" style="shape=mxgraph.mockup.misc.progressBar;fillColor=#3384FF;strokeColor=none;fillColor2=#F2F2F2;barPos=80;sketch=1;hachureGap=4;pointerEvents=0;fontFamily=Architects Daughter;fontSource=https%3A%2F%2Ffonts.googleapis.com%2Fcss%3Ffamily%3DArchitects%2BDaughter;fontSize=20;fillStyle=auto;" parent="1" vertex="1">
          <mxGeometry x="593.57609375" y="3172.8571428571427" width="114.28625" height="14.285714285714286" as="geometry" />
        </mxCell>
        <mxCell id="J5Lqej5zV_sNJ-SoRFqQ-536" value="2" style="strokeColor=none;fillColor=none;fontSize=10;fontColor=#596780;align=left;html=1;sketch=1;hachureGap=4;pointerEvents=0;fontFamily=Architects Daughter;fontSource=https%3A%2F%2Ffonts.googleapis.com%2Fcss%3Ffamily%3DArchitects%2BDaughter;fillStyle=auto;" parent="1" vertex="1">
          <mxGeometry x="593.57609375" y="3182.8571428571427" width="57.143125" height="28.571428571428573" as="geometry" />
        </mxCell>
        <mxCell id="J5Lqej5zV_sNJ-SoRFqQ-537" value="14" style="strokeColor=none;fillColor=none;fontSize=10;fontColor=#596780;align=right;html=1;sketch=1;hachureGap=4;pointerEvents=0;fontFamily=Architects Daughter;fontSource=https%3A%2F%2Ffonts.googleapis.com%2Fcss%3Ffamily%3DArchitects%2BDaughter;fillStyle=auto;" parent="1" vertex="1">
          <mxGeometry x="650.7192187500001" y="3182.8571428571427" width="57.143125" height="28.571428571428573" as="geometry" />
        </mxCell>
        <mxCell id="J5Lqej5zV_sNJ-SoRFqQ-538" value="29 minutes ago" style="strokeColor=none;fillColor=none;fontSize=12;fontColor=#596780;align=left;html=1;sketch=1;hachureGap=4;pointerEvents=0;fontFamily=Architects Daughter;fontSource=https%3A%2F%2Ffonts.googleapis.com%2Fcss%3Ffamily%3DArchitects%2BDaughter;fillStyle=auto;" parent="1" vertex="1">
          <mxGeometry x="736.4339062500001" y="3165.714285714286" width="71.42890625" height="28.571428571428573" as="geometry" />
        </mxCell>
        <mxCell id="J5Lqej5zV_sNJ-SoRFqQ-539" value="#10244" style="strokeColor=none;fillColor=none;fontSize=12;fontColor=#0057D8;align=left;html=1;sketch=1;hachureGap=4;pointerEvents=0;fontFamily=Architects Daughter;fontSource=https%3A%2F%2Ffonts.googleapis.com%2Fcss%3Ffamily%3DArchitects%2BDaughter;fillStyle=auto;" parent="1" vertex="1">
          <mxGeometry x="865.0059375000001" y="3165.714285714286" width="71.42890625" height="28.571428571428573" as="geometry" />
        </mxCell>
        <mxCell id="J5Lqej5zV_sNJ-SoRFqQ-540" value="OPEN" style="strokeColor=none;fillColor=#CCE0FF;fontSize=11;fontColor=#3384FF;rounded=1;html=1;align=center;fontStyle=1;sketch=1;hachureGap=4;pointerEvents=0;fontFamily=Architects Daughter;fontSource=https%3A%2F%2Ffonts.googleapis.com%2Fcss%3Ffamily%3DArchitects%2BDaughter;fillStyle=auto;" parent="1" vertex="1">
          <mxGeometry x="936.43484375" y="3165.714285714286" width="57.143125" height="28.571428571428573" as="geometry" />
        </mxCell>
        <mxCell id="J5Lqej5zV_sNJ-SoRFqQ-541" value="" style="shape=line;strokeWidth=2;html=1;strokeColor=#DFE1E5;resizeWidth=1;sketch=1;hachureGap=4;pointerEvents=0;fontFamily=Architects Daughter;fontSource=https%3A%2F%2Ffonts.googleapis.com%2Fcss%3Ffamily%3DArchitects%2BDaughter;fontSize=20;fillStyle=auto;" parent="1" vertex="1">
          <mxGeometry x="222.15" y="3205.71" width="777.85" height="14.29" as="geometry" />
        </mxCell>
        <mxCell id="J5Lqej5zV_sNJ-SoRFqQ-543" value="jmooring/BBDEV-1603" style="strokeColor=none;fillColor=none;fontSize=12;fontColor=#596780;align=left;html=1;sketch=1;hachureGap=4;pointerEvents=0;fontFamily=Architects Daughter;fontSource=https%3A%2F%2Ffonts.googleapis.com%2Fcss%3Ffamily%3DArchitects%2BDaughter;fillStyle=auto;" parent="1" vertex="1">
          <mxGeometry x="222.14578125000003" y="3077.1442857142856" width="342.85875" height="28.571428571428573" as="geometry" />
        </mxCell>
        <mxCell id="J5Lqej5zV_sNJ-SoRFqQ-544" value="" style="shape=mxgraph.mockup.misc.progressBar;fillColor=#3384FF;strokeColor=none;fillColor2=#F2F2F2;barPos=80;sketch=1;hachureGap=4;pointerEvents=0;fontFamily=Architects Daughter;fontSource=https%3A%2F%2Ffonts.googleapis.com%2Fcss%3Ffamily%3DArchitects%2BDaughter;fontSize=20;fillStyle=auto;" parent="1" vertex="1">
          <mxGeometry x="593.57609375" y="3084.2871428571425" width="114.28625" height="14.285714285714286" as="geometry" />
        </mxCell>
        <mxCell id="J5Lqej5zV_sNJ-SoRFqQ-545" value="29 minutes ago" style="strokeColor=none;fillColor=none;fontSize=12;fontColor=#596780;align=left;html=1;sketch=1;hachureGap=4;pointerEvents=0;fontFamily=Architects Daughter;fontSource=https%3A%2F%2Ffonts.googleapis.com%2Fcss%3Ffamily%3DArchitects%2BDaughter;fillStyle=auto;" parent="1" vertex="1">
          <mxGeometry x="736.4339062500001" y="3077.1442857142856" width="71.42890625" height="28.571428571428573" as="geometry" />
        </mxCell>
        <mxCell id="J5Lqej5zV_sNJ-SoRFqQ-546" value="#10244" style="strokeColor=none;fillColor=none;fontSize=12;fontColor=#0057D8;align=left;html=1;sketch=1;hachureGap=4;pointerEvents=0;fontFamily=Architects Daughter;fontSource=https%3A%2F%2Ffonts.googleapis.com%2Fcss%3Ffamily%3DArchitects%2BDaughter;fillStyle=auto;" parent="1" vertex="1">
          <mxGeometry x="865.0059375000001" y="3077.1442857142856" width="71.42890625" height="28.571428571428573" as="geometry" />
        </mxCell>
        <mxCell id="J5Lqej5zV_sNJ-SoRFqQ-547" value="OPEN" style="strokeColor=none;fillColor=#CCE0FF;fontSize=11;fontColor=#3384FF;rounded=1;html=1;align=center;fontStyle=1;sketch=1;hachureGap=4;pointerEvents=0;fontFamily=Architects Daughter;fontSource=https%3A%2F%2Ffonts.googleapis.com%2Fcss%3Ffamily%3DArchitects%2BDaughter;fillStyle=auto;" parent="1" vertex="1">
          <mxGeometry x="936.43484375" y="3077.1442857142856" width="57.143125" height="28.571428571428573" as="geometry" />
        </mxCell>
        <mxCell id="J5Lqej5zV_sNJ-SoRFqQ-548" value="jmooring/BBDEV-1603" style="strokeColor=none;fillColor=none;fontSize=12;fontColor=#596780;align=left;html=1;sketch=1;hachureGap=4;pointerEvents=0;fontFamily=Architects Daughter;fontSource=https%3A%2F%2Ffonts.googleapis.com%2Fcss%3Ffamily%3DArchitects%2BDaughter;fillStyle=auto;" parent="1" vertex="1">
          <mxGeometry x="216.42578125000003" y="3120.0042857142857" width="342.85875" height="28.571428571428573" as="geometry" />
        </mxCell>
        <mxCell id="J5Lqej5zV_sNJ-SoRFqQ-549" value="" style="shape=mxgraph.mockup.misc.progressBar;fillColor=#3384FF;strokeColor=none;fillColor2=#F2F2F2;barPos=80;sketch=1;hachureGap=4;pointerEvents=0;fontFamily=Architects Daughter;fontSource=https%3A%2F%2Ffonts.googleapis.com%2Fcss%3Ffamily%3DArchitects%2BDaughter;fontSize=20;fillStyle=auto;" parent="1" vertex="1">
          <mxGeometry x="587.85609375" y="3127.1471428571426" width="114.28625" height="14.285714285714286" as="geometry" />
        </mxCell>
        <mxCell id="J5Lqej5zV_sNJ-SoRFqQ-550" value="29 minutes ago" style="strokeColor=none;fillColor=none;fontSize=12;fontColor=#596780;align=left;html=1;sketch=1;hachureGap=4;pointerEvents=0;fontFamily=Architects Daughter;fontSource=https%3A%2F%2Ffonts.googleapis.com%2Fcss%3Ffamily%3DArchitects%2BDaughter;fillStyle=auto;" parent="1" vertex="1">
          <mxGeometry x="730.71390625" y="3120.0042857142857" width="71.42890625" height="28.571428571428573" as="geometry" />
        </mxCell>
        <mxCell id="J5Lqej5zV_sNJ-SoRFqQ-551" value="#10244" style="strokeColor=none;fillColor=none;fontSize=12;fontColor=#0057D8;align=left;html=1;sketch=1;hachureGap=4;pointerEvents=0;fontFamily=Architects Daughter;fontSource=https%3A%2F%2Ffonts.googleapis.com%2Fcss%3Ffamily%3DArchitects%2BDaughter;fillStyle=auto;" parent="1" vertex="1">
          <mxGeometry x="859.2859375" y="3120.0042857142857" width="71.42890625" height="28.571428571428573" as="geometry" />
        </mxCell>
        <mxCell id="J5Lqej5zV_sNJ-SoRFqQ-552" value="OPEN" style="strokeColor=none;fillColor=#CCE0FF;fontSize=11;fontColor=#3384FF;rounded=1;html=1;align=center;fontStyle=1;sketch=1;hachureGap=4;pointerEvents=0;fontFamily=Architects Daughter;fontSource=https%3A%2F%2Ffonts.googleapis.com%2Fcss%3Ffamily%3DArchitects%2BDaughter;fillStyle=auto;" parent="1" vertex="1">
          <mxGeometry x="930.71484375" y="3120.0042857142857" width="57.143125" height="28.571428571428573" as="geometry" />
        </mxCell>
        <mxCell id="J5Lqej5zV_sNJ-SoRFqQ-553" value="abhin/repo/api/allow_repo_updates" style="strokeColor=none;fillColor=none;fontSize=12;fontColor=#596780;align=left;html=1;sketch=1;hachureGap=4;pointerEvents=0;fontFamily=Architects Daughter;fontSource=https%3A%2F%2Ffonts.googleapis.com%2Fcss%3Ffamily%3DArchitects%2BDaughter;fillStyle=auto;" parent="1" vertex="1">
          <mxGeometry x="216.42578125000003" y="2997.1428571428573" width="342.85875" height="28.571428571428573" as="geometry" />
        </mxCell>
        <mxCell id="J5Lqej5zV_sNJ-SoRFqQ-554" value="" style="shape=mxgraph.mockup.misc.progressBar;fillColor=#3384FF;strokeColor=none;fillColor2=#F2F2F2;barPos=80;sketch=1;hachureGap=4;pointerEvents=0;fontFamily=Architects Daughter;fontSource=https%3A%2F%2Ffonts.googleapis.com%2Fcss%3Ffamily%3DArchitects%2BDaughter;fontSize=20;fillStyle=auto;" parent="1" vertex="1">
          <mxGeometry x="587.85609375" y="3004.285714285714" width="114.28625" height="14.285714285714286" as="geometry" />
        </mxCell>
        <mxCell id="J5Lqej5zV_sNJ-SoRFqQ-555" value="5 minutes ago" style="strokeColor=none;fillColor=none;fontSize=12;fontColor=#596780;align=left;html=1;sketch=1;hachureGap=4;pointerEvents=0;fontFamily=Architects Daughter;fontSource=https%3A%2F%2Ffonts.googleapis.com%2Fcss%3Ffamily%3DArchitects%2BDaughter;fillStyle=auto;" parent="1" vertex="1">
          <mxGeometry x="730.71390625" y="2997.1428571428573" width="71.42890625" height="28.571428571428573" as="geometry" />
        </mxCell>
        <mxCell id="J5Lqej5zV_sNJ-SoRFqQ-556" value="#10258" style="strokeColor=none;fillColor=none;fontSize=12;fontColor=#596780;align=left;html=1;sketch=1;hachureGap=4;pointerEvents=0;fontFamily=Architects Daughter;fontSource=https%3A%2F%2Ffonts.googleapis.com%2Fcss%3Ffamily%3DArchitects%2BDaughter;fillStyle=auto;" parent="1" vertex="1">
          <mxGeometry x="859.2859375" y="2997.1428571428573" width="71.42890625" height="28.571428571428573" as="geometry" />
        </mxCell>
        <mxCell id="J5Lqej5zV_sNJ-SoRFqQ-557" value="OPEN" style="strokeColor=none;fillColor=#CCE0FF;fontSize=11;fontColor=#3384FF;rounded=1;html=1;align=center;fontStyle=1;sketch=1;hachureGap=4;pointerEvents=0;fontFamily=Architects Daughter;fontSource=https%3A%2F%2Ffonts.googleapis.com%2Fcss%3Ffamily%3DArchitects%2BDaughter;fillStyle=auto;" parent="1" vertex="1">
          <mxGeometry x="930.71484375" y="2997.1428571428573" width="57.143125" height="28.571428571428573" as="geometry" />
        </mxCell>
        <mxCell id="J5Lqej5zV_sNJ-SoRFqQ-558" value="eliminar" style="rounded=1;whiteSpace=wrap;html=1;arcSize=50;strokeColor=none;strokeWidth=1;fillColor=#DB2843;fontColor=#FFFFFF;whiteSpace=wrap;align=left;verticalAlign=middle;spacingLeft=0;fontStyle=1;fontSize=7;spacing=10;fillStyle=auto;" parent="1" vertex="1">
          <mxGeometry x="855" y="2954.29" width="40" height="20" as="geometry" />
        </mxCell>
        <mxCell id="J5Lqej5zV_sNJ-SoRFqQ-568" value="" style="html=1;shadow=0;dashed=0;fillColor=#F8F9FA;strokeColor=none;fontSize=16;fontColor=#181819;align=left;spacing=15;fillStyle=auto;" parent="1" vertex="1">
          <mxGeometry x="216.43" y="2900" width="123.57" height="40" as="geometry" />
        </mxCell>
        <mxCell id="J5Lqej5zV_sNJ-SoRFqQ-569" value="5%" style="html=1;shadow=0;dashed=0;shape=mxgraph.bootstrap.rrect;rSize=5;strokeColor=#CED4DA;html=1;whiteSpace=wrap;fillColor=#FFFFFF;fontColor=#7D868C;align=left;spacingLeft=50;fontSize=14;fillStyle=auto;" parent="J5Lqej5zV_sNJ-SoRFqQ-568" vertex="1">
          <mxGeometry width="100" height="20" relative="1" as="geometry">
            <mxPoint x="10" y="10" as="offset" />
          </mxGeometry>
        </mxCell>
        <mxCell id="J5Lqej5zV_sNJ-SoRFqQ-570" value="Rango" style="html=1;shadow=0;dashed=0;shape=mxgraph.bootstrap.leftButton;strokeColor=inherit;gradientColor=inherit;fontColor=inherit;fillColor=#E9ECEF;rSize=5;perimeter=none;whiteSpace=wrap;resizeHeight=1;fillStyle=auto;fontSize=9;" parent="J5Lqej5zV_sNJ-SoRFqQ-569" vertex="1">
          <mxGeometry width="40" height="20" relative="1" as="geometry" />
        </mxCell>
        <mxCell id="J5Lqej5zV_sNJ-SoRFqQ-571" value="" style="html=1;shadow=0;dashed=0;shape=mxgraph.bootstrap.rect;fillColor=#222222;strokeColor=none;whiteSpace=wrap;rounded=0;fontSize=12;fontColor=#000000;align=center;" parent="1" vertex="1">
          <mxGeometry x="36.08" y="4050" width="1150" height="40" as="geometry" />
        </mxCell>
        <mxCell id="J5Lqej5zV_sNJ-SoRFqQ-572" value="MEMLA" style="html=1;shadow=0;dashed=0;fillColor=none;strokeColor=none;shape=mxgraph.bootstrap.rect;fontColor=#999999;fontSize=14;whiteSpace=wrap;" parent="J5Lqej5zV_sNJ-SoRFqQ-571" vertex="1">
          <mxGeometry width="115" height="40" as="geometry" />
        </mxCell>
        <mxCell id="J5Lqej5zV_sNJ-SoRFqQ-573" value="Publicactions" style="html=1;shadow=0;dashed=0;shape=mxgraph.bootstrap.rect;fillColor=#000000;strokeColor=none;fontColor=#ffffff;spacingRight=30;whiteSpace=wrap;" parent="J5Lqej5zV_sNJ-SoRFqQ-571" vertex="1">
          <mxGeometry x="115" width="129.375" height="40" as="geometry" />
        </mxCell>
        <mxCell id="J5Lqej5zV_sNJ-SoRFqQ-574" value="84" style="html=1;shadow=0;dashed=0;shape=mxgraph.bootstrap.rrect;rSize=8;fillColor=#ff0000;strokeColor=none;fontColor=#ffffff;whiteSpace=wrap;" parent="J5Lqej5zV_sNJ-SoRFqQ-573" vertex="1">
          <mxGeometry x="1" y="0.5" width="25" height="16" relative="1" as="geometry">
            <mxPoint x="-30" y="-8" as="offset" />
          </mxGeometry>
        </mxCell>
        <mxCell id="J5Lqej5zV_sNJ-SoRFqQ-575" value="&lt;div&gt;About MEMLA&lt;/div&gt;" style="html=1;shadow=0;dashed=0;fillColor=none;strokeColor=none;shape=mxgraph.bootstrap.rect;fontColor=#999999;spacingRight=30;whiteSpace=wrap;" parent="J5Lqej5zV_sNJ-SoRFqQ-571" vertex="1">
          <mxGeometry x="244.375" width="158.125" height="40" as="geometry" />
        </mxCell>
        <mxCell id="J5Lqej5zV_sNJ-SoRFqQ-576" value="42" style="html=1;shadow=0;dashed=0;shape=mxgraph.bootstrap.rrect;rSize=8;fillColor=#ff0000;strokeColor=none;fontColor=#ffffff;whiteSpace=wrap;" parent="J5Lqej5zV_sNJ-SoRFqQ-575" vertex="1">
          <mxGeometry x="1" y="0.5" width="25" height="16" relative="1" as="geometry">
            <mxPoint x="-30" y="-8" as="offset" />
          </mxGeometry>
        </mxCell>
        <mxCell id="J5Lqej5zV_sNJ-SoRFqQ-577" value="About US" style="html=1;shadow=0;dashed=0;fillColor=none;strokeColor=none;shape=mxgraph.bootstrap.rect;fontColor=#999999;whiteSpace=wrap;" parent="J5Lqej5zV_sNJ-SoRFqQ-571" vertex="1">
          <mxGeometry x="402.5" width="115" height="40" as="geometry" />
        </mxCell>
        <mxCell id="J5Lqej5zV_sNJ-SoRFqQ-578" value="Login" style="html=1;shadow=0;dashed=0;fillColor=none;strokeColor=none;shape=mxgraph.bootstrap.rect;fontColor=#999999;whiteSpace=wrap;" parent="J5Lqej5zV_sNJ-SoRFqQ-571" vertex="1">
          <mxGeometry x="948.75" width="100.625" height="40" as="geometry" />
        </mxCell>
        <mxCell id="J5Lqej5zV_sNJ-SoRFqQ-579" value="Register" style="html=1;shadow=0;dashed=0;fillColor=none;strokeColor=none;shape=mxgraph.bootstrap.rect;fontColor=#999999;whiteSpace=wrap;" parent="J5Lqej5zV_sNJ-SoRFqQ-571" vertex="1">
          <mxGeometry x="1049.375" width="100.625" height="40" as="geometry" />
        </mxCell>
        <mxCell id="J5Lqej5zV_sNJ-SoRFqQ-580" value="Back" style="html=1;shadow=0;dashed=0;shape=mxgraph.bootstrap.rrect;align=center;rSize=5;strokeColor=none;fillColor=#3D8BCD;fontColor=#ffffff;fontSize=16;whiteSpace=wrap;rounded=0;" parent="1" vertex="1">
          <mxGeometry x="160" y="4640" width="150" height="40" as="geometry" />
        </mxCell>
        <mxCell id="J5Lqej5zV_sNJ-SoRFqQ-581" value="Next" style="html=1;shadow=0;dashed=0;shape=mxgraph.bootstrap.rrect;align=center;rSize=5;strokeColor=none;fillColor=#DB524C;fontColor=#ffffff;fontSize=16;whiteSpace=wrap;rounded=0;" parent="1" vertex="1">
          <mxGeometry x="789.9999999999999" y="4640" width="170" height="40" as="geometry" />
        </mxCell>
        <mxCell id="J5Lqej5zV_sNJ-SoRFqQ-582" value="Phase 2: Cargar Archivo" style="html=1;shadow=0;dashed=0;shape=mxgraph.bootstrap.rrect;rSize=5;strokeColor=#B8DCFE;strokeWidth=1;fillColor=#CCE7FE;fontColor=#004583;whiteSpace=wrap;align=left;verticalAlign=middle;spacingLeft=10;" parent="1" vertex="1">
          <mxGeometry x="166.08" y="4130" width="720" height="40" as="geometry" />
        </mxCell>
        <mxCell id="J5Lqej5zV_sNJ-SoRFqQ-583" value="Clase" style="html=1;fillColor=none;strokeColor=none;fontSize=11;align=left;fontColor=#596780;whiteSpace=wrap;sketch=1;hachureGap=4;pointerEvents=0;fontFamily=Architects Daughter;fontSource=https%3A%2F%2Ffonts.googleapis.com%2Fcss%3Ffamily%3DArchitects%2BDaughter;fillStyle=auto;" parent="1" vertex="1">
          <mxGeometry x="300" y="3610" width="150" height="20" as="geometry" />
        </mxCell>
        <mxCell id="J5Lqej5zV_sNJ-SoRFqQ-584" value="Valor" style="html=1;fillColor=none;strokeColor=none;fontSize=11;align=left;fontColor=#596780;whiteSpace=wrap;sketch=1;hachureGap=4;pointerEvents=0;fontFamily=Architects Daughter;fontSource=https%3A%2F%2Ffonts.googleapis.com%2Fcss%3Ffamily%3DArchitects%2BDaughter;fillStyle=auto;" parent="1" vertex="1">
          <mxGeometry x="560" y="3610" width="40" height="20" as="geometry" />
        </mxCell>
        <mxCell id="J5Lqej5zV_sNJ-SoRFqQ-589" value="" style="shape=line;strokeWidth=2;html=1;strokeColor=#DFE1E5;resizeWidth=1;sketch=1;hachureGap=4;pointerEvents=0;fontFamily=Architects Daughter;fontSource=https%3A%2F%2Ffonts.googleapis.com%2Fcss%3Ffamily%3DArchitects%2BDaughter;fontSize=20;fillStyle=auto;" parent="1" vertex="1">
          <mxGeometry x="300" y="3630" width="400" height="10" as="geometry" />
        </mxCell>
        <mxCell id="J5Lqej5zV_sNJ-SoRFqQ-591" value="Azul" style="strokeColor=none;fillColor=none;fontSize=12;fontColor=#596780;align=left;html=1;sketch=1;hachureGap=4;pointerEvents=0;fontFamily=Architects Daughter;fontSource=https%3A%2F%2Ffonts.googleapis.com%2Fcss%3Ffamily%3DArchitects%2BDaughter;fillStyle=auto;" parent="1" vertex="1">
          <mxGeometry x="300" y="3641" width="50" height="20" as="geometry" />
        </mxCell>
        <mxCell id="J5Lqej5zV_sNJ-SoRFqQ-592" value="" style="strokeColor=none;fillColor=#EDEEEF;fontSize=11;fontColor=#596780;rounded=1;html=1;sketch=1;hachureGap=4;pointerEvents=0;fontFamily=Architects Daughter;fontSource=https%3A%2F%2Ffonts.googleapis.com%2Fcss%3Ffamily%3DArchitects%2BDaughter;fillStyle=auto;" parent="1" vertex="1">
          <mxGeometry x="350" y="3641" width="65" height="20" as="geometry" />
        </mxCell>
        <mxCell id="J5Lqej5zV_sNJ-SoRFqQ-599" value="Verde" style="strokeColor=none;fillColor=none;fontSize=12;fontColor=#596780;align=left;html=1;sketch=1;hachureGap=4;pointerEvents=0;fontFamily=Architects Daughter;fontSource=https%3A%2F%2Ffonts.googleapis.com%2Fcss%3Ffamily%3DArchitects%2BDaughter;fillStyle=auto;" parent="1" vertex="1">
          <mxGeometry x="300" y="3671" width="240" height="20" as="geometry" />
        </mxCell>
        <mxCell id="J5Lqej5zV_sNJ-SoRFqQ-602" value="1" style="strokeColor=none;fillColor=none;fontSize=21;fontColor=#596780;align=right;html=1;sketch=1;hachureGap=4;pointerEvents=0;fontFamily=Architects Daughter;fontSource=https%3A%2F%2Ffonts.googleapis.com%2Fcss%3Ffamily%3DArchitects%2BDaughter;fillStyle=auto;" parent="1" vertex="1">
          <mxGeometry x="550" y="3641" width="40" height="20" as="geometry" />
        </mxCell>
        <mxCell id="J5Lqej5zV_sNJ-SoRFqQ-607" value="Amarillo" style="strokeColor=none;fillColor=none;fontSize=12;fontColor=#596780;align=left;html=1;sketch=1;hachureGap=4;pointerEvents=0;fontFamily=Architects Daughter;fontSource=https%3A%2F%2Ffonts.googleapis.com%2Fcss%3Ffamily%3DArchitects%2BDaughter;fillStyle=auto;" parent="1" vertex="1">
          <mxGeometry x="300" y="3701" width="240" height="20" as="geometry" />
        </mxCell>
        <mxCell id="J5Lqej5zV_sNJ-SoRFqQ-615" value="Rojo" style="strokeColor=none;fillColor=none;fontSize=12;fontColor=#596780;align=left;html=1;sketch=1;hachureGap=4;pointerEvents=0;fontFamily=Architects Daughter;fontSource=https%3A%2F%2Ffonts.googleapis.com%2Fcss%3Ffamily%3DArchitects%2BDaughter;fillStyle=auto;" parent="1" vertex="1">
          <mxGeometry x="300" y="3731" width="240" height="20" as="geometry" />
        </mxCell>
        <mxCell id="J5Lqej5zV_sNJ-SoRFqQ-623" value="Naranja" style="strokeColor=none;fillColor=none;fontSize=12;fontColor=#596780;align=left;html=1;sketch=1;hachureGap=4;pointerEvents=0;fontFamily=Architects Daughter;fontSource=https%3A%2F%2Ffonts.googleapis.com%2Fcss%3Ffamily%3DArchitects%2BDaughter;fillStyle=auto;" parent="1" vertex="1">
          <mxGeometry x="300" y="3761" width="240" height="20" as="geometry" />
        </mxCell>
        <mxCell id="J5Lqej5zV_sNJ-SoRFqQ-631" value="" style="shape=line;strokeWidth=2;html=1;strokeColor=#DFE1E5;resizeWidth=1;sketch=1;hachureGap=4;pointerEvents=0;fontFamily=Architects Daughter;fontSource=https%3A%2F%2Ffonts.googleapis.com%2Fcss%3Ffamily%3DArchitects%2BDaughter;fontSize=20;fillStyle=auto;" parent="1" vertex="1">
          <mxGeometry x="300" y="3789" width="420" height="10" as="geometry" />
        </mxCell>
        <mxCell id="J5Lqej5zV_sNJ-SoRFqQ-635" value="2" style="strokeColor=none;fillColor=none;fontSize=21;fontColor=#596780;align=right;html=1;sketch=1;hachureGap=4;pointerEvents=0;fontFamily=Architects Daughter;fontSource=https%3A%2F%2Ffonts.googleapis.com%2Fcss%3Ffamily%3DArchitects%2BDaughter;fillStyle=auto;" parent="1" vertex="1">
          <mxGeometry x="553.58" y="3671" width="40" height="20" as="geometry" />
        </mxCell>
        <mxCell id="J5Lqej5zV_sNJ-SoRFqQ-636" value="3" style="strokeColor=none;fillColor=none;fontSize=21;fontColor=#596780;align=right;html=1;sketch=1;hachureGap=4;pointerEvents=0;fontFamily=Architects Daughter;fontSource=https%3A%2F%2Ffonts.googleapis.com%2Fcss%3Ffamily%3DArchitects%2BDaughter;fillStyle=auto;" parent="1" vertex="1">
          <mxGeometry x="553.58" y="3701" width="40" height="20" as="geometry" />
        </mxCell>
        <mxCell id="J5Lqej5zV_sNJ-SoRFqQ-637" value="4" style="strokeColor=none;fillColor=none;fontSize=21;fontColor=#596780;align=right;html=1;sketch=1;hachureGap=4;pointerEvents=0;fontFamily=Architects Daughter;fontSource=https%3A%2F%2Ffonts.googleapis.com%2Fcss%3Ffamily%3DArchitects%2BDaughter;fillStyle=auto;" parent="1" vertex="1">
          <mxGeometry x="553.58" y="3731" width="40" height="20" as="geometry" />
        </mxCell>
        <mxCell id="J5Lqej5zV_sNJ-SoRFqQ-638" value="5" style="strokeColor=none;fillColor=none;fontSize=21;fontColor=#596780;align=right;html=1;sketch=1;hachureGap=4;pointerEvents=0;fontFamily=Architects Daughter;fontSource=https%3A%2F%2Ffonts.googleapis.com%2Fcss%3Ffamily%3DArchitects%2BDaughter;fillStyle=auto;" parent="1" vertex="1">
          <mxGeometry x="555" y="3761" width="40" height="20" as="geometry" />
        </mxCell>
        <mxCell id="J5Lqej5zV_sNJ-SoRFqQ-639" value="" style="html=1;shadow=0;dashed=0;shape=mxgraph.bootstrap.rect;fillColor=#222222;strokeColor=none;whiteSpace=wrap;rounded=0;fontSize=12;fontColor=#000000;align=center;" parent="1" vertex="1">
          <mxGeometry x="33.93" y="4760" width="1150" height="40" as="geometry" />
        </mxCell>
        <mxCell id="J5Lqej5zV_sNJ-SoRFqQ-640" value="MEMLA" style="html=1;shadow=0;dashed=0;fillColor=none;strokeColor=none;shape=mxgraph.bootstrap.rect;fontColor=#999999;fontSize=14;whiteSpace=wrap;" parent="J5Lqej5zV_sNJ-SoRFqQ-639" vertex="1">
          <mxGeometry width="115" height="40" as="geometry" />
        </mxCell>
        <mxCell id="J5Lqej5zV_sNJ-SoRFqQ-641" value="Publicactions" style="html=1;shadow=0;dashed=0;shape=mxgraph.bootstrap.rect;fillColor=#000000;strokeColor=none;fontColor=#ffffff;spacingRight=30;whiteSpace=wrap;" parent="J5Lqej5zV_sNJ-SoRFqQ-639" vertex="1">
          <mxGeometry x="115" width="129.375" height="40" as="geometry" />
        </mxCell>
        <mxCell id="J5Lqej5zV_sNJ-SoRFqQ-642" value="84" style="html=1;shadow=0;dashed=0;shape=mxgraph.bootstrap.rrect;rSize=8;fillColor=#ff0000;strokeColor=none;fontColor=#ffffff;whiteSpace=wrap;" parent="J5Lqej5zV_sNJ-SoRFqQ-641" vertex="1">
          <mxGeometry x="1" y="0.5" width="25" height="16" relative="1" as="geometry">
            <mxPoint x="-30" y="-8" as="offset" />
          </mxGeometry>
        </mxCell>
        <mxCell id="J5Lqej5zV_sNJ-SoRFqQ-643" value="&lt;div&gt;About MEMLA&lt;/div&gt;" style="html=1;shadow=0;dashed=0;fillColor=none;strokeColor=none;shape=mxgraph.bootstrap.rect;fontColor=#999999;spacingRight=30;whiteSpace=wrap;" parent="J5Lqej5zV_sNJ-SoRFqQ-639" vertex="1">
          <mxGeometry x="244.375" width="158.125" height="40" as="geometry" />
        </mxCell>
        <mxCell id="J5Lqej5zV_sNJ-SoRFqQ-644" value="42" style="html=1;shadow=0;dashed=0;shape=mxgraph.bootstrap.rrect;rSize=8;fillColor=#ff0000;strokeColor=none;fontColor=#ffffff;whiteSpace=wrap;" parent="J5Lqej5zV_sNJ-SoRFqQ-643" vertex="1">
          <mxGeometry x="1" y="0.5" width="25" height="16" relative="1" as="geometry">
            <mxPoint x="-30" y="-8" as="offset" />
          </mxGeometry>
        </mxCell>
        <mxCell id="J5Lqej5zV_sNJ-SoRFqQ-645" value="About US" style="html=1;shadow=0;dashed=0;fillColor=none;strokeColor=none;shape=mxgraph.bootstrap.rect;fontColor=#999999;whiteSpace=wrap;" parent="J5Lqej5zV_sNJ-SoRFqQ-639" vertex="1">
          <mxGeometry x="402.5" width="115" height="40" as="geometry" />
        </mxCell>
        <mxCell id="J5Lqej5zV_sNJ-SoRFqQ-646" value="Login" style="html=1;shadow=0;dashed=0;fillColor=none;strokeColor=none;shape=mxgraph.bootstrap.rect;fontColor=#999999;whiteSpace=wrap;" parent="J5Lqej5zV_sNJ-SoRFqQ-639" vertex="1">
          <mxGeometry x="948.75" width="100.625" height="40" as="geometry" />
        </mxCell>
        <mxCell id="J5Lqej5zV_sNJ-SoRFqQ-647" value="Register" style="html=1;shadow=0;dashed=0;fillColor=none;strokeColor=none;shape=mxgraph.bootstrap.rect;fontColor=#999999;whiteSpace=wrap;" parent="J5Lqej5zV_sNJ-SoRFqQ-639" vertex="1">
          <mxGeometry x="1049.375" width="100.625" height="40" as="geometry" />
        </mxCell>
        <mxCell id="J5Lqej5zV_sNJ-SoRFqQ-648" value="Back" style="html=1;shadow=0;dashed=0;shape=mxgraph.bootstrap.rrect;align=center;rSize=5;strokeColor=none;fillColor=#3D8BCD;fontColor=#ffffff;fontSize=16;whiteSpace=wrap;rounded=0;" parent="1" vertex="1">
          <mxGeometry x="160" y="5200" width="150" height="40" as="geometry" />
        </mxCell>
        <mxCell id="J5Lqej5zV_sNJ-SoRFqQ-649" value="Next" style="html=1;shadow=0;dashed=0;shape=mxgraph.bootstrap.rrect;align=center;rSize=5;strokeColor=none;fillColor=#DB524C;fontColor=#ffffff;fontSize=16;whiteSpace=wrap;rounded=0;" parent="1" vertex="1">
          <mxGeometry x="790" y="5200" width="170" height="40" as="geometry" />
        </mxCell>
        <mxCell id="J5Lqej5zV_sNJ-SoRFqQ-650" value="Phase 2: Manejo de Valores Atipicos y faltantes" style="html=1;shadow=0;dashed=0;shape=mxgraph.bootstrap.rrect;rSize=5;strokeColor=#B8DCFE;strokeWidth=1;fillColor=#CCE7FE;fontColor=#004583;whiteSpace=wrap;align=left;verticalAlign=middle;spacingLeft=10;" parent="1" vertex="1">
          <mxGeometry x="163.93" y="4840" width="720" height="40" as="geometry" />
        </mxCell>
        <mxCell id="J5Lqej5zV_sNJ-SoRFqQ-651" value="" style="html=1;shadow=0;dashed=0;shape=mxgraph.bootstrap.rrect;rSize=5;strokeColor=#DFDFDF;html=1;whiteSpace=wrap;fillColor=#FFFFFF;fontColor=#000000;fillStyle=auto;fontSize=12;" parent="1" vertex="1">
          <mxGeometry x="270" y="4220" width="510" height="270" as="geometry" />
        </mxCell>
        <mxCell id="J5Lqej5zV_sNJ-SoRFqQ-652" value="Dependencia Lineal" style="strokeColor=inherit;fillColor=inherit;gradientColor=inherit;fontColor=inherit;html=1;shadow=0;dashed=0;shape=mxgraph.bootstrap.topButton;rSize=5;perimeter=none;whiteSpace=wrap;resizeWidth=1;align=left;spacing=10;fillStyle=auto;fontSize=12;" parent="J5Lqej5zV_sNJ-SoRFqQ-651" vertex="1">
          <mxGeometry width="510" height="30" relative="1" as="geometry" />
        </mxCell>
        <mxCell id="J5Lqej5zV_sNJ-SoRFqQ-653" value="Nombre columna" style="html=1;fillColor=#B8DCFE;strokeColor=#A1C0DE;fontColor=#004583;shadow=0;dashed=0;perimeter=none;whiteSpace=wrap;resizeWidth=1;align=left;spacing=10;fillStyle=auto;fontSize=12;" parent="J5Lqej5zV_sNJ-SoRFqQ-651" vertex="1">
          <mxGeometry width="510" height="30" relative="1" as="geometry">
            <mxPoint y="30" as="offset" />
          </mxGeometry>
        </mxCell>
        <mxCell id="J5Lqej5zV_sNJ-SoRFqQ-654" value="Nombre columna" style="html=1;fillColor=#D6D8DB;strokeColor=#BBBDC0;fontColor=#383D41;shadow=0;dashed=0;perimeter=none;whiteSpace=wrap;resizeWidth=1;align=left;spacing=10;fillStyle=auto;fontSize=12;" parent="J5Lqej5zV_sNJ-SoRFqQ-651" vertex="1">
          <mxGeometry width="510" height="30" relative="1" as="geometry">
            <mxPoint y="60" as="offset" />
          </mxGeometry>
        </mxCell>
        <mxCell id="J5Lqej5zV_sNJ-SoRFqQ-655" value="Nombre columna" style="html=1;fillColor=#FFECBC;strokeColor=#DFCEA4;fontColor=#856110;shadow=0;dashed=0;perimeter=none;whiteSpace=wrap;resizeWidth=1;align=left;spacing=10;fillStyle=auto;fontSize=12;" parent="J5Lqej5zV_sNJ-SoRFqQ-651" vertex="1">
          <mxGeometry width="510" height="30" relative="1" as="geometry">
            <mxPoint y="90" as="offset" />
          </mxGeometry>
        </mxCell>
        <mxCell id="J5Lqej5zV_sNJ-SoRFqQ-656" value="Nombre columna" style="html=1;shadow=0;dashed=0;perimeter=none;whiteSpace=wrap;resizeWidth=1;align=left;spacing=10;fillStyle=auto;fontSize=12;fillColor=none;strokeColor=#A7C9CE;fontColor=#0E5560;labelBackgroundColor=none;" parent="J5Lqej5zV_sNJ-SoRFqQ-651" vertex="1">
          <mxGeometry width="510" height="30" relative="1" as="geometry">
            <mxPoint y="120" as="offset" />
          </mxGeometry>
        </mxCell>
        <mxCell id="J5Lqej5zV_sNJ-SoRFqQ-657" value="Nombre columna" style="html=1;fillColor=#FFECBC;strokeColor=#DFCEA4;fontColor=#856110;shadow=0;dashed=0;perimeter=none;whiteSpace=wrap;resizeWidth=1;align=left;spacing=10;fillStyle=auto;fontSize=12;" parent="J5Lqej5zV_sNJ-SoRFqQ-651" vertex="1">
          <mxGeometry width="510" height="30" relative="1" as="geometry">
            <mxPoint y="150" as="offset" />
          </mxGeometry>
        </mxCell>
        <mxCell id="J5Lqej5zV_sNJ-SoRFqQ-658" value="Nombre columna" style="html=1;fillColor=none;strokeColor=#A7C9CE;fontColor=#0E5560;shadow=0;dashed=0;perimeter=none;whiteSpace=wrap;resizeWidth=1;align=left;spacing=10;fillStyle=auto;fontSize=12;labelBackgroundColor=none;" parent="J5Lqej5zV_sNJ-SoRFqQ-651" vertex="1">
          <mxGeometry width="510" height="30" relative="1" as="geometry">
            <mxPoint y="180" as="offset" />
          </mxGeometry>
        </mxCell>
        <mxCell id="J5Lqej5zV_sNJ-SoRFqQ-659" value="Nombre columna" style="html=1;fillColor=#B8DCFE;strokeColor=#A1C0DE;fontColor=#004583;shadow=0;dashed=0;perimeter=none;whiteSpace=wrap;resizeWidth=1;align=left;spacing=10;fillStyle=auto;fontSize=12;" parent="J5Lqej5zV_sNJ-SoRFqQ-651" vertex="1">
          <mxGeometry width="510" height="30" relative="1" as="geometry">
            <mxPoint y="210" as="offset" />
          </mxGeometry>
        </mxCell>
        <mxCell id="J5Lqej5zV_sNJ-SoRFqQ-660" value="Nombre columna" style="html=1;shadow=0;dashed=0;shape=mxgraph.bootstrap.bottomButton;fillColor=#C6C8CA;strokeColor=#ADAFB1;fontColor=#1B1E21;rSize=5;perimeter=none;whiteSpace=wrap;resizeWidth=1;resizeHeight=0;align=left;spacing=10;fillStyle=auto;fontSize=12;" parent="J5Lqej5zV_sNJ-SoRFqQ-651" vertex="1">
          <mxGeometry y="1" width="510" height="30" relative="1" as="geometry">
            <mxPoint y="-30" as="offset" />
          </mxGeometry>
        </mxCell>
        <mxCell id="J5Lqej5zV_sNJ-SoRFqQ-662" value="Delete" style="html=1;shadow=0;dashed=0;shape=mxgraph.bootstrap.rrect;rSize=5;strokeColor=none;strokeWidth=1;fillColor=#DB2843;fontColor=#FFFFFF;whiteSpace=wrap;align=left;verticalAlign=middle;spacingLeft=0;fontStyle=1;fontSize=14;spacing=5;labelBackgroundColor=none;fillStyle=auto;" parent="J5Lqej5zV_sNJ-SoRFqQ-651" vertex="1">
          <mxGeometry x="440" y="30" width="60" height="20" as="geometry" />
        </mxCell>
        <mxCell id="J5Lqej5zV_sNJ-SoRFqQ-663" value="Delete" style="html=1;shadow=0;dashed=0;shape=mxgraph.bootstrap.rrect;rSize=5;strokeColor=none;strokeWidth=1;fillColor=#DB2843;fontColor=#FFFFFF;whiteSpace=wrap;align=left;verticalAlign=middle;spacingLeft=0;fontStyle=1;fontSize=14;spacing=5;labelBackgroundColor=none;fillStyle=auto;" parent="J5Lqej5zV_sNJ-SoRFqQ-651" vertex="1">
          <mxGeometry x="440" y="60" width="60" height="20" as="geometry" />
        </mxCell>
        <mxCell id="J5Lqej5zV_sNJ-SoRFqQ-664" value="Delete" style="html=1;shadow=0;dashed=0;shape=mxgraph.bootstrap.rrect;rSize=5;strokeColor=none;strokeWidth=1;fillColor=#DB2843;fontColor=#FFFFFF;whiteSpace=wrap;align=left;verticalAlign=middle;spacingLeft=0;fontStyle=1;fontSize=14;spacing=5;labelBackgroundColor=none;fillStyle=auto;" parent="J5Lqej5zV_sNJ-SoRFqQ-651" vertex="1">
          <mxGeometry x="440" y="90" width="60" height="20" as="geometry" />
        </mxCell>
        <mxCell id="J5Lqej5zV_sNJ-SoRFqQ-665" value="Delete" style="html=1;shadow=0;dashed=0;shape=mxgraph.bootstrap.rrect;rSize=5;strokeColor=none;strokeWidth=1;fillColor=#DB2843;fontColor=#FFFFFF;whiteSpace=wrap;align=left;verticalAlign=middle;spacingLeft=0;fontStyle=1;fontSize=14;spacing=5;labelBackgroundColor=none;fillStyle=auto;" parent="J5Lqej5zV_sNJ-SoRFqQ-651" vertex="1">
          <mxGeometry x="440" y="150.75" width="60" height="20" as="geometry" />
        </mxCell>
        <mxCell id="J5Lqej5zV_sNJ-SoRFqQ-666" value="Delete" style="html=1;shadow=0;dashed=0;shape=mxgraph.bootstrap.rrect;rSize=5;strokeColor=none;strokeWidth=1;fillColor=#DB2843;fontColor=#FFFFFF;whiteSpace=wrap;align=left;verticalAlign=middle;spacingLeft=0;fontStyle=1;fontSize=14;spacing=5;labelBackgroundColor=none;fillStyle=auto;" parent="J5Lqej5zV_sNJ-SoRFqQ-651" vertex="1">
          <mxGeometry x="440" y="210" width="60" height="20" as="geometry" />
        </mxCell>
        <mxCell id="J5Lqej5zV_sNJ-SoRFqQ-667" value="Delete" style="html=1;shadow=0;dashed=0;shape=mxgraph.bootstrap.rrect;rSize=5;strokeColor=none;strokeWidth=1;fillColor=#DB2843;fontColor=#FFFFFF;whiteSpace=wrap;align=left;verticalAlign=middle;spacingLeft=0;fontStyle=1;fontSize=14;spacing=5;labelBackgroundColor=none;fillStyle=auto;" parent="J5Lqej5zV_sNJ-SoRFqQ-651" vertex="1">
          <mxGeometry x="440" y="240" width="60" height="20" as="geometry" />
        </mxCell>
        <mxCell id="J5Lqej5zV_sNJ-SoRFqQ-680" value="Branch" style="html=1;fillColor=none;strokeColor=none;fontSize=11;align=left;fontColor=#596780;whiteSpace=wrap;sketch=1;hachureGap=4;pointerEvents=0;fontFamily=Architects Daughter;fontSource=https%3A%2F%2Ffonts.googleapis.com%2Fcss%3Ffamily%3DArchitects%2BDaughter;fillStyle=auto;" parent="1" vertex="1">
          <mxGeometry x="183.21578125000002" y="4900" width="214.28671875" height="28.571428571428573" as="geometry" />
        </mxCell>
        <mxCell id="J5Lqej5zV_sNJ-SoRFqQ-681" value="Behind" style="html=1;fillColor=none;strokeColor=none;fontSize=11;align=left;fontColor=#596780;whiteSpace=wrap;sketch=1;hachureGap=4;pointerEvents=0;fontFamily=Architects Daughter;fontSource=https%3A%2F%2Ffonts.googleapis.com%2Fcss%3Ffamily%3DArchitects%2BDaughter;fillStyle=auto;" parent="1" vertex="1">
          <mxGeometry x="554.6460937500001" y="4900" width="57.143125" height="28.571428571428573" as="geometry" />
        </mxCell>
        <mxCell id="J5Lqej5zV_sNJ-SoRFqQ-682" value="Ahead" style="html=1;fillColor=none;strokeColor=none;fontSize=11;align=right;fontColor=#596780;whiteSpace=wrap;sketch=1;hachureGap=4;pointerEvents=0;fontFamily=Architects Daughter;fontSource=https%3A%2F%2Ffonts.googleapis.com%2Fcss%3Ffamily%3DArchitects%2BDaughter;fillStyle=auto;" parent="1" vertex="1">
          <mxGeometry x="611.7892187500001" y="4900" width="57.143125" height="28.571428571428573" as="geometry" />
        </mxCell>
        <mxCell id="J5Lqej5zV_sNJ-SoRFqQ-683" value="Updated" style="html=1;fillColor=none;strokeColor=none;fontSize=11;align=left;fontColor=#596780;whiteSpace=wrap;sketch=1;hachureGap=4;pointerEvents=0;fontFamily=Architects Daughter;fontSource=https%3A%2F%2Ffonts.googleapis.com%2Fcss%3Ffamily%3DArchitects%2BDaughter;fillStyle=auto;" parent="1" vertex="1">
          <mxGeometry x="697.5039062500001" y="4900" width="128.57203125" height="28.571428571428573" as="geometry" />
        </mxCell>
        <mxCell id="J5Lqej5zV_sNJ-SoRFqQ-684" value="Pull request" style="html=1;fillColor=none;strokeColor=none;fontSize=11;align=center;fontColor=#596780;whiteSpace=wrap;sketch=1;hachureGap=4;pointerEvents=0;fontFamily=Architects Daughter;fontSource=https%3A%2F%2Ffonts.googleapis.com%2Fcss%3Ffamily%3DArchitects%2BDaughter;fillStyle=auto;" parent="1" vertex="1">
          <mxGeometry x="826.0759375000001" y="4900" width="128.57203125" height="28.571428571428573" as="geometry" />
        </mxCell>
        <mxCell id="J5Lqej5zV_sNJ-SoRFqQ-685" value="" style="shape=line;strokeWidth=2;html=1;strokeColor=#DFE1E5;resizeWidth=1;sketch=1;hachureGap=4;pointerEvents=0;fontFamily=Architects Daughter;fontSource=https%3A%2F%2Ffonts.googleapis.com%2Fcss%3Ffamily%3DArchitects%2BDaughter;fontSize=20;fillStyle=auto;" parent="1" vertex="1">
          <mxGeometry x="183.22" y="4928.57" width="777.85" height="14.29" as="geometry" />
        </mxCell>
        <mxCell id="J5Lqej5zV_sNJ-SoRFqQ-686" value="" style="strokeColor=none;fillColor=#FAFBFC;html=1;sketch=1;hachureGap=4;pointerEvents=0;fontFamily=Architects Daughter;fontSource=https%3A%2F%2Ffonts.googleapis.com%2Fcss%3Ffamily%3DArchitects%2BDaughter;fontSize=20;fillStyle=auto;" parent="1" vertex="1">
          <mxGeometry x="168.93" y="4937.139999999999" width="802.14" height="42.86" as="geometry" />
        </mxCell>
        <mxCell id="J5Lqej5zV_sNJ-SoRFqQ-687" value="abhin/repo/api/allow_repo_updates" style="strokeColor=none;fillColor=none;fontSize=12;fontColor=#596780;align=left;html=1;sketch=1;hachureGap=4;pointerEvents=0;fontFamily=Architects Daughter;fontSource=https%3A%2F%2Ffonts.googleapis.com%2Fcss%3Ffamily%3DArchitects%2BDaughter;fillStyle=auto;" parent="1" vertex="1">
          <mxGeometry x="183.21578125000002" y="4987.142857142857" width="342.85875" height="28.571428571428573" as="geometry" />
        </mxCell>
        <mxCell id="J5Lqej5zV_sNJ-SoRFqQ-688" value="" style="shape=mxgraph.mockup.misc.progressBar;fillColor=#3384FF;strokeColor=none;fillColor2=#F2F2F2;barPos=80;sketch=1;hachureGap=4;pointerEvents=0;fontFamily=Architects Daughter;fontSource=https%3A%2F%2Ffonts.googleapis.com%2Fcss%3Ffamily%3DArchitects%2BDaughter;fontSize=20;fillStyle=auto;" parent="1" vertex="1">
          <mxGeometry x="554.6460937500001" y="4994.285714285714" width="114.28625" height="14.285714285714286" as="geometry" />
        </mxCell>
        <mxCell id="J5Lqej5zV_sNJ-SoRFqQ-689" value="107" style="strokeColor=none;fillColor=none;fontSize=10;fontColor=#596780;align=left;html=1;sketch=1;hachureGap=4;pointerEvents=0;fontFamily=Architects Daughter;fontSource=https%3A%2F%2Ffonts.googleapis.com%2Fcss%3Ffamily%3DArchitects%2BDaughter;fillStyle=auto;" parent="1" vertex="1">
          <mxGeometry x="554.6460937500001" y="5004.285714285714" width="57.143125" height="28.571428571428573" as="geometry" />
        </mxCell>
        <mxCell id="J5Lqej5zV_sNJ-SoRFqQ-690" value="3" style="strokeColor=none;fillColor=none;fontSize=10;fontColor=#596780;align=right;html=1;sketch=1;hachureGap=4;pointerEvents=0;fontFamily=Architects Daughter;fontSource=https%3A%2F%2Ffonts.googleapis.com%2Fcss%3Ffamily%3DArchitects%2BDaughter;fillStyle=auto;" parent="1" vertex="1">
          <mxGeometry x="611.7892187500001" y="5004.285714285714" width="57.143125" height="28.571428571428573" as="geometry" />
        </mxCell>
        <mxCell id="J5Lqej5zV_sNJ-SoRFqQ-691" value="5 minutes ago" style="strokeColor=none;fillColor=none;fontSize=12;fontColor=#596780;align=left;html=1;sketch=1;hachureGap=4;pointerEvents=0;fontFamily=Architects Daughter;fontSource=https%3A%2F%2Ffonts.googleapis.com%2Fcss%3Ffamily%3DArchitects%2BDaughter;fillStyle=auto;" parent="1" vertex="1">
          <mxGeometry x="697.5039062500001" y="4987.142857142857" width="71.42890625" height="28.571428571428573" as="geometry" />
        </mxCell>
        <mxCell id="J5Lqej5zV_sNJ-SoRFqQ-692" value="#10258" style="strokeColor=none;fillColor=none;fontSize=12;fontColor=#596780;align=left;html=1;sketch=1;hachureGap=4;pointerEvents=0;fontFamily=Architects Daughter;fontSource=https%3A%2F%2Ffonts.googleapis.com%2Fcss%3Ffamily%3DArchitects%2BDaughter;fillStyle=auto;" parent="1" vertex="1">
          <mxGeometry x="826.0759375000001" y="4987.142857142857" width="71.42890625" height="28.571428571428573" as="geometry" />
        </mxCell>
        <mxCell id="J5Lqej5zV_sNJ-SoRFqQ-693" value="OPEN" style="strokeColor=none;fillColor=#CCE0FF;fontSize=11;fontColor=#3384FF;rounded=1;html=1;align=center;fontStyle=1;sketch=1;hachureGap=4;pointerEvents=0;fontFamily=Architects Daughter;fontSource=https%3A%2F%2Ffonts.googleapis.com%2Fcss%3Ffamily%3DArchitects%2BDaughter;fillStyle=auto;" parent="1" vertex="1">
          <mxGeometry x="897.5048437500001" y="4987.142857142857" width="57.143125" height="28.571428571428573" as="geometry" />
        </mxCell>
        <mxCell id="J5Lqej5zV_sNJ-SoRFqQ-694" value="7" style="strokeColor=none;fillColor=none;fontSize=10;fontColor=#596780;align=left;html=1;sketch=1;hachureGap=4;pointerEvents=0;fontFamily=Architects Daughter;fontSource=https%3A%2F%2Ffonts.googleapis.com%2Fcss%3Ffamily%3DArchitects%2BDaughter;fillStyle=auto;" parent="1" vertex="1">
          <mxGeometry x="554.6460937500001" y="5090" width="57.143125" height="28.571428571428573" as="geometry" />
        </mxCell>
        <mxCell id="J5Lqej5zV_sNJ-SoRFqQ-695" value="1" style="strokeColor=none;fillColor=none;fontSize=10;fontColor=#596780;align=right;html=1;sketch=1;hachureGap=4;pointerEvents=0;fontFamily=Architects Daughter;fontSource=https%3A%2F%2Ffonts.googleapis.com%2Fcss%3Ffamily%3DArchitects%2BDaughter;fillStyle=auto;" parent="1" vertex="1">
          <mxGeometry x="611.7892187500001" y="5090" width="57.143125" height="28.571428571428573" as="geometry" />
        </mxCell>
        <mxCell id="J5Lqej5zV_sNJ-SoRFqQ-696" value="jmooring/BBDEV-1603" style="strokeColor=none;fillColor=none;fontSize=12;fontColor=#596780;align=left;html=1;sketch=1;hachureGap=4;pointerEvents=0;fontFamily=Architects Daughter;fontSource=https%3A%2F%2Ffonts.googleapis.com%2Fcss%3Ffamily%3DArchitects%2BDaughter;fillStyle=auto;" parent="1" vertex="1">
          <mxGeometry x="183.21578125000002" y="5115.714285714286" width="342.85875" height="28.571428571428573" as="geometry" />
        </mxCell>
        <mxCell id="J5Lqej5zV_sNJ-SoRFqQ-697" value="" style="shape=mxgraph.mockup.misc.progressBar;fillColor=#3384FF;strokeColor=none;fillColor2=#F2F2F2;barPos=80;sketch=1;hachureGap=4;pointerEvents=0;fontFamily=Architects Daughter;fontSource=https%3A%2F%2Ffonts.googleapis.com%2Fcss%3Ffamily%3DArchitects%2BDaughter;fontSize=20;fillStyle=auto;" parent="1" vertex="1">
          <mxGeometry x="554.6460937500001" y="5122.857142857143" width="114.28625" height="14.285714285714286" as="geometry" />
        </mxCell>
        <mxCell id="J5Lqej5zV_sNJ-SoRFqQ-698" value="2" style="strokeColor=none;fillColor=none;fontSize=10;fontColor=#596780;align=left;html=1;sketch=1;hachureGap=4;pointerEvents=0;fontFamily=Architects Daughter;fontSource=https%3A%2F%2Ffonts.googleapis.com%2Fcss%3Ffamily%3DArchitects%2BDaughter;fillStyle=auto;" parent="1" vertex="1">
          <mxGeometry x="554.6460937500001" y="5132.857142857143" width="57.143125" height="28.571428571428573" as="geometry" />
        </mxCell>
        <mxCell id="J5Lqej5zV_sNJ-SoRFqQ-699" value="14" style="strokeColor=none;fillColor=none;fontSize=10;fontColor=#596780;align=right;html=1;sketch=1;hachureGap=4;pointerEvents=0;fontFamily=Architects Daughter;fontSource=https%3A%2F%2Ffonts.googleapis.com%2Fcss%3Ffamily%3DArchitects%2BDaughter;fillStyle=auto;" parent="1" vertex="1">
          <mxGeometry x="611.7892187500001" y="5132.857142857143" width="57.143125" height="28.571428571428573" as="geometry" />
        </mxCell>
        <mxCell id="J5Lqej5zV_sNJ-SoRFqQ-700" value="29 minutes ago" style="strokeColor=none;fillColor=none;fontSize=12;fontColor=#596780;align=left;html=1;sketch=1;hachureGap=4;pointerEvents=0;fontFamily=Architects Daughter;fontSource=https%3A%2F%2Ffonts.googleapis.com%2Fcss%3Ffamily%3DArchitects%2BDaughter;fillStyle=auto;" parent="1" vertex="1">
          <mxGeometry x="697.5039062500001" y="5115.714285714286" width="71.42890625" height="28.571428571428573" as="geometry" />
        </mxCell>
        <mxCell id="J5Lqej5zV_sNJ-SoRFqQ-701" value="#10244" style="strokeColor=none;fillColor=none;fontSize=12;fontColor=#FF3333;align=left;html=1;sketch=1;hachureGap=4;pointerEvents=0;fontFamily=Architects Daughter;fontSource=https%3A%2F%2Ffonts.googleapis.com%2Fcss%3Ffamily%3DArchitects%2BDaughter;fillStyle=auto;" parent="1" vertex="1">
          <mxGeometry x="826.0759375000001" y="5115.714285714286" width="71.42890625" height="28.571428571428573" as="geometry" />
        </mxCell>
        <mxCell id="J5Lqej5zV_sNJ-SoRFqQ-702" value="OPEN" style="strokeColor=none;fillColor=#CCE0FF;fontSize=11;fontColor=#3384FF;rounded=1;html=1;align=center;fontStyle=1;sketch=1;hachureGap=4;pointerEvents=0;fontFamily=Architects Daughter;fontSource=https%3A%2F%2Ffonts.googleapis.com%2Fcss%3Ffamily%3DArchitects%2BDaughter;fillStyle=auto;" parent="1" vertex="1">
          <mxGeometry x="897.5048437500001" y="5115.714285714286" width="57.143125" height="28.571428571428573" as="geometry" />
        </mxCell>
        <mxCell id="J5Lqej5zV_sNJ-SoRFqQ-704" value="jmooring/BBDEV-1603" style="strokeColor=none;fillColor=none;fontSize=12;fontColor=#596780;align=left;html=1;sketch=1;hachureGap=4;pointerEvents=0;fontFamily=Architects Daughter;fontSource=https%3A%2F%2Ffonts.googleapis.com%2Fcss%3Ffamily%3DArchitects%2BDaughter;fillStyle=auto;" parent="1" vertex="1">
          <mxGeometry x="183.21578125000002" y="5027.144285714286" width="342.85875" height="28.571428571428573" as="geometry" />
        </mxCell>
        <mxCell id="J5Lqej5zV_sNJ-SoRFqQ-705" value="" style="shape=mxgraph.mockup.misc.progressBar;fillColor=#3384FF;strokeColor=none;fillColor2=#F2F2F2;barPos=80;sketch=1;hachureGap=4;pointerEvents=0;fontFamily=Architects Daughter;fontSource=https%3A%2F%2Ffonts.googleapis.com%2Fcss%3Ffamily%3DArchitects%2BDaughter;fontSize=20;fillStyle=auto;" parent="1" vertex="1">
          <mxGeometry x="554.6460937500001" y="5034.2871428571425" width="114.28625" height="14.285714285714286" as="geometry" />
        </mxCell>
        <mxCell id="J5Lqej5zV_sNJ-SoRFqQ-706" value="29 minutes ago" style="strokeColor=none;fillColor=none;fontSize=12;fontColor=#596780;align=left;html=1;sketch=1;hachureGap=4;pointerEvents=0;fontFamily=Architects Daughter;fontSource=https%3A%2F%2Ffonts.googleapis.com%2Fcss%3Ffamily%3DArchitects%2BDaughter;fillStyle=auto;" parent="1" vertex="1">
          <mxGeometry x="697.5039062500001" y="5027.144285714286" width="71.42890625" height="28.571428571428573" as="geometry" />
        </mxCell>
        <mxCell id="J5Lqej5zV_sNJ-SoRFqQ-707" value="#10244" style="strokeColor=none;fillColor=none;fontSize=12;fontColor=#FF3333;align=left;html=1;sketch=1;hachureGap=4;pointerEvents=0;fontFamily=Architects Daughter;fontSource=https%3A%2F%2Ffonts.googleapis.com%2Fcss%3Ffamily%3DArchitects%2BDaughter;fillStyle=auto;" parent="1" vertex="1">
          <mxGeometry x="826.0759375000001" y="5027.144285714286" width="71.42890625" height="28.571428571428573" as="geometry" />
        </mxCell>
        <mxCell id="J5Lqej5zV_sNJ-SoRFqQ-708" value="OPEN" style="strokeColor=none;fillColor=#CCE0FF;fontSize=11;fontColor=#3384FF;rounded=1;html=1;align=center;fontStyle=1;sketch=1;hachureGap=4;pointerEvents=0;fontFamily=Architects Daughter;fontSource=https%3A%2F%2Ffonts.googleapis.com%2Fcss%3Ffamily%3DArchitects%2BDaughter;fillStyle=auto;" parent="1" vertex="1">
          <mxGeometry x="897.5048437500001" y="5027.144285714286" width="57.143125" height="28.571428571428573" as="geometry" />
        </mxCell>
        <mxCell id="J5Lqej5zV_sNJ-SoRFqQ-709" value="jmooring/BBDEV-1603" style="strokeColor=none;fillColor=none;fontSize=12;fontColor=#596780;align=left;html=1;sketch=1;hachureGap=4;pointerEvents=0;fontFamily=Architects Daughter;fontSource=https%3A%2F%2Ffonts.googleapis.com%2Fcss%3Ffamily%3DArchitects%2BDaughter;fillStyle=auto;" parent="1" vertex="1">
          <mxGeometry x="177.49578125000002" y="5070.004285714285" width="342.85875" height="28.571428571428573" as="geometry" />
        </mxCell>
        <mxCell id="J5Lqej5zV_sNJ-SoRFqQ-711" value="29 minutes ago" style="strokeColor=none;fillColor=none;fontSize=12;fontColor=#596780;align=left;html=1;sketch=1;hachureGap=4;pointerEvents=0;fontFamily=Architects Daughter;fontSource=https%3A%2F%2Ffonts.googleapis.com%2Fcss%3Ffamily%3DArchitects%2BDaughter;fillStyle=auto;" parent="1" vertex="1">
          <mxGeometry x="691.7839062500001" y="5070.004285714285" width="71.42890625" height="28.571428571428573" as="geometry" />
        </mxCell>
        <mxCell id="J5Lqej5zV_sNJ-SoRFqQ-712" value="#10244" style="strokeColor=none;fillColor=none;fontSize=12;fontColor=#FF3333;align=left;html=1;sketch=1;hachureGap=4;pointerEvents=0;fontFamily=Architects Daughter;fontSource=https%3A%2F%2Ffonts.googleapis.com%2Fcss%3Ffamily%3DArchitects%2BDaughter;fillStyle=auto;" parent="1" vertex="1">
          <mxGeometry x="820.3559375000001" y="5070.004285714285" width="71.42890625" height="28.571428571428573" as="geometry" />
        </mxCell>
        <mxCell id="J5Lqej5zV_sNJ-SoRFqQ-713" value="OPEN" style="strokeColor=none;fillColor=#CCE0FF;fontSize=11;fontColor=#3384FF;rounded=1;html=1;align=center;fontStyle=1;sketch=1;hachureGap=4;pointerEvents=0;fontFamily=Architects Daughter;fontSource=https%3A%2F%2Ffonts.googleapis.com%2Fcss%3Ffamily%3DArchitects%2BDaughter;fillStyle=auto;" parent="1" vertex="1">
          <mxGeometry x="891.78484375" y="5070.004285714285" width="57.143125" height="28.571428571428573" as="geometry" />
        </mxCell>
        <mxCell id="J5Lqej5zV_sNJ-SoRFqQ-714" value="abhin/repo/api/allow_repo_updates" style="strokeColor=none;fillColor=none;fontSize=12;fontColor=#596780;align=left;html=1;sketch=1;hachureGap=4;pointerEvents=0;fontFamily=Architects Daughter;fontSource=https%3A%2F%2Ffonts.googleapis.com%2Fcss%3Ffamily%3DArchitects%2BDaughter;fillStyle=auto;" parent="1" vertex="1">
          <mxGeometry x="177.49578125000002" y="4947.142857142857" width="342.85875" height="28.571428571428573" as="geometry" />
        </mxCell>
        <mxCell id="J5Lqej5zV_sNJ-SoRFqQ-715" value="" style="shape=mxgraph.mockup.misc.progressBar;fillColor=#3384FF;strokeColor=none;fillColor2=#F2F2F2;barPos=80;sketch=1;hachureGap=4;pointerEvents=0;fontFamily=Architects Daughter;fontSource=https%3A%2F%2Ffonts.googleapis.com%2Fcss%3Ffamily%3DArchitects%2BDaughter;fontSize=20;fillStyle=auto;" parent="1" vertex="1">
          <mxGeometry x="548.9260937500001" y="4954.285714285714" width="114.28625" height="14.285714285714286" as="geometry" />
        </mxCell>
        <mxCell id="J5Lqej5zV_sNJ-SoRFqQ-716" value="5 minutes ago" style="strokeColor=none;fillColor=none;fontSize=12;fontColor=#596780;align=left;html=1;sketch=1;hachureGap=4;pointerEvents=0;fontFamily=Architects Daughter;fontSource=https%3A%2F%2Ffonts.googleapis.com%2Fcss%3Ffamily%3DArchitects%2BDaughter;fillStyle=auto;" parent="1" vertex="1">
          <mxGeometry x="691.7839062500001" y="4947.142857142857" width="71.42890625" height="28.571428571428573" as="geometry" />
        </mxCell>
        <mxCell id="J5Lqej5zV_sNJ-SoRFqQ-717" value="#10258" style="strokeColor=none;fillColor=none;fontSize=12;fontColor=#596780;align=left;html=1;sketch=1;hachureGap=4;pointerEvents=0;fontFamily=Architects Daughter;fontSource=https%3A%2F%2Ffonts.googleapis.com%2Fcss%3Ffamily%3DArchitects%2BDaughter;fillStyle=auto;" parent="1" vertex="1">
          <mxGeometry x="820.3559375000001" y="4947.142857142857" width="71.42890625" height="28.571428571428573" as="geometry" />
        </mxCell>
        <mxCell id="J5Lqej5zV_sNJ-SoRFqQ-718" value="OPEN" style="strokeColor=none;fillColor=#CCE0FF;fontSize=11;fontColor=#3384FF;rounded=1;html=1;align=center;fontStyle=1;sketch=1;hachureGap=4;pointerEvents=0;fontFamily=Architects Daughter;fontSource=https%3A%2F%2Ffonts.googleapis.com%2Fcss%3Ffamily%3DArchitects%2BDaughter;fillStyle=auto;" parent="1" vertex="1">
          <mxGeometry x="891.78484375" y="4947.142857142857" width="57.143125" height="28.571428571428573" as="geometry" />
        </mxCell>
        <mxCell id="J5Lqej5zV_sNJ-SoRFqQ-720" value="" style="html=1;shadow=0;dashed=0;shape=mxgraph.bootstrap.rrect;rSize=5;fillColor=#ffffff;strokeColor=#999999;" parent="1" vertex="1">
          <mxGeometry x="370" y="5080" width="170" height="110" as="geometry" />
        </mxCell>
        <mxCell id="J5Lqej5zV_sNJ-SoRFqQ-721" value="Mamiferos" style="fillColor=none;strokeColor=none;align=left;spacing=20;fontSize=14;" parent="J5Lqej5zV_sNJ-SoRFqQ-720" vertex="1">
          <mxGeometry width="170" height="30" relative="1" as="geometry">
            <mxPoint y="10" as="offset" />
          </mxGeometry>
        </mxCell>
        <mxCell id="J5Lqej5zV_sNJ-SoRFqQ-722" value="Acuatico" style="fillColor=#0085FC;strokeColor=none;fontColor=#ffffff;align=left;spacing=20;fontSize=14;sketch=0;" parent="J5Lqej5zV_sNJ-SoRFqQ-720" vertex="1">
          <mxGeometry width="170" height="30" relative="1" as="geometry">
            <mxPoint y="40" as="offset" />
          </mxGeometry>
        </mxCell>
        <mxCell id="J5Lqej5zV_sNJ-SoRFqQ-723" value="Carnivoro" style="fillColor=none;strokeColor=none;align=left;spacing=20;fontSize=14;" parent="J5Lqej5zV_sNJ-SoRFqQ-720" vertex="1">
          <mxGeometry width="170" height="30" relative="1" as="geometry">
            <mxPoint y="70" as="offset" />
          </mxGeometry>
        </mxCell>
        <mxCell id="J5Lqej5zV_sNJ-SoRFqQ-724" value="" style="shape=triangle;direction=south;fillColor=#0085FC;strokeColor=none;perimeter=none;sketch=0;" parent="1" vertex="1">
          <mxGeometry x="645.72" y="5086.43" width="10" height="5" as="geometry" />
        </mxCell>
      </root>
    </mxGraphModel>
  </diagram>
</mxfile>
